<?xml version="1.0" encoding="utf-8"?>
<!-- Generator: Adobe Illustrator 24.3.0, SVG Export Plug-In . SVG Version: 6.00 Build 0)  -->
<svg version="1.1" id="_x32_71e5882-3c8d-41ed-8a0a-1cb2b4d0cbc1"
     xmlns="http://www.w3.org/2000/svg" xmlns:xlink="http://www.w3.org/1999/xlink" x="0px" y="0px" viewBox="0 0 1137.7 859.7"
	 style="enable-background:new 0 0 1137.7 859.7;" xml:space="preserve">
<style type="text/css">
	.st0{opacity:0.1;fill:#0066ff;enable-background:new    ;}
	.st1{fill:#0066ff;}
	.st2{display:none;fill:#A8A8A8;}
	.st3{display:none;opacity:0.2;enable-background:new    ;}
	.st4{fill:#0066ff;}
	.st5{fill:#DDA071;}
	.st6{fill:#544748;}
	.st7{fill:#9F7753;}
	.st8{fill:#5A566F;}
	.st9{fill:#CB8B59;}
	.st10{fill:#7C5E5B;}
	.st11{fill:#EFA479;}
	.st12{fill:#AF7376;}
	.st13{fill:#434052;}
	.st14{fill:#575367;}
	.st15{fill:#704846;}
	.st16{fill:#B57370;}
	.st17{fill:#D79A6E;}
	.st18{fill:#434151;}
	.st19{fill:#FDDCA1;}
	.st20{fill:#D7B476;}
	.st21{fill:#FFFFFF;}
	.st22{fill:#A77957;}
	.st23{fill:none;stroke:#1F0C06;stroke-width:0.1;stroke-linecap:round;stroke-linejoin:round;}
	.st24{fill:none;stroke:#D3953A;stroke-width:0.1;stroke-linecap:round;stroke-linejoin:round;}
	.st25{fill:none;stroke:#83663C;stroke-width:0.1;stroke-linecap:round;stroke-linejoin:round;}
	.st26{fill:none;stroke:#C28730;stroke-width:0.1;stroke-linecap:round;stroke-linejoin:round;}
	.st27{fill:none;stroke:#1F0C06;stroke-linecap:round;stroke-linejoin:round;}
	.st28{fill:none;stroke:#1F0C06;stroke-width:0.5;stroke-linecap:round;stroke-linejoin:round;}
	.st29{fill:#A2722B;}
</style>
<path class="st0" d="M12.3,406.5c18,70.1,56.1,130.8,116.3,160.2c125.2,61.1,407.5,29.6,618.1-6.6c109-18.7,204.7-70.3,274.3-143
	L12.3,406.5z"/>
<path class="st0" d="M1117,76.3h-115.6c-5.5,0-10-4.1-10-9.1s4.5-9.1,10-9.1h20c-5.5,0-10-4.1-10-9.1s4.5-9.1,10-9.1h-14.3
	c-5.5,0-10-4.1-10-9.1s4.5-9.1,10-9.1h60.3c-13.4-5.7-29-9.7-47.1-11.8c-164.5-19.3-223.3-6.5-244,6.6c-25.8,16.5-54.5,28-84.5,33.8
	c-101.5,19.1-291.3,42.1-463.4-7.4C143,18.3,79.5,59.9,41.4,129.2h1095.7c-1.4-20.2-5.7-38.8-13.6-55.1
	C1121.7,75.5,1119.4,76.3,1117,76.3z"/>
<path class="st0" d="M2.5,260.1c-4.4,40.8-2.9,82,4.5,122.4l1014.9,33.8c28-29.2,51.7-62.2,70.5-98L2.5,260.1z M403.8,347.4h-20
	c5.5,0,10,4.1,10,9.1c0,5-4.5,9.1-10,9.1H268.3c-5.5,0-10-4.1-10-9.1s4.5-9.1,10-9.1h20c-5.5,0-10-4.1-10-9.1c0-5,4.5-9.1,10-9.1
	H274c-5.5,0-10-4.1-10-9.1s4.5-9.1,10-9.1h115.6c5.5,0,10,4.1,10,9.1c0,5-4.5,9.1-10,9.1h14.2c5.5,0,10,4.1,10,9.1
	C413.8,343.3,409.4,347.4,403.8,347.4z"/>
<path class="st0" d="M1137.2,129.8l-1108,24.6C15.7,186,6.7,221.7,2.6,258.7h1115.1c7.3-21.7,12.6-43.9,16.1-66.5
	C1137.2,170.4,1138.5,149.4,1137.2,129.8z M227.6,210.3h-20c5.5,0,10,4.1,10,9.1s-4.5,9.1-10,9.1H92c-5.5,0-10-4.1-10-9.1
	s4.5-9.1,10-9.1h20c-5.5,0-10-4.1-10-9.1s4.5-9.1,10-9.1H97.7c-5.5,0-10-4.1-10-9.1s4.5-9.1,10-9.1h115.6c5.5,0,10,4.1,10,9.1
	s-4.5,9.1-10,9.1h14.3c5.5,0,10,4.1,10,9.1S233.1,210.3,227.6,210.3z"/>
<ellipse class="st0" cx="664.3" cy="749.9" rx="75.2" ry="16.9"/>
<ellipse class="st0" cx="839.2" cy="803.6" rx="135.7" ry="11.1"/>
<ellipse class="st0" cx="294.2" cy="786.7" rx="135.7" ry="16.9"/>
<ellipse class="st0" cx="501.1" cy="702.1" rx="102.1" ry="16.9"/>
<ellipse class="st0" cx="529.7" cy="842.8" rx="81.8" ry="16.9"/>
<ellipse class="st1" cx="58.5" cy="722.9" rx="40.2" ry="6.8"/>
<path class="st1" d="M41.8,711.7c-1.8-1.5-3.2-3.5-3.8-5.8c-0.5-2.3,0.5-5,2.7-5.9c2.5-0.9,5.1,0.8,7.1,2.5s4.3,3.7,6.9,3.3
	c-2.7-2.5-4-6.2-3.2-9.8c0.1-0.7,0.4-1.4,0.9-2c1.4-1.5,3.8-0.8,5.5,0.3c5.2,3.7,6.7,10.7,6.7,17.1c0.5-2.3,0.1-4.7,0.1-7
	c0-2.3,0.7-5,2.6-6.2c1.2-0.7,2.6-1,4-1c2.3-0.1,4.9,0.2,6.5,1.9c2,2.1,1.5,5.7-0.3,8c-1.7,2.3-4.4,3.8-6.8,5.4
	c-1.9,1.2-3.6,2.7-4.8,4.6c-0.1,0.3-0.3,0.5-0.4,0.8H50.9C47.6,716.3,44.6,714.2,41.8,711.7z"/>
<ellipse class="st0" cx="1029.8" cy="754.1" rx="26.9" ry="4.5"/>
<path class="st2" d="M1011.8,733c0,0,15.4-0.5,20-3.8s23.6-7.2,24.8-1.9s23.1,26.3,5.7,26.4s-40.3-2.7-44.9-5.5
	S1011.8,733,1011.8,733z"/>
<path class="st3" d="M1062.6,751.9c-17.3,0.1-40.3-2.7-44.9-5.5c-3.5-2.1-4.9-9.8-5.4-13.4h-0.5c0,0,1,12.4,5.6,15.2
	s27.6,5.7,44.9,5.5c5,0,6.7-1.8,6.6-4.5C1068.2,750.9,1066.3,751.9,1062.6,751.9z"/>
<g id="Layer_1_1_">
	<g>
		<g>
			<g>
				<path class="st4" d="M845.2,355.7c0.1-1.1,0.3-2.3,0.3-3.8c0.3-2.8,0.5-6.4,0.7-10.8c0-0.2-0.1-0.4-0.1-0.5
					c-1.1-6.8-1.5-13.4-1.3-20c-0.2,3.5-1.1,10.2-2.5,20.2c-0.8,5.3-1.2,10-1.2,14.1c-1.2,5.2-2.2,10.4-2.9,15.8
					c-0.1,0.6-0.1,1.2-0.2,1.8c0.4,0.3,0.9,0.4,1.4,0.5c0.3,0.1,1,0.3,2.2,0.5c0.3,0,0.6,0.1,1.1,0.1c0,0.2-0.1,0.3-0.1,0.4
					c-0.2,0.5-0.4,1.4-0.8,2.5c-0.2,0.4-0.3,0.8-0.3,1.2c1.5-0.5,2.8-0.8,4.1-1l2-7.9c-1.3,0.1-2.6,0.3-3.9,0.6
					c-0.6,0.1-1.2,0.3-1.8,0.4c0.4-0.9,0.7-1.9,1.1-2.9C843.9,363.6,844.7,359.9,845.2,355.7 M875.4,372.7c-0.2,2.3-0.5,4.7-0.9,7
					l6-3.3C879.2,375,877.5,373.7,875.4,372.7 M734,370.6c-0.5,0.3,0.7,1.7,3.6,4.3c0-2,0-4,0.2-5.9
					C736.4,369.4,735.2,370,734,370.6 M769.3,368c-1.1-0.4-2.2-0.8-3.5-1c0,0.1,0,0.5,0.1,1.2c0.1,1.3,0.3,3.8,0.7,7.3
					c0,0.6,0.1,1.2,0.2,1.8c0,0,0,0.1,0,0.1c1.1,0.1,2.1,0.2,3.2,0.3c-0.1-1.9-0.3-3.8-0.7-5.6c0.1,0,0.2,0,0.3,0
					c1.5,0.1,3.1-0.3,4.7-0.9c0.1,0,0.1-0.1,0.2-0.1c-1.3-11.5-3.4-22.8-6.4-33.9C769.1,346.8,769.5,357.1,769.3,368 M569.1,387.8
					c-0.6,0.1-1.3,0.2-2.1,0.3c1.7,0.7,2.7,1,3,1.1c1.1,0.3,2.1,0.3,3.2,0c0.8-0.3,1.7-1,3-2.2C574.5,387.1,572.1,387.4,569.1,387.8
					 M565.5,367.5c-1.7,2.2-2.6,4.2-2.8,5.8c-0.2,1.6-0.3,2.5-0.3,2.5c0,0,0,0.1,0,0.1c2-0.8,4-2.1,5.9-4c0.8-0.8,2-2,3.5-3.6
					c0.1-0.1,0.3-0.3,0.4-0.5h0.2h0v0h0l-0.1-0.1l-0.2-0.1l0-0.1C569.4,365.3,567.2,365.3,565.5,367.5 M635.5,370.1
					c0,1.6,0.1,3,0.2,4.2c0.2,1.2,0.8,2.7,1.8,4.8c0.1,0.2,0.2,0.3,0.3,0.4c0,0,0,0.1,0.1,0c1.4-0.5,2.6-1.2,3.8-2.1
					c1.4-1.1,2.5-2.3,3.3-3.8c-2.9-2.3-6-4.4-9.3-6.2C635.6,367.6,635.6,368.5,635.5,370.1 M643.7,349.5
					C643.7,349.5,643.7,349.6,643.7,349.5c-0.8,0.4-1.6,1-2.6,1.8c-0.3,0.2-0.6,0.6-1.1,1.2c2.3,1.2,4.2,2.1,5.5,2.8
					c0.1,0.5,0.2,1,0.4,1.5c0.1,0.5,0.2,1,0.3,1.7c0.2,1.2,0.3,2.7,0.4,4.4c0.1,2.1,0.1,3.6,0,4.5c-0.1,1.7-0.4,3.2-0.9,4.4
					c-0.1,0.1-0.1,0.3-0.2,0.5c0.2-0.3,0.3-0.7,0.4-1c0.7-2.2,0.9-5.1,0.7-8.6c-0.1-2.6-0.5-5-0.9-7.2c0,0,0-0.1,0-0.1
					C645.2,353.1,644.6,351.2,643.7,349.5L643.7,349.5 M666,322.4c-0.8-2.4-1.6-4.7-2.6-7c0.3,3.4,1.2,10.1,2.8,20.1
					c0.5,3,0.8,5.7,0.9,8.3c1.1-4,2-7.4,2.4-10.3C668.5,329.7,667.3,326,666,322.4 M682,359.6c-1.2,0.3-2.8,0.7-4.6,1.1
					c10.1-0.5,16.8,3.4,20.1,11.8c0-5.3-2.9-9.1-8.7-11.5c1.5-0.5,2.9-0.5,4.2,0.1c4.4,2,6.4,2.8,6,2.5c-0.3-0.3-1.6-1.4-3.8-3.1
					c-2.2-1.8-5-2.4-8.4-1.8c-0.8,0.1-1.8,0.3-2.8,0.6C683.3,359.4,682.6,359.5,682,359.6z"/>
				<path class="st5" d="M875.4,372.7c-1.3-0.7-2.7-1.3-4.3-1.8c-7.3-2.5-15.1-3.2-23.6-2l-2,7.9c0.1,0,0.3-0.1,0.3-0.1
					c4.6-0.6,8.2,0.3,10.9,2.8c-2.7-2.4-6.3-3.3-10.9-2.8c-0.1,0-0.2,0-0.3,0.1c-1.3,0.2-2.6,0.5-4.1,1c-0.4,0.1-0.8,0.3-1.2,0.4
					c-0.1,0-0.3,0.1-0.4,0.1c-0.6,0.2-1.3,0.5-2.1,0.9c-0.1,0.1-0.3,0.1-0.3,0.2c-0.5,0.2-1.1,0.5-1.7,0.8c-0.3,0.1-0.6,0.2-0.9,0.4
					c-0.3,0.1-0.6,0.3-1,0.5c-0.9,0.4-1.7,0.8-2.5,1.1c-3.6,1.6-6.3,2.9-8.2,3.7c-0.8,0.3-1.5,0.7-2.3,1.1c-0.2,0.1-0.4,0.2-0.7,0.3
					c0,0-0.1,0-0.1,0c-4,2.7-7.6,4.6-10.9,5.6c-1.8,0.7-3.6,1-5.5,1c-0.7,0-1.3-0.1-1.8-0.3c-4.5,2.9-10.9,5.2-19.3,6.8
					c15.6,4.7,31.7,6.5,48.5,5.3c9.4-0.7,18.6-2.2,27.4-4.7c4-1.1,7.9-2.4,11.8-3.9c1.2-3.5,2.3-7.1,3.1-10.7
					c0.5-2.1,0.9-4.3,1.3-6.4C874.9,377.4,875.2,375,875.4,372.7 M837.9,373.5c-0.1-0.1-0.1-0.1-0.2-0.2c-0.3-0.3-0.5-0.6-0.8-0.9
					l0-0.1c-0.2-0.2-0.3-0.4-0.5-0.5c-1.4-1.3-2.9-2.3-4.7-2.9c-1.7-0.6-3.9-0.8-6.8-0.6c-0.7,0-1.3,0.1-2,0.1
					c-0.1,0.1-0.2,0.1-0.4,0.1c-0.1,0-0.2,0-0.3,0c-0.1,0-0.3,0.1-0.5,0.2c-1.9,1-3.8,1.9-5.6,2.9c-5.4,2.8-10.1,5.2-14.2,7.3
					c-10.5,0-21.2-0.4-32.1-1.1c-1-0.1-2.1-0.2-3.2-0.3c0-0.1,0-0.1,0-0.1c-0.1-0.6-0.1-1.1-0.2-1.8c-0.4-3.5-0.6-6-0.7-7.3
					c-0.1-0.7-0.1-1.1-0.1-1.2c-1.9-0.4-4.1-0.6-6.5-0.7c-6.4-0.3-11.9,0-16.3,1c-1.9,0.4-3.6,1-5.3,1.7c-0.1,2-0.2,4-0.2,5.9
					c0.3,0.2,0.5,0.5,0.8,0.7c-0.3,4.8-0.3,8.9,0.3,12.4c0.8,5.4,1.6,9.3,2.3,11.5c4.3,2.5,9.4,3.7,15.4,3.5c1-0.1,2.1-0.1,3.1-0.2
					c8.9-0.5,16.6-1.4,23.1-2.6c8.4-1.6,14.8-3.8,19.3-6.8c0.5,0.1,1.1,0.2,1.8,0.3c1.9,0,3.7-0.3,5.5-1c3.2-1,6.9-2.9,10.9-5.6
					c-0.1,0.1-0.2,0.1-0.3,0.2l0.3-0.2c0,0,0.1,0,0.1,0c0.2-0.1,0.4-0.2,0.7-0.3c0.8-0.4,1.6-0.7,2.3-1.1c1.9-0.8,4.6-2.1,8.2-3.7
					c0.8-0.3,1.7-0.7,2.5-1.1c0.4-0.2,0.7-0.3,1-0.5c0.3-0.1,0.6-0.3,0.9-0.4c0.6-0.3,1.2-0.5,1.7-0.8c0.1-0.1,0.2-0.1,0.3-0.2
					c0.8-0.3,1.5-0.6,2.1-0.9C839.5,376.5,838.9,374.9,837.9,373.5 M820.1,387c0.2-0.1,0.4-0.2,0.7-0.3
					C820.5,386.7,820.3,386.8,820.1,387L820.1,387 M850.9,743.3c-0.1-0.4-0.3-0.8-0.4-1.1c0-0.1,0-0.1,0-0.2
					c-0.8-2.6-1.2-5.2-1.3-7.8c-1-0.6-2-1.1-3.2-1.5c-2.2-0.7-5.7-1-10.3-1c-3.1,0-5.7,0.2-7.6,0.6c-1.4,0.3-2.6,0.7-3.7,1.3
					c0,0.1,0,0.2,0,0.3c0,0.4-0.1,1.5-0.1,3.4c0,1.2-0.1,2.6-0.1,4.3c0,1.2-0.1,2.4-0.2,3.5c0.4-0.9,0.7-1.5,1-2
					c1.1-2.2,2.3-4,3.5-5.5c1.6-1.7,3.2-2.8,4.9-3.4c2.7-0.8,5.5-0.3,8.5,1.5c1.1,0.7,2.2,1.7,3.3,2.8c0.3,0.3,0.9,1,1.8,2
					c0.1,0.6,0.3,1,0.4,1.3c0.3,0.4,0.7,0.9,1.4,1.6c0.3,0.3,0.8,0.9,1.5,1.6c0.6,0.6,1.1,1,1.6,1.3h0.1
					C851.7,745.3,851.3,744.3,850.9,743.3 M729.1,728c-0.4-0.2-0.8-0.4-1.1-0.5c-0.7,0.9-1.3,1.9-2.1,2.8c0,0,0,0.1-0.1,0.1
					c0,0.1-0.1,0.1-0.1,0.2c-0.5,0.6-1,1.3-1.5,2c0.4-0.1,0.7-0.2,1-0.2c0.2,0,0.4,0,0.6,0c2.1-0.1,3.9,0.3,5.4,1.1
					c1.3,0.7,2.6,2.1,4.1,4c0,0.1,0.1,0.1,0.2,0.2c2,0.7,3.8,1.3,5.3,1.6c3.2,0.7,6.1,0.8,8.6,0.3c1.9-0.4,4-1.2,6.2-2.5
					c0.6-0.3,1.3-0.7,2-1.3c0-0.7,0-1.5,0.1-2.2c0.1-0.7,0.2-1.5,0.3-2.4c-0.1,0-0.1,0-0.3,0c-6.4,0.4-11.3,0.5-14.8,0.3
					C737.6,731.1,733,729.9,729.1,728 M803.5,215.1c-1.1-2-1.8-3.9-1.9-5.5c-4.1,2-8.6,3.2-13.5,3.5c-3,0.3-5.7,0-7.9-0.9
					c-0.4,1.5-0.8,3.3-1.4,5.5c-0.2,0.8-0.4,1.6-0.6,2.4c-0.2,0.9-0.5,1.7-0.7,2.5c0.1,0.4,0.2,0.9,0.4,1.5c0.7,2.5,1.1,5,1.3,7.6
					c-2.5,4.8-3.8,11.7-3.9,20.6c-0.1,8.9,0.3,14.9,1.3,18.2c1,3.3,2.2,5.3,3.5,6.1c1.4,0.3,3,0.5,4.8,0.5c3.1,0,6.2-0.1,9.3-0.4
					c7.7-0.9,15.1-2.9,22.3-6.1c0.4-0.5,0.8-1.1,1.2-1.6c1.3-1.9,2.4-3.9,3.2-5.9l0-0.1c0.5-0.2,1.1-0.6,1.8-1
					c-0.4,1-0.9,2.2-1.5,3.5c-1.6,3.7-3.2,6.5-5.1,8.4c-6.4,3.1-13.2,5.6-20.2,7.6c-0.6,0.2-1.2,0.3-1.7,0.4c0,0.9-0.1,1.7-0.2,2.3
					c-0.1,0.3-0.1,0.5-0.3,0.8c-1.9,1.2-3.8,2.3-5.7,3.3c-0.1,0.5-0.1,0.8-0.1,1c0,0.3-0.1,0.6-0.1,0.9c-0.2,2.1-0.3,4-0.3,5.7
					c0.3,5.2,1.7,9.3,4.2,12.5c1.1,1.4,2.4,2.5,3.9,3.4c0.1,0,0.2,0.1,0.3,0.2c1.3,0.6,2.6,1.1,4,1.4c1.8,0.4,3.6,0.6,5.6,0.6
					c3.4,0,6.8-0.7,10-2c5.7-2.2,11.2-6.3,16.4-12.4c2.7-3.1,4.7-6.3,6-9.4c0.1-0.1,0.1-0.2,0.2-0.4c0.6-1.6,1-3.2,1.2-4.7
					c-4.4-1.9-6.7-3.1-7-3.5c-0.8-1-1.8-4.3-3-9.8c0,0.6,0,0.8-0.1,0.4c-0.1-0.5-0.2-1.1-0.2-1.9c0-0.4,0-0.8,0-1.1c0,0,0-0.1,0-0.1
					c0-0.4,0-0.8,0-1.1l0.1-0.4c0-0.3-0.1-0.7-0.1-1v-0.5v-6.6c0-1.2,0.1-2.1,0.2-2.6c0,0,0-0.1,0.1-0.1c2-2.1,3.3-4.3,3.8-6.4
					c0.3-1.1,0.4-2.8,0.4-5.1c0-1.4-0.2-2.4-0.7-3c-0.9-1.2-2.6-1.4-5-0.8c-3.1,1.1-5.6,3-7.4,5.6c0,0.1,0,0.1-0.1,0.2
					c0,0,0,0.2-0.1,0.5c-0.1,0.1-0.1,0.3-0.2,0.5c-0.1,0.4-0.2,0.7-0.1,0.9c-1-0.1-1.9-0.2-2.7-0.4v0c0.1-0.3,0.1-0.7,0.2-1.1
					c0.1-0.8,0.1-2,0.1-3.6c0-3.3-0.1-5.7-0.3-7.4c-0.2-1.2-0.6-2.6-1.1-4.3c-0.6-1.9-1.1-3.3-1.4-4.3c-0.6-1.8-1.1-3.1-1.5-3.9
					c-0.3-0.4-0.6-0.8-0.8-1.1l-0.4-0.2c-1.7-0.8-3-1.5-3.9-2.1C806.3,219.4,804.7,217.6,803.5,215.1z"/>
				<path class="st1" d="M882.3,320.3c-0.8-4.3-1.9-8.3-3.3-11.8c-1.4-3.5-3-6-4.8-7.4c-1.7-1.4-3.2-2.5-4.6-3.1
					c-1.3-0.6-2.5-1.2-3.5-1.6c-5.7-2.3-10.7-4.4-15-6.2c-4.9-2-8.9-3.7-11.9-5.1c-0.2,1.5-0.6,3.1-1.2,4.7c0,0.1-0.1,0.2-0.2,0.4
					c-1.3,3.1-3.3,6.3-6,9.4c-5.2,6.1-10.7,10.2-16.4,12.4c-3.3,1.3-6.6,2-10,2c-1.9,0-3.8-0.2-5.6-0.6c-1-0.2-2-0.5-3-0.9
					c-0.4-0.2-0.7-0.4-1-0.5c-0.1-0.1-0.2-0.1-0.3-0.2c-1.5-0.9-2.8-2-3.9-3.4c-2.5-3.2-3.8-7.3-4.2-12.5c0-1.7,0.1-3.6,0.3-5.7
					c0-0.3,0.1-0.6,0.1-0.9c0-0.1,0.1-0.5,0.1-1c-1.2,0.6-2.3,1.2-3.5,1.8c-7.6,3.6-15.5,6.1-24,7.4l2.5-0.3
					c-8.1,2.8-13.2,5.2-15.1,7.2c-1.9,2-3.2,3.8-3.9,5.4c-0.7,0.8-1.8,3.1-3.2,7c-1.4,3.9-1.9,9.3-1.5,15.9l-0.5,4.8
					c0.3-1.1,0.3-0.8-0.1,1c-1,7.2-2.3,15.9-3.8,26c-0.2,1.4-0.4,2.7-0.6,3.8c-0.1,0.8-0.3,1.5-0.4,2.3c1.2-0.6,2.4-1.2,3.8-1.7
					c1.6-0.7,3.4-1.2,5.3-1.7c4.5-1,9.9-1.3,16.3-1c2.4,0.1,4.6,0.3,6.5,0.7c1.3,0.2,2.5,0.6,3.5,1c0.2-10.9-0.3-21.2-1.3-30.9
					c3,11.1,5.1,22.4,6.4,33.9c-0.1,0-0.1,0.1-0.2,0.1c-1.6,0.7-3.2,1-4.7,0.9c-0.1,0-0.2,0-0.3,0c0.4,1.9,0.6,3.8,0.7,5.6
					c10.9,0.8,21.6,1.2,32.1,1.1c4.1-2.1,8.8-4.5,14.2-7.3c1.8-0.9,3.7-1.9,5.6-2.9l0-0.3c0.3,0,0.6,0,0.9,0c0.1,0,0.3,0,0.4,0
					c0.6,0,1.3-0.1,2-0.1c2.9-0.1,5.1,0.1,6.8,0.6c1.8,0.6,3.3,1.5,4.7,2.9c0.2,0.2,0.3,0.4,0.5,0.5l0,0.1c0.3,0.3,0.5,0.6,0.8,0.9
					c0,0.1,0.1,0.1,0.2,0.2c0.9,1.4,1.6,3,1.9,4.8c0.1-0.1,0.2-0.1,0.4-0.1c0.4-0.1,0.8-0.3,1.2-0.4c0.1-0.4,0.2-0.8,0.3-1.2
					c0.4-1.1,0.7-1.9,0.8-2.5c0-0.1,0.1-0.2,0.1-0.4c-0.4-0.1-0.8-0.1-1.1-0.1c-1.2-0.2-1.9-0.4-2.2-0.5c-0.6-0.1-1-0.3-1.4-0.5
					c0.1-0.6,0.1-1.2,0.2-1.8c0.7-5.3,1.7-10.6,2.9-15.8c0-4.1,0.4-8.8,1.2-14.1c1.5-10,2.3-16.7,2.5-20.2c-0.2,6.6,0.2,13.2,1.3,20
					c0,0.2,0.1,0.3,0.1,0.5c-0.2,4.4-0.4,8-0.7,10.8c-0.1,1.5-0.2,2.7-0.3,3.8c-0.5,4.1-1.3,7.9-2.4,11.2c-0.3,1-0.7,2-1.1,2.9
					c0.6-0.1,1.2-0.3,1.8-0.4c1.3-0.3,2.6-0.5,3.9-0.6c8.5-1.1,16.3-0.5,23.6,2c1.6,0.5,3,1.1,4.3,1.8c2.1,1.1,3.8,2.3,5.1,3.7
					l-0.3-30.5C883.2,336.9,883.9,328.3,882.3,320.3 M870.7,474.4c0.1-0.1,0.2-0.1,0.3-0.2c-4.9-20-8-33.7-9.3-41.1
					c-1.4-7.7-2.3-15-2.9-22c0,0,0-0.1,0-0.1c-0.3-3.6-0.4-7-0.4-10.3c-8.8,2.5-18,4-27.4,4.7c-16.8,1.2-32.9-0.5-48.5-5.3
					c-6.5,1.3-14.2,2.1-23.1,2.6c-1.6,23.5-5,46.6-10.2,69.4l5.1,2.9c2.6,0.9,5.9,1.4,9.8,1.4c3.2,0.1,10.5,0,21.9-0.4
					c5.4,2.7,12.2,4.5,20.3,5.3c1.7,0.1,3.4,0.3,5.1,0.4c7.7,0.3,15.5-0.3,23.4-1.8c2.2-0.3,3.8-0.6,4.8-0.7
					c0.6-0.1,1.1-0.2,1.3-0.2c1.2-0.1,2.4-0.1,3.5,0c1.9-0.1,3.9-0.2,5.9-0.3c3.3-0.3,5.8-0.4,7.3-0.3c0.8,0,1.6,0.1,2.3,0.3
					c0.2,0,0.3,0,0.6,0.1c0.6,0.1,1.1,0.2,1.7,0.4c0.2-0.1,0.3-0.1,0.5-0.2c0.4-0.2,0.9-0.3,1.3-0.5
					C866.8,477.3,869.1,475.9,870.7,474.4 M371.3,430.6c-0.1-0.5-0.3-1-0.4-1.5c-0.1-0.2-0.1-0.4-0.1-0.6c-2.9,2.7-6.1,5-9.7,7
					c-3.5,1.9-7.2,3.4-11,4.5l3.5,8.8c0.1,0.4,0.4,1,0.7,2c0.6,0,1.3,0,1.9-0.1c0.4,0,0.8-0.1,1.3-0.2c2.1-0.3,4.1-1,6.1-1.9
					c3.3-1.6,6.2-3.8,8.7-6.6c0.3-0.3,0.5-0.7,0.8-1c-0.4-3.1-0.7-5.4-1-6.8C372.1,433.5,371.8,432.3,371.3,430.6 M421,423.3
					l-5.9,1.3c1.1,0.1,2.3,0.2,3.4,0.3c1.2,0.1,2.3,0.1,3.5,0.1C421.6,424.9,421.3,424.4,421,423.3 M502,421.3
					c-2.8-0.1-6.6-0.1-11.4,0.2h0c-0.2,4-0.2,8.6-0.2,13.9c0,0.8,0,1.7,0,2.5c0.4,0.2,0.8,0.3,1.3,0.4c0.3,0.1,0.6,0.1,0.9,0.2
					c0.9,0.1,2.3,0.1,4.3,0c1,0,2.8,0.1,5.5,0.3c2.3,0.1,4.1,0.2,5.5,0.1h0.3c0.6,0,1.2-0.1,1.8-0.1c0.2,0,0.4-0.1,0.6-0.1h0
					c1.3-0.2,2.6-0.5,3.7-1c0.5-2.3,0.9-4.8,1.1-7.5c0.2-1.7,0.3-3.8,0.4-6.3C511.9,422.4,507.3,421.6,502,421.3 M435.3,237
					L435.3,237c0,0-0.1-0.1-0.1-0.1c-0.4,0.3-0.7,0.4-0.6,0.4C434.5,237.4,434.8,237.3,435.3,237 M438.3,239.7
					c-0.8-0.8-1.3-1.3-1.5-1.4c-0.1-0.1-0.2-0.2-0.5-0.4c-0.2-0.2-0.4-0.3-0.5-0.5c-0.1-0.1-0.2-0.1-0.3-0.3c-0.1,0-0.1-0.1-0.2-0.1
					c-2.4,1.5-3.6,2.3-3.6,2.6c0.2,1.2,0.5,2.5,0.8,3.8c0.5,1.9,1.1,3.8,1.8,5.8c0.8-2.3,0.9-4.2,0.5-5.8c0.5,1.6,0.3,3.5-0.5,5.8
					c-0.4,1-0.9,2.1-1.5,3.4c-3.9,7.9-8.6,15.3-14,22.1c-0.6,0.7-1.1,1.4-1.7,2c-0.7,0.9,0.7,23.9,4.3,69c-2,45.2-2.2,71.1-0.5,77.6
					l1.2,1.6c5,0,10.2-0.4,15.4-1.4c11.7-2.1,24.8-6.9,39.3-14.6c2.1-1.1,4.2-2.2,6.3-3.4c0.2-0.1,0.3-0.3,0.5-0.4
					c0.1-0.9,0.1-1.7,0.2-2.6c-0.1,0.9-0.1,1.7-0.2,2.6c0,0,0.1-0.1,0.2-0.1c2.1-1.7,3-5.1,2.8-10.2c-2.8-11.1-4.4-18.3-4.9-21.8
					c-0.6-4-1.4-7.9-2.2-11.8l1.6-27.8c-2.3-6.6-4.3-12.9-6.1-18.9c1.8,5.9,3.9,12.2,6.1,18.9c1.9,5.5,3.9,11.2,6.1,17.1
					c0.1,0.3,0.2,0.7,0.3,1c0.2,0.7,0.4,1.5,0.8,2.3c0.7,2,1.3,3.4,1.8,4.3c0.5,0.7,1.3,1.7,2.4,2.8c0.4,2.4,0.5,5.1,0.5,8
					c-0.1,2.8-0.4,7-1.1,12.4l-2.3,19.4c-0.2,0.7-0.4,1.3-0.6,2c-0.5,1.8-0.8,3.5-1,5c-0.4,3.3-0.2,6.2,0.7,8.8c0.3,1,1,2.6,2,4.9
					l0,0c4.8-0.3,8.6-0.3,11.4-0.2c5.3,0.2,9.9,1.1,13.8,2.5c0.3,0.1,0.5,0.1,0.8,0.3l0.3-0.5c0.2-1.4,1.1-3.1,2.6-5.1
					c0.1-0.1,0.1-0.1,0.1-0.2c1.6-2.1,2.5-3.7,2.9-4.8c0.4-1.6,0.5-3.1,0.3-4.6c0-1.8,0-3.5-0.1-5c1.4-3.8,2.2-7.4,2.3-10.6
					c0.1-2.3-0.2-5.5-0.9-9.6c-0.3-1.8-0.6-3.4-0.8-4.8c-0.2,0.4-0.4,0.7-0.6,1.1c0.2-0.4,0.4-0.7,0.6-1.1c2.5-4.8,4.1-8.8,4.8-12.1
					c0.4-1.8,0.6-3.5,0.6-5.1c0-0.2,0-0.4,0-0.6c0-0.3,0-0.6,0-0.9l-0.6-0.3c-1.3-4.6-2.2-8.2-2.8-10.9v0c-0.4-1.5-0.7-2.9-0.9-4.1
					c-1.5-4.4-3.1-9.4-4.8-14.9c-0.6-1.9-1.2-3.9-1.8-6c-1.6-5.5-2.9-10.4-3.9-14.8c-3-8.2-5.2-14.3-6.7-18.4
					c-2.6-7.4-5.1-13.4-7.5-17.9c-3.2-6.2-7.1-11.5-11.5-15.8c-3.3-3.2-6.7-5.7-10.3-7.5c-10.7-1.2-21.2-3.3-31.7-6
					c-2.2-0.6-4.5-1.2-6.7-1.9c-0.2-0.4-0.3-0.8-0.5-1.1C438.7,240.1,438.5,239.9,438.3,239.7 M428.3,267.5c-0.2,0.1-0.1,0,0.3-0.4
					c0.3-0.4,0.8-0.7,1.3-0.9c0.4-0.2,0.9-0.3,1.5-0.4c0.4,0,0.9-0.1,1.7-0.1c1.3,0,4.2-0.4,8.6-1.3c2.9-0.6,5.8-0.6,8.6-0.3l0,0.5
					c0.1-0.1,0.6-0.2,1.6-0.2c-4.3-6.9-8.2-13.9-11.5-21.1c3.3,7.2,7.2,14.2,11.5,21.1c-1,0-1.5,0-1.6,0.2l0-0.5
					c-2.8-0.4-5.7-0.3-8.6,0.3c-4.5,0.8-7.3,1.3-8.6,1.3c-0.8,0-1.3,0.1-1.7,0.1c-0.6,0.1-1.1,0.2-1.5,0.4c-0.5,0.2-0.9,0.5-1.3,0.9
					C428.3,267.5,428.2,267.6,428.3,267.5c0.2-0.1-2.5,2.6-8.1,8.2C425.8,270.1,428.5,267.4,428.3,267.5 M375.1,263.7
					c-6.1,4.6-11,8.3-14.9,11.1c-2.3,1.7-3.9,2.9-4.8,3.6c-0.6,0.4-1,0.6-1,0.6c-5,4.8-8.4,9.3-10.3,13.7c-1.8,4.3-3.2,12-4.2,23
					c-0.8,9.1-1.1,20.9-0.8,35.3c0.5,3.1,0.6,6.2,0.2,9.2c-0.5,4-1.7,7.9-3.5,11.6c-0.4,0.9-0.7,1.7-1,2.6c-0.5,1.5-0.9,3-1.1,4.4
					c0,1.6,0.3,3.1,0.8,4.6c0.2,0.5,0.5,1.1,0.9,1.8c0.1,0.6,0.3,1.2,0.6,1.9c0.1,0.2,0.8,1.6,2.3,4.2c1.8,3.3,2.9,7.4,3.4,12.1
					c0.3,2.3,0.4,5.5,0.3,9.4c0,1.1-0.1,2.3-0.1,3.5c0-1.2,0.1-2.4,0.1-3.5c-1.3,5-1,10.2,0.9,15.8c1.2,3.8,3.1,7.7,5.8,11.7
					c0.4-0.1,0.8-0.2,1.3-0.3l-0.5-1.1l0.5,1.1c3.8-1,7.5-2.5,11-4.5c3.6-2,6.8-4.3,9.7-7c-0.1-0.6-0.2-1.1-0.3-1.5
					c0,0.4,0.1,0.9,0.3,1.5c0.1-0.1,0.2-0.2,0.3-0.3c0.1-0.7,0.3-1.4,0.3-2c0.6-4.1,0.9-7.9,0.9-11.2c-0.1-5.2-1-9.9-2.7-13.9
					c-0.2-0.4-0.4-0.8-0.5-1.1c-1.1-1.5-1.7-2.8-1.9-4c-0.1-0.7-0.1-1.4,0-2c0.1-0.5,0.3-1.1,0.7-1.8c0.2-0.4,0.5-0.9,1-1.6
					c1.6-3,2.1-6.2,1.6-9.5c-0.3-1-0.5-2-0.6-2.8c0.3-1,0.5-1.9,0.8-2.8c0.1-0.3,0.2-0.6,0.3-0.9c0.7-1.4,1.2-2.9,1.6-4.5
					c0.6-2.8,0.7-5.9,0.4-9.4c-0.2-1.9-0.7-4.4-1.3-7.5c-0.3-1.5-0.6-2.8-0.8-3.8c-0.2,0.4-0.4,0.9-0.6,1.3
					c-0.3,0.7-0.8,1.7-1.4,2.9c-0.1,0.3-0.3,0.5-0.4,0.8c-0.7,1.5-1.2,2.7-1.5,3.8c0.3-1.1,0.8-2.3,1.5-3.8c0.1-0.3,0.3-0.5,0.4-0.8
					c-0.2-1.2-0.4-2.3-0.6-3.4c0.2,1.1,0.4,2.2,0.6,3.4c0.6-1.2,1.1-2.2,1.4-2.9c0.2-0.4,0.4-0.9,0.6-1.3c-0.3-1.7-0.6-2.9-0.7-3.6
					c0.1,0.7,0.4,1.9,0.7,3.6c1.2-3,2-6.1,2.3-9.1c-2.1-5.4-3.8-11-5-16.7c-2.1-9.4-4-18.9-5.5-28.3c1.5,9.4,3.3,18.9,5.5,28.3
					c1.3,5.7,3,11.3,5,16.7c0.3-3.2,0.1-6.4-0.7-9.6c0.7,3.2,1,6.4,0.7,9.6c0.1,0.2,0.1,0.3,0.2,0.5v2.6c4.8,11.6,5.6,23.5,2.4,35.7
					c-1,4-1.8,8-2.3,12.1c-0.1,0.4-0.2,0.7-0.3,1.1c-0.7,4.6,0.3,9.1,3.1,13.4c0.4,0.4,0.7,0.8,0.9,1.1c-0.1-0.4-0.1-0.9-0.1-1.3
					c0,0.4,0.1,0.8,0.1,1.3c0.2,0.2,0.3,0.4,0.4,0.5c0.4,0.8,1,1.1,1.8,1c-0.8,0.1-1.4-0.2-1.8-1c-0.1-0.1-0.2-0.3-0.4-0.5
					c0,0.2,0,0.5,0.1,0.7c3.9,4.6,9.3,8.4,16,11.4c6.7,3,13.9,4.9,21.7,5.6l5.9-1.3c-1.7-6.5-1.5-32.4,0.5-77.6
					c-3.6-45.2-5-68.2-4.3-69c-2.1-1.1-4.1-2.4-6-4.1c-1.1-0.9-2.1-1.8-3.2-2.9c-2.7-2.7-6.1-6.9-10.1-12.6c-1.1-1.5-2.1-3-2.8-4.3
					c-1-1.8-1.6-3.4-1.9-4.9c0.3,1.4,0.9,3.1,1.9,4.9c0-3.2-0.1-6.3-0.3-9.4c0-0.5-0.1-1-0.1-1.5c0-0.3,0-0.7,0-1
					c-0.3,0.3-0.6,0.6-1,1c-0.5,0.5-1,1-1.5,1.5c-0.1,0.1-0.1,0.1-0.1,0.1c-2.2,2.1-3.5,4.1-3.8,6.1c-0.1,0.4-0.2,1.8-0.3,4.3
					c0,0,0,0.1,0,0.1c0,0.2,0,0.3,0,0.5c0,0.5-0.1,1-0.1,1.6c-0.6,7-2.2,13.4-4.8,19.4c1.9-0.5,4.2-1.3,6.8-2.5c4.1-1.9,6.8-3,8-3.4
					c1.1-0.5,2.1-0.6,3-0.3c0-0.3,3,1.3,9,4.7c-6-3.4-9-5-9-4.7c-0.9-0.4-1.9-0.3-3,0.3c-1.2,0.4-3.9,1.5-8,3.4
					c-2.6,1.2-4.8,2-6.8,2.5c2.5-5.9,4.1-12.4,4.8-19.4l-0.2-1.5c0-0.1,0.1-0.3,0.2-0.5C385.5,255.9,381.2,259.1,375.1,263.7
					 M633.3,366.1c0.1,0,0.2,0,0.3,0.1c0,0-0.1,0-0.1-0.1C633.4,366.1,633.4,366.1,633.3,366.1 M643.7,349.5L643.7,349.5
					L643.7,349.5L643.7,349.5 M539.2,355.7L539.2,355.7c-0.1,0.8-0.3,1.7-0.6,2.6l-0.2,0.5c-0.1,1.1-0.2,2.1-0.3,3.1
					c-0.4,7.2,1.3,12.9,5.1,17c0.5,0.3,1.1,0.8,1.8,1.5c3.7,3.4,8,6.1,13,8c2,0.8,5,1.3,9,1.4c1,0,2,0,3.1,0
					c0.3,0.1,0.5,0.1,0.8,0.1c0-0.1,0.4-0.1,1.3-0.1c0,0,0,0,0,0c0.2,0,0.4-0.1,0.5-0.1c0.3-0.1,0.5-0.1,0.8-0.3
					c0.9-0.4,1.9-1,2.9-1.9c0.1-0.1,0.2-0.2,0.3-0.3c0.2-0.2,0.3-0.3,0.5-0.5c-0.1,0-0.3,0-0.5,0l0,0c-0.1,0-0.2,0-0.3,0
					c-0.1,0-0.1,0-0.2,0c-1.2,1.2-2.2,1.9-3,2.2c-1,0.3-2.1,0.3-3.2,0c-0.3-0.1-1.3-0.4-3-1.1c-0.1,0-0.1,0-0.2,0
					c-0.1-0.1-0.2-0.1-0.3-0.2c-1.9-1.6-3.2-3.1-3.7-4.6c-0.5-1.9-0.7-4.2-0.6-6.8c0-0.2,0-0.4,0-0.6l0,0c0,0,0-0.1,0-0.1
					c0,0,0.1-0.9,0.3-2.5c0.2-1.6,1.2-3.6,2.8-5.8c1.7-2.2,3.9-2.2,6.6,0.1l0,0.1v-0.1h0l0.2,0.1v0c0.1,0,0.1,0.1,0.1,0.1
					c0.2-0.1,0.3-0.2,0.5-0.3c0,0,0.1,0,0.1,0c-0.5-0.6-1.5-1.7-3.3-3.3l-5-1.7c-1.8-1-3.6-2.5-5.6-4.6c-0.3-0.3-0.5-0.6-0.7-0.9
					c-0.1-0.1-0.2-0.2-0.3-0.3c-0.3-0.5-0.7-0.9-1.2-1.3c-0.6-0.5-1.3-0.8-2-0.9c-1.3-0.3-2.8-0.3-4.5,0.1c-0.4,0.1-0.9,0.2-1.3,0.3
					c-1.9-3.3-3.9-6.6-5.8-9.9c-2,4.3-3.2,7.3-3.7,8.9C539.4,355.3,539.2,355.9,539.2,355.7 M598.3,266.4c-2.3,0.2-4.5,0.5-6.6,0.8
					c-10.3,1.1-18.7,7.3-25.3,18.6c-1.9,3.3-3.6,6.9-5.1,11c-6.5,13.5-11.7,25.1-15.5,35c0.3,0,0.7,0,1,0c0.7-0.1,1.4-0.1,2.1-0.2
					c8.4-0.7,16.8-1.6,25.2-2.9c0.7-0.1,1.5-0.2,2.3-0.4v0c0.1-0.2,0.2-0.6,0.3-1.3c0.2-0.7,0.8-2.3,1.8-5c1-2.6,1.6-4.1,1.8-4.3
					c0.2-0.2,0.6-1.6,1.3-4.1c0.7-2.5,1.2-5.4,1.3-8.8c0.1-2.1-0.1-5.2-0.4-9.3c0.3,4.1,0.5,7.2,0.4,9.3c-0.1,3.4-0.6,6.3-1.3,8.8
					c-0.7,2.5-1.1,3.9-1.3,4.1c-0.1,0.3-0.7,1.7-1.8,4.3c-1,2.6-1.6,4.3-1.8,5c-0.1,0.6-0.2,1.1-0.3,1.3v0c0.1,0,0.1,0,0.2,0
					c0.4,0,0.7-0.1,1.1-0.1c2.3-0.4,4.5-0.7,6.8-1.1c0.1-0.1,0.1-0.2,0.2-0.4c0,0.1,0.1,0.2,0.1,0.2c0.3,0.7,0.6,1.3,1,1.9
					c2.3,4.6,4.7,9.2,7,13.6c0,0,0,0.1,0,0.1c0.2,0.3,0.4,0.7,0.5,1c0.4,0.7,0.7,1.3,1,1.9c0.3,0.5,0.5,1,0.8,1.5c0,0,0,0.1,0,0.1
					c0.3,0.6,0.6,1.2,1,1.8c0,0,0,0,0,0c0,0,0,0,0,0c0.1,0.1,0.1,0.3,0.2,0.4c0.9,1.7,1.9,3.5,2.8,5.2l0,0c0,0,0,0.1,0,0.1
					c0.3,0.5,0.6,1.1,0.9,1.6l0,0c0.3,0.6,0.6,1.2,0.9,1.8c0.1,0.1,1.4,2.6,4.1,7.5c0.1,0.1,0.1,0.2,0.2,0.4c0.1,0.3,0.2,0.7,0.3,1
					c0,0.2,0.1,0.4,0.1,0.6l-0.3-1.6c0.1,0.3,0.2,0.5,0.3,0.8l0.4,0.8c0.1,0.2,0.2,0.3,0.3,0.5c0.2,0.3,0.3,0.5,0.4,0.8
					c0.6,1,1.1,2,1.7,3c0.2,0.4,0.5,0.8,0.7,1.1c0.1,0.2,0.2,0.3,0.3,0.4c1.7,2.9,3.3,5.8,5,8.7c0,0,0,0,0,0c2.1,3.5,4.2,7,6.3,10.5
					c-0.2,0.4-0.4,0.9-0.6,1.4c0,0,0,0.1-0.1,0.1c-0.5,1.1-1,2.4-1.6,3.8c0.4,0.1,0.4,0.1-0.1,0.3c0,0,0,0-0.1,0
					c0-0.1,0-0.1-0.1-0.2c0,0,0-0.1-0.1-0.1c-1-0.1-2-0.2-3.1-0.2c-11.8,0.1-20.7,0.2-26.6,0.2c-3.8,0-7.3-0.1-10.6-0.4
					c-0.2,0-0.5,0-0.8-0.1c-0.2,0.7-0.5,1.4-0.8,2.1c0.1,0.1,0.2,0.3,0.3,0.4l-1.2,2.4c-7.1,20.7-12.1,41.9-15,63.7
					c-2.5,18.9-3.5,37.7-2.8,56.5c3.5,1,7.1,2,10.6,2.8c15.9,4,32.2,6.6,48.8,8c1,0.1,2,0.2,2.9,0.3c0.4,0,0.9,0.1,1.3,0.1
					c4,0.3,8,0.5,11.9,0.6c2.4,0.1,4.9,0.1,7.3,0.1c7.9,0.1,15.7-0.2,23.4-0.8c3-19.7,3.9-39.5,2.5-59.5
					c6.3,11.1,11.2,22.9,14.7,35.4c0.3,1.3,0.7,2.5,1,3.8c1.5,6,2.7,11.9,3.5,18c0,0,0,0.1,0,0.1c1.7-0.2,3.4-0.5,5.1-0.8
					c2-26.2-0.3-52.4-6.8-78.5c-1.1-4.4-2.3-8.7-3.6-13c-0.9-3.2-1.9-6.3-3-9.4c-2.2-12.8-6.2-26.2-11.9-40.1
					c-0.1-0.2-0.2-0.4-0.3-0.6c-0.7-0.2-1.5-0.4-2.3-0.6c-0.2-0.1-0.3-0.1-0.5-0.1c-1.4-0.4-2.7-0.7-4-1.1c-0.2-0.1-0.4-0.1-0.7-0.2
					c-8.1-2.2-14.4-4.4-19-6.5c-0.2-0.1-0.5-0.2-0.8-0.4c0,0,0,0-0.1,0c-0.1-0.1-0.2-0.2-0.3-0.4c-1-2-1.6-3.6-1.8-4.8
					c-0.1-1.2-0.2-2.6-0.2-4.2c0-1.6,0-2.5,0-2.7c0.1,0,0.2,0,0.3,0c-0.6-0.2-1.1-0.4-1.7-0.9c0,0-0.1,0-0.1-0.1v0.1
					c-0.3,0-0.6,0-1-0.1c-2.4-0.2-4.4-0.6-5.9-1.2c-1.8-0.9-3.5-2.4-5.3-4.4c-2.3-2.6-4.3-5-6-7.3c0,0,0,0-0.1-0.1c0,0,0,0,0,0
					c-5.6,0.3-9.1,0.6-10.5,0.8c-0.1,0-0.1-0.1-0.2-0.1c-0.2-0.1-0.4-0.4-0.5-0.6c-0.3-0.5-0.2-1.2,0.3-2.1c0.1-0.1,0.2-0.3,0.3-0.5
					l0,0h0.1c0,0,0.1,0,0.1,0c0.1,0,0.1,0,0.2-0.1c0.6-0.2,1.5-0.5,2.7-0.9c0.7-0.2,1.4-0.5,2-0.6c-0.5,0-1.7,0-3.5-0.1
					c-0.5,0-0.8,0-1.1,0l-2.2-0.1c-1.1-1.6-1.5-2.6-1.4-2.8c-0.1,0-0.1,0-0.2-0.1c-0.1,0-0.3,0.1-0.6,0.1h-0.2c0,0-0.1,0-0.1,0
					l0.6-0.2c0,0-0.1,0-0.1,0c-0.5-0.1-1-0.3-1.5-0.6c-0.5-0.4-0.9-0.7-1-0.9c-0.2-0.4-0.3-1-0.2-1.7c0-0.1,0.1-0.1,0-0.2
					c0.6-0.2,1.1-0.4,1.7-0.7c0.2,0,0.3-0.1,0.4-0.1l0,0c5.3-1.8,10.8-2.7,16.5-2.9c-0.1,0-0.2,0-0.3,0c-0.9-0.4-1.7-0.7-2.2-0.9
					c0,0-0.1,0-0.1,0c0,0-0.1,0-0.2-0.1c-0.4,0-0.8,0.1-1.3,0.1c-3.7,0.3-6.5,0.5-8.5,0.6c-1.9,0.1-3,0.1-3.1,0.2
					c-0.4,0.1-0.7,0.1-1.1,0.2h0l0.3-0.5c0,0-0.1-0.1-0.2-0.1l-0.5-0.5c-0.2-0.3-0.2-0.9-0.2-1.5c0-0.2,0-0.4,0.1-0.6
					c4.2-1,8.3-1.9,12.3-2.7c1.3-0.2,2.6-0.5,3.8-0.7c1.4,0.4,2.8,0.8,4.2,1.3c0.2,0,0.3,0.1,0.4,0.1c0.8,0.3,1.5,0.5,2.3,0.8
					c0,0,0,0,0.1,0c2.1,0.8,4.1,1.7,6,2.6c2.6,4.9,5.6,9.3,9.2,13.2c0.5,0.6,1,1.1,1.5,1.6c0.1-0.1,0.2-0.1,0.1,0.1
					c0.5-0.6,0.8-1,1.1-1.2c1-0.8,1.8-1.4,2.5-1.8c0,0,0.1,0,0.1-0.1l0,0l0,0c4.3,1.9,8.5,3.6,12.5,5.2c2.2,0.9,4.5,1.6,6.8,2.4
					c1.7-5,3.1-9.4,4.2-13.4c-0.1-2.6-0.4-5.3-0.9-8.3c-1.6-10-2.6-16.7-2.8-20.1c1,2.3,1.8,4.7,2.6,7c1.2,3.7,2.4,7.4,3.6,11.1
					c2.7,8.6,5.2,17.4,7.4,26.3c0,0.1,0,0.2,0.1,0.3c0.1,0.2,0.1,0.4,0.2,0.7c-3-0.5-5.9-1.2-8.8-2c-0.1,0-0.3-0.1-0.4-0.1
					c-1.7-0.5-3.4-1-5.1-1.5c-2.3-0.7-4.5-1.5-6.8-2.4c-4-1.6-8.2-3.3-12.5-5.2c0.8,1.7,1.5,3.6,2,5.7c0,0.1,0,0.1,0,0.1
					c0.5,2.2,0.8,4.6,0.9,7.2c0.3,3.5,0.1,6.4-0.7,8.6c-0.1,0.3-0.2,0.7-0.4,1c-0.2,0.5-0.4,1-0.7,1.4c-0.8,1.4-1.9,2.7-3.3,3.8
					c-1.2,1-2.5,1.7-3.8,2.1c0.3,0.1,0.5,0.2,0.8,0.4c4.6,2.1,10.9,4.3,19,6.5c0.2,0.1,0.4,0.1,0.7,0.2c1.3,0.4,2.7,0.7,4,1.1
					c0.2,0,0.3,0.1,0.5,0.1c0.8,0.2,1.6,0.4,2.3,0.6c1.8,0.5,3.5,1,5.2,1.4c0.6,0.2,1.2,0.4,1.8,0.6c3.7,1.2,7,2.3,9.8,3.3
					c3.2,0.2,5.7,0.3,7.4,0.3c4.6,0,8.7-0.4,12.2-1.3l8.1-3c-1.5-25.9-5.1-51.5-10.7-76.9c0.2-4.8-0.7-11-2.5-18.5
					c-0.5-2-1-4-1.6-6.2c-3-10.4-10.6-16.5-22.9-18.5c-0.5-0.2-1-0.4-1.6-0.6c-5.2-2.1-12-4.7-20.5-7.8c-1.2,3.2-3.6,6.7-7,10.4
					c-6,6.5-12.7,12.3-20.3,17.4c-0.5,0.3-1,0.6-1.4,0.9c-0.1-0.1-0.2-0.3-0.3-0.4c-3.4-3.9-5.6-8.4-6.8-13.6
					c-0.7-3.1-1-6.2-0.8-9.3c0.1-0.7,0.1-1.5,0.2-2.2c-0.4,0.1-0.7,0.2-1.1,0.3C609.5,265.2,604.9,265.7,598.3,266.4 M677.4,360.7
					c1.8-0.4,3.4-0.8,4.6-1.1c0.6-0.1,1.3-0.2,1.9-0.4c1.1-0.3,2-0.5,2.8-0.6c3.4-0.6,6.2,0,8.4,1.8c2.3,1.8,3.5,2.8,3.8,3.1
					c0.3,0.3-1.7-0.5-6-2.5c-1.2-0.6-2.6-0.6-4.2-0.1c5.8,2.4,8.7,6.2,8.7,11.5C694.2,364.1,687.5,360.2,677.4,360.7 M622,394.5
					L622,394.5l0.1,0.1C622,394.6,622,394.6,622,394.5 M619.8,400.6c-0.5-0.8-0.9-1.6-1.4-2.5c0.8,0.1,1.3,0.3,1.6,0.5
					c0.3,0.2,0.5,0.4,0.4,0.6C620.2,399.6,620,400,619.8,400.6 M651.3,174.3c-1.1-0.2-2.1-0.3-3.1-0.2c4,4,6.9,8.9,8.8,14.7
					c0.2,0.8,0.5,1.6,0.7,2.4c0,0.1,0,0.2,0.1,0.3l0,0c0.1,0.5,0.2,1,0.3,1.4c0.2-0.5,0.4-0.9,0.6-1.4c1.4-3.6,1.6-7.2,0.6-10.8
					c-0.1-0.5-0.2-0.9-0.4-1.4c-1.2-1.4-2.5-2.6-3.9-3.5C653.5,175.1,652.3,174.6,651.3,174.3z"/>
				<path class="st6" d="M760.2,758.3c0.2-0.6,0.3-1.1,0.4-1.5c0.1-1,0.1-2.3-0.2-4c-5.4,0.9-12.2,2.6-20.4,4.9
					c-2.9,0.8-5.7,1.5-8.3,2.2c-0.3,0.1-0.7,0.1-1,0.2c-1.7,0.4-3.3,0.8-4.9,1.2c-3.7,0.8-7,1.5-9.8,1.8c-0.9,0.1-1.8,0.3-2.6,0.4
					c-5.7,0.2-10.2,0.2-13.5-0.1c-2.6-0.2-5-0.6-7.2-1.2c-2.7-0.7-5.1-1.7-7.3-2.9c-0.2,0.3-0.3,0.5-0.4,0.8
					c-0.2,0.7-0.3,1.9-0.3,3.6c0,0.1,0,0.3,0,0.5c2.6,1.1,5.3,1.9,8.1,2.6c2.3,0.6,4.6,1,7,1.3c2.8,0.4,5.5,0.5,8.2,0.5
					c0.8,0,1.7,0,2.5,0c1.9-0.4,3.7-0.9,5.6-1.3c3.2-0.7,6.5-1.4,9.8-2.1c0.2,0,0.4-0.1,0.6-0.2c1.8-0.4,3.5-0.7,5.3-1.1
					C741.2,761.9,750.7,760.1,760.2,758.3 M848.9,761.1c-4.6,0.7-10.4,1-17.4,0.9c-3.2-0.1-5.8-0.3-7.6-0.6c-1.3-0.2-2.5-0.6-3.6-1
					c-0.3,2.2,0,4.1,0.8,5.5c0.1,0.1,0.1,0.2,0.2,0.3c6.2,1.8,12.7,2.6,19.5,2.3c6.3-0.3,12.4-1.6,18.2-3.8c0.2-0.6,0.3-1.1,0.3-1.7
					c0.1-0.9,0-2.3-0.3-4.2C855.9,759.9,852.5,760.6,848.9,761.1 M464.1,719c-0.1,0.3-0.2,0.7-0.2,1c-0.5,2.8-0.8,5-0.9,6.7
					c0.3,0.4,0.7,0.7,1.2,1c0.8,0.6,1.8,1.1,3,1.5c0.5,0.2,1.1,0.4,1.7,0.5c1.8,0.5,3.8,1,6.2,1.3c0.4,0.1,1.2,0.2,2.4,0.3
					c4.9,1.9,8.6,3.6,11.2,5.1c1,0.5,2.4,1.4,4.3,2.5c1.7,0.9,3.1,1.6,4.3,2.1c3.3,1.2,6.8,1.7,10.7,1.4c4.7-0.4,8.6-1.6,11.8-3.6
					c0.9-0.5,1.7-1.1,2.5-1.8c0,0,0,0,0,0c0.1-0.4,0.2-0.8,0.2-1.2c0-0.3-0.2-1.2-0.7-2.8c-0.1-0.6-0.3-1-0.5-1.4
					c-0.5,0.4-1,0.8-1.5,1.1c0,0-0.1,0.1-0.1,0.1c-3.7,2.5-8.2,3.7-13.3,3.7c-4.8-0.1-9.9-1.5-15.3-4.1c-3.4-2-5.9-3.5-7.6-4.5l0,0
					c-0.3-0.2-0.7-0.4-1-0.5c-0.7-0.4-1.4-0.8-2-1l-5-1.5l-1.1-0.4c-2.4-0.6-4.4-1.3-5.9-2.1c-0.4-0.2-0.8-0.4-1.3-0.7
					C465.9,721.1,464.8,720.1,464.1,719 M434,718.2c-2.3,0.6-4.3,1.3-6,2c-5.4,2.1-10.2,5.2-14.4,9.3c-0.4,0.4-0.8,0.8-1.1,1.2
					c-5.6,3.4-11.4,5.3-17.3,5.8c-3.5,0.2-6.8-0.2-10-1c-2.4-0.6-4.7-1.5-6.7-2.7c-0.4-0.2-0.8-0.5-1.1-0.7c0,0.1-0.1,0.1-0.1,0.2
					l-0.5,2c-0.2,0.7-0.3,1.6-0.3,2.5c0.7,0.4,1.4,0.8,2.3,1.1c1.3,0.4,3,0.8,5.2,1.1c6.5,0.9,11.9,1.1,16.3,0.6
					c3.1-0.3,5.9-1,8.4-2c1.3-1.2,2.6-2.4,4-3.5c2.7-2.1,5.5-4.1,8.6-5.8c4.5-2.6,9.3-4.5,14.3-5.9c-0.1-0.8-0.3-1.5-0.6-2.2
					c-0.2-0.8-0.4-1.4-0.5-1.9C434.3,718.2,434.1,718.2,434,718.2z"/>
				<path class="st7" d="M758,740.1c-0.3-1.4-0.4-2.8-0.4-4.4c-0.8,0.5-1.5,1-2,1.3c-2.2,1.3-4.3,2.1-6.2,2.5
					c-2.6,0.5-5.4,0.4-8.6-0.3c-1.5-0.3-3.2-0.9-5.3-1.6c-0.1-0.1-0.1-0.1-0.2-0.2c-1.4-1.9-2.8-3.3-4.1-4c-1.5-0.8-3.3-1.2-5.4-1.1
					c-0.2,0-0.4,0-0.6,0c-0.3,0-0.7,0.1-1,0.2c-2,2.6-4.1,5-6.2,7.5c-0.6,0.7-1.3,1.5-2,2.2c-0.4,0.4-0.7,0.8-1.1,1.2
					c-7,4.5-14.4,8.2-22.2,11.1c-1.6,0.6-3.2,1.1-4.9,1.6c-0.2,0.2-0.5,0.5-0.7,0.8c-0.8,0.9-1.3,1.7-1.7,2.4
					c2.2,1.2,4.6,2.2,7.3,2.9c2.2,0.6,4.6,1,7.2,1.2c3.3,0.3,7.8,0.3,13.5,0.1c0.8-0.1,1.7-0.2,2.6-0.4c2.8-0.4,6-1,9.8-1.8
					c1.5-0.4,3.2-0.8,4.9-1.2c0.3-0.1,0.7-0.1,1-0.2c2.6-0.7,5.4-1.4,8.3-2.2c8.2-2.3,15-3.9,20.4-4.9c-0.1-0.5-0.2-1.1-0.3-1.6
					c-0.5-2.5-0.7-4.5-0.4-5.8C758.7,742.6,758.2,740.9,758,740.1 M852.1,746.3c-0.5-0.3-1-0.7-1.6-1.3c-0.6-0.7-1.1-1.3-1.5-1.6
					c-0.7-0.7-1.1-1.2-1.4-1.6c-0.2-0.3-0.3-0.8-0.4-1.3c-0.9-1-1.5-1.7-1.8-2c-1.1-1.2-2.2-2.1-3.3-2.8c-3-1.8-5.8-2.3-8.5-1.5
					c-1.7,0.6-3.3,1.7-4.9,3.4c-1.3,1.5-2.4,3.3-3.5,5.5c-0.2,0.5-0.6,1.2-1,2c-0.2,2-0.4,3.9-0.8,5.8c-0.1,0.3-0.1,0.6-0.1,1
					c-0.6,2.6-1.5,5.1-2.7,7.3c0,0.1,0,0.2-0.1,0.3c-0.1,0.3-0.1,0.7-0.2,1c1.1,0.4,2.3,0.8,3.6,1c1.9,0.3,4.4,0.5,7.6,0.6
					c7,0.1,12.8-0.2,17.4-0.9c3.6-0.5,6.9-1.3,9.9-2.3c0-0.2-0.1-0.5-0.2-0.7c-0.4-1.3-0.8-2.5-1.2-3.6l-0.1,0
					C855.3,752.1,853.5,749.3,852.1,746.3L852.1,746.3z"/>
				<path class="st8" d="M785.9,476c-11.4,0.4-18.7,0.5-21.9,0.4c-3.9,0-7.1-0.5-9.8-1.4c-1,4.8-2,11-2.9,18.4
					c-0.2,1.4-0.3,2.7-0.6,4c-2.2,5.1-3.7,10.5-4.6,16.2c-0.3,1.9-0.5,3.8-0.8,5.6v0c-4.1,29.4-7.1,59.6-9,90.4c0.6,2,1,4.1,1.3,6.3
					c0,0.1,0.1,0.3,0.1,0.4c0,0.1,0,0.3,0,0.5c0.4,3.7,0.5,8.5,0.3,14.6c-0.6,14.9-1.7,29.6-3.3,44.2c-1.1,9.7-2.5,19.3-4,28.9
					c0,0.2-0.1,0.3-0.1,0.5c-0.3,0.7-1,2.2-2.1,4.5l-6.8,16.2c0.1,0.1,0.2,0.3,0.3,0.4c0.1,0.2,0.2,0.4,0.4,0.6
					c1.1-0.5,2.3-0.6,3.4-0.2h0.1c0.4,0.1,1.1,0.4,2.1,0.8c0.3,0.2,0.7,0.4,1.1,0.5c3.9,1.9,8.5,3,13.9,3.4
					c3.5,0.2,8.4,0.1,14.8-0.3c0.1,0,0.2,0,0.3,0c0.7-0.1,1.3-0.3,1.8-0.6c0.3-0.2,0.6-0.4,0.8-0.6c0.1-0.3,0.2-0.6,0.3-0.9
					c0.1-0.7,0.2-1.7,0.3-2.8c0-0.2,0-0.5,0-0.7c0-0.9,0.2-2.7,0.5-5.2c0.2-0.8,0.4-1.5,0.7-2.3c4-13.9,6.7-28,8.2-42.3
					c1.1-11,1.5-22.1,1.1-33.3h-0.6v-0.1c1.1-19.4,4.8-38.4,10.9-57.1c6.4-19.3,15.1-37.2,26.1-53.7c7.1,22.3,10.9,50.6,11.3,85
					l2.5,7.7c0.2,0.4,0.3,0.7,0.6,1.1c1.1,5.7,1.6,12.5,1.4,20.4c-0.1,4.6-0.4,11.4-1,20.5c-0.1,3.4-0.1,6.6,0,9.6
					c0.2,4,0.6,7.7,1.2,11c0.3,1.4,0.6,2.7,0.9,4c-1,9-1.7,15.4-2.2,19.3c-0.7,5.9-1.6,11.3-2.5,16.2c-0.4,1.9-0.7,3.7-1.1,5.5
					c0,0,0,0.1,0,0.1c0.4,0.9,0.8,1.6,1.1,2l1.2,1.3c0.1,0.2,0.3,0.4,0.3,0.5c0.7-0.8,1.6-1.4,2.7-2c1-0.6,2.3-1,3.7-1.3
					c1.9-0.4,4.5-0.6,7.6-0.6c4.7,0,8.1,0.3,10.3,1c1.1,0.4,2.2,0.9,3.2,1.5c0.1,2.6,0.5,5.2,1.3,7.8c0,0.1,0,0.1,0,0.2
					c0.5,0,1-0.1,1.5-0.5c0.2-0.1,0.8-0.6,1.7-1.5c0.1-0.1,0.2-0.3,0.3-0.4v0c0.3-0.5,0.8-1.1,1.4-1.9c0.7-0.9,1.2-1.7,1.5-2.4
					c0.6-1,0.9-2.1,1.2-3.1c0-0.2,0.1-0.3,0.1-0.4c-0.1-0.7-0.2-1.3-0.3-1.9c-0.2-1.3-0.4-2.5-0.6-3.8c-0.8-6.1-1.1-12.1-1-18.1
					c0.2-7.9,1.1-15.7,2.8-23.5l2.2-8.9c1.4-13.9,1.7-27.5,0.9-40.8c-0.9-4.9-2.5-11.3-4.6-19.2c-1.9-7.1-3-13.2-3.3-18.5v0h0.6
					c0.9-18.7,2.2-34.1,4-46.3c1.7-12.2,3.2-23.2,4.4-33c1.2-9.6,1.3-22.2,0.5-37.8c0-0.1,0-0.2,0-0.3c-0.6-0.3-1.2-0.5-1.9-0.7
					c-0.7,0.2-1.3,0.4-1.8,0.5c-0.2-0.4-0.3-0.7-0.5-1c-0.8-0.1-1.5-0.2-2.3-0.3c-1.5-0.1-3.9,0-7.3,0.3c-2,0.1-4,0.2-5.9,0.3
					c-1.6,0.1-3.2,0.1-4.7,0.1c-1.1,0.1-2.7,0.4-4.8,0.7c-7.9,1.5-15.7,2-23.4,1.8c-1.7-0.1-3.4-0.2-5.1-0.4
					C798.1,480.5,791.4,478.7,785.9,476z"/>
				<path class="st9" d="M794.1,276.7c0,0.1,0,0.1,0,0.3c0,0.1,0,0.9,0,2.4c0,0.6,0,1.4,0.1,2.5c0,0.1,0,0.1,0,0.1
					c0.5-0.1,1.1-0.2,1.7-0.4c7-2,13.8-4.6,20.2-7.6c1.8-1.9,3.5-4.7,5.1-8.4c0.6-1.3,1.1-2.5,1.5-3.5c-0.7,0.4-1.3,0.8-1.8,1l0,0.1
					c-0.8,2.1-1.9,4-3.2,5.9c-0.4,0.5-0.8,1.1-1.2,1.6C809.2,273.8,801.8,275.9,794.1,276.7 M399.7,230.8c-0.6-1.1-1.1-2-1.4-2.7
					c0.4,3.7,0.8,7,1,10.1c0.1,0.1,0.1,0.1,0.2,0.2c1.6,1.5,3.5,2.7,5.9,3.5c1.9,0.7,3.8,1.2,5.7,1.5c3,0.5,6.1,0.5,9.2,0
					c1-0.1,2-0.3,3-0.6c3-0.7,5.8-1.8,8.4-3.2c0-0.3,1.2-1.1,3.6-2.6c0,0,0,0,0-0.1c-0.5,0.3-0.8,0.4-0.8,0.4c-2,0.9-3,1.4-3.1,1.4
					c-3.4,1.4-6.9,2-10.5,2c-7.1-0.1-13.7-2.5-20-7.1C400.5,232.6,400.1,231.7,399.7,230.8z"/>
				<path class="st10" d="M818.4,190.2c-1.6-0.7-2.9-1.2-4.1-1.7c-3.1-1.4-5.5-2.3-7.1-2.8c-2.7-0.8-5.2-1.2-7.4-1
					c-1.2,0-2.5,0.3-4,0.6c-0.6,0.2-1.9,0.6-3.8,1.2c-1.2,0.4-2.2,0.9-2.8,1.5c-0.5-0.1-0.9-0.2-1.4-0.3c-0.8-0.1-2,0-3.4,0.2
					c-4.1,0.4-7.2,1.5-9.5,3.1c-1.1,0.8-2.2,1.8-3.3,3.2c-0.4,0.5-1,1.4-1.8,2.5c-0.2,2.9,0.3,5.4,1.3,7.6c0.5,1.2,1.3,2.3,2.2,3.3
					c1,1,2.1,1.7,3.4,2c0,0,0.1,0.1,0.1,0.1c0,0.1,0,0.1,0,0.3c-0.3,1.5-0.3,3.1-0.2,4.8c0.2,1.9,0.7,3.7,1.5,5.3
					c0.2-0.8,0.4-1.5,0.6-2.4c0.6-2.2,1-4.1,1.4-5.5c2.3,0.9,4.9,1.2,7.9,0.9c4.9-0.4,9.4-1.5,13.5-3.5c0.1,1.7,0.8,3.5,1.9,5.5
					c1.2,2.4,2.8,4.3,4.6,5.5c0.9,0.6,2.2,1.4,3.9,2.1l0.4,0.2c0.3,0.3,0.6,0.7,0.8,1.1c0.4,0.8,0.9,2.1,1.5,3.9
					c0.3,1,0.8,2.4,1.4,4.3c0.5,1.7,0.9,3.1,1.1,4.3c0.2,1.7,0.3,4.1,0.3,7.4c0,1.6,0,2.8-0.1,3.6c0,0.4-0.1,0.7-0.2,1.1v0
					c0.8,0.2,1.7,0.3,2.7,0.4c-0.1-0.2-0.1-0.5,0.1-0.9c0.1-0.2,0.1-0.4,0.2-0.5c0-0.3,0-0.5,0.2-0.6c1.8-2.6,4.3-4.4,7.4-5.6
					c2.4-0.7,4.1-0.4,5,0.8c0.4,0.6,0.7,1.6,0.7,3c0,2.3-0.1,4-0.4,5.1c-0.5,2.1-1.8,4.3-3.8,6.4c0,0-0.1,0.1-0.1,0.1
					c-0.1,0.6-0.2,1.5-0.2,2.6v6.6c0,0.3,0.1,0.8,0.1,1.5c0,0.2,0,0.3,0,0.5c0,0.9,0.1,1.6,0.3,2.2c0.2-0.1,0.4-0.1,0.5-0.1
					c3.7-0.9,7.1-2.9,10-5.8c0.8-0.6,1.4-1.4,2-2.4c0.5-0.8,0.9-1.9,1.2-3.3c0.2-1.5,0.4-2.6,0.5-3.4c0.1-0.9,0.3-1.7,0.6-2.4v0
					c0.5-1.7,1.5-2.8,2.8-3.4c0.8-1.1,1.7-2.5,2.8-4.1c2.1-3.1,3.7-5.8,4.8-8.1c1.5-2.9,2.4-5.9,2.8-8.9c0.4-3.3,0.1-6.3-1-9
					c-0.8-2-2.2-4.1-4.2-6.5c-1.3-1.6-2.5-2.8-3.8-3.6c-0.7-4.6-2.2-8.4-4.6-11.3c-3.2-3.8-7.9-6.3-14.2-7.5
					c-2.4-0.4-5.1-0.5-8.1-0.5C820.8,190.1,819.7,190.2,818.4,190.2z"/>
				<path class="st11" d="M464.6,703.3c-0.2,0.4-0.4,0.9-0.6,1.5c0.7,0.6,1.5,1.3,2.5,2c0.2,0.1,0.4,0.3,0.6,0.4
					c1.6,1.1,3.1,1.9,4.5,2.4c1.2,0.5,2.4,0.8,3.5,0.9c0.7-1.9,1.7-3.5,3-5c-3.5,0.7-6.9,0.5-10.3-0.7c-0.3-0.1-0.5-0.2-0.8-0.3
					C466.3,704.2,465.4,703.8,464.6,703.3 M407.2,701.1c1.7,0.1,3.3,0.9,4.9,2.2c1.2,0.9,2.9,2.5,5,4.8c0.5,0.5,0.9,0.9,1.3,1.3
					c0.8,0.3,1.8,0.5,2.8,0.5c1.9,0.2,3.8,0,5.7-0.6c1.3-0.5,2.5-1.3,3.8-2.3c0.4-0.3,0.8-0.7,1.3-1.1c-0.1-0.5-0.3-0.9-0.4-1.4
					c-0.2-0.8-0.4-1.5-0.6-2.2c-2.7,0.4-5.4,0.3-8.1-0.4c-0.8-0.2-2.8-0.8-5.8-1.8c-2.4-0.8-4.4-1.2-6-1.3c-1.4-0.1-3.4,0.1-6,0.5
					c-0.1,0.4-0.2,0.8-0.4,1.2s-0.2,0.8-0.3,1.2c0,0,0.1,0,0.1-0.1C405.3,701.2,406.2,701,407.2,701.1 M373.7,443.7
					c-0.3-0.2-0.6-0.5-0.9-1c-0.2-0.3-0.3-0.6-0.4-0.8c-2.5,2.8-5.4,5-8.7,6.6c-2,1-4,1.6-6.1,1.9c3.9,13.2,6.6,22.9,8.3,29
					c0.5,0.6,1.1,1.3,1.8,2.2c0.2,0.1,0.5,0.2,0.8,0.3c0.6,0.3,1.3,0.6,2,0.9c3.1,1.3,5.3,2.4,6.5,3.1c0.4,0.2,0.8,0.4,1.1,0.6
					c-0.6-4.9-1.1-10.2-1.4-15.7c0-0.4,0-0.8,0-1.3c-0.1-2.5-0.2-5.4-0.3-8.7v1c-0.2-9-0.3-14.4-0.5-16.2c0-0.2-0.1-0.4-0.1-0.6
					c-0.1-0.1-0.3-0.1-0.4-0.1l-1-0.8C374.3,444.3,374,444.1,373.7,443.7 M508.2,459.8c0.7-6.8,1.3-13.8,1.8-21.1
					c-0.6,0.1-1.2,0.1-1.8,0.1h-0.3c-1.4,0.1-3.3,0-5.5-0.1c-2.7-0.2-4.5-0.3-5.5-0.3c-1.9,0.1-3.3,0.1-4.3,0
					c-0.3,0-0.6-0.1-0.9-0.2l-2.9,6.6c0.2,4.3,0.2,9.5,0,15.4c0.6,4.7,1.2,9.6,1.7,14.8c0.4,0,0.8,0,1.2,0c2.2-0.2,4-0.4,5.6-0.7
					C501.3,469.7,505,464.9,508.2,459.8 M382.4,208.7c-0.5,1.1-0.8,2.1-0.8,3c0.1,0.4,0.1,0.7,0.3,1c0.5,2.3,1.2,4.5,2.1,6.7
					c0.4,1,0.9,2.1,1.4,3.1c1,1.8,1.8,3.1,2.6,3.9c1.3,1.2,2.8,1.6,4.3,1.4c0.3-0.1,0.6-0.2,0.9-0.3c0.1,0.5,0.1,0.9,0.2,1.4
					c0.5,3.2,1,6.5,1.3,9.8c0.1,0.7,0.1,1.5,0.2,2.2c0,0.3,0,0.7,0,1c0,0.5,0.1,1,0.1,1.5c0.2,3.1,0.3,6.2,0.3,9.4
					c0.7,1.3,1.6,2.7,2.8,4.3c4.1,5.7,7.4,9.9,10.1,12.6c1,1.1,2.1,2,3.2,2.9c2,1.7,4,3,6,4.1c0.6-0.7,1.1-1.4,1.7-2
					c5.4-6.8,10.1-14.2,14-22.1c0.6-1.2,1.1-2.3,1.5-3.4c-0.7-2-1.3-3.9-1.8-5.8c-0.3-1.3-0.6-2.5-0.8-3.8c-2.6,1.4-5.4,2.5-8.4,3.2
					c-1,0.2-2,0.4-3,0.6c-3.1,0.5-6.2,0.5-9.2,0c-1.9-0.3-3.8-0.8-5.7-1.5c-2.4-0.8-4.4-2-5.9-3.5c-0.1-0.1-0.1-0.1-0.2-0.2
					c-0.3-3.1-0.6-6.5-1-10.1c0.3,0.7,0.8,1.6,1.4,2.7c0.4,0.9,0.8,1.8,1.3,2.8c6.3,4.6,12.9,7,20,7.1c3.7,0.1,7.2-0.6,10.5-2
					c0,0,1-0.5,3.1-1.4c0,0,0.2-0.2,0.6-0.4c1.3-0.8,2.5-1.8,3.7-2.9c0.4-0.3,0.8-0.7,1.1-1.1c0-0.1,0.1-0.2,0.1-0.3
					c0.7-2.9,1.1-6,1.3-9.2c0.3-6.1-0.4-12.2-2.1-18.5c-1-4-2.5-7.5-4.5-10.5c-0.1-1.9-0.2-3.6-0.4-5.1c-0.1,0.1-0.1,0.3-0.2,0.4
					c-0.1-0.8-0.2-1.5-0.3-2.2l-0.1-0.6c-0.1-0.5-0.1-0.9-0.2-1.4c-0.1-1-0.2-1.6-0.3-1.8c0,0-0.1-0.1-0.1-0.1
					c-0.1-0.4-0.2-0.8-0.3-1.1c-0.4-1.4-0.6-2.3-0.8-2.8c-0.6-2-1.4-3.9-2.3-5.5c-3.3,3-6.3,5.1-9.2,6.4c-2.5,1.1-4.7,1.7-6.5,1.7
					c-2.5,0-5-0.9-7.5-2.9c1,1.4,2.3,2.7,3.8,3.8c0.5,0.3,0.8,0.6,0.9,0.9c-1,0.6-2.2,0.9-3.7,1c-1.3,0-2.6-0.4-3.8-1.3
					c-0.2-0.1-1.1-0.8-2.5-2.1c0.1,0.7,0.1,1.4,0.1,2.1c0.2,3.7,0,6.6-0.6,8.5c-0.6,2-2,4.1-4.1,6.5c-0.6,0.7-1.2,1.4-1.8,2
					c0,2.6,0.3,4.6,0.7,5.9c0.7,1.5,1.3,2.9,1.8,4.3l0.5,3c0.1,0.4,0.2,0.8,0.3,1.2c-0.7,0-1.6-0.1-2.7-0.3c-1.1-0.2-2-0.4-2.5-0.4
					c-0.2-0.2-0.4-0.4-0.5-0.6l-3.9-4.1c-1.3-1.2-2.4-1.9-3.1-2.3c-0.9-0.4-1.7-0.4-2.2-0.1C383.2,207.7,382.8,208.1,382.4,208.7z"
					/>
				<path class="st12" d="M464,704.8c-0.2,0.6-0.4,1.2-0.5,1.9c-0.1,0.7-0.2,1.5-0.3,2.4c-0.2,2.8-0.1,5.9,0.3,9.3
					c0,0.1,0.1,0.2,0.2,0.3c0.1,0.1,0.2,0.3,0.3,0.4c0.7,1.1,1.8,2.1,3.1,2.8c0.4,0.2,0.8,0.5,1.3,0.7c1.5,0.8,3.5,1.5,5.9,2.1
					l1.1,0.4c1.5,0.1,3.2,0.6,5,1.5l0.4,0.1c0.8,0.1,1.4,0.5,1.6,1c0.3,0.2,0.7,0.4,1,0.5l0,0c1.7,1,4.2,2.5,7.6,4.5
					c5.3,2.6,10.4,4,15.3,4.1c5.1,0,9.5-1.2,13.3-3.7c0-0.1,0.1-0.2,0.1-0.3c0.2-0.4,0.4-0.7,0.4-0.8c0.2-0.6,0.3-1.1,0.3-1.8
					c0-0.4-0.1-0.7-0.2-1.1c-0.1-0.4-0.3-0.8-0.5-1.2c-0.1-0.3-0.3-0.5-0.5-0.8c-5.5-2.9-11.2-6.3-16.9-10.3c-1-0.7-1.8-1.2-2.3-1.6
					c-0.2-0.2-0.3-0.3-0.5-0.5c-0.4-0.6-0.7-1.2-1-1.8c-1.3-2.1-2.4-4.3-3.5-6.5c-0.5-1.1-1-2.2-1.5-3.3c-0.5-0.4-1.1-0.7-1.8-0.9
					c-2.4-1-4.8-1.3-7.2-0.7c-2.3,0.6-4.4,1.9-6.2,3.8c-0.1,0.1-0.2,0.2-0.3,0.3c-1.3,1.4-2.3,3.1-3,5c-1.1-0.1-2.3-0.4-3.5-0.9
					c-1.4-0.6-2.9-1.4-4.5-2.4c-0.2-0.1-0.4-0.3-0.6-0.4C465.6,706.1,464.7,705.4,464,704.8 M380.7,724.2c-0.6,0.6-1.2,1.2-1.7,1.8
					c-0.2,0.5-0.3,1-0.4,1.5c-0.2,1.2-0.4,2.2-0.4,3c0,0.3,0,0.6,0,0.8l0.4,1.4c0,0,0,0.1,0,0.1c2,1.1,4.3,2,6.7,2.7
					c3.2,0.8,6.5,1.2,10,1c5.9-0.4,11.6-2.4,17.3-5.8c0.3-0.4,0.7-0.8,1.1-1.2c4.2-4.1,9-7.2,14.4-9.3c1.6-0.7,3.6-1.4,6-2
					c0-0.4,0-0.9,0-1.3c0-0.5,0-1.1,0-1.6c-0.1-1.9-0.5-3.8-1.1-5.8c-0.2-0.8-0.5-2-1-3.7c-0.5,0.4-0.9,0.8-1.3,1.1
					c-1.3,1-2.6,1.8-3.8,2.3c-1.9,0.6-3.8,0.8-5.7,0.6c-1,0-1.9-0.2-2.8-0.5c-0.4-0.4-0.9-0.9-1.3-1.3c-2.1-2.3-3.8-3.9-5-4.8
					c-1.6-1.3-3.2-2-4.9-2.2c-1-0.1-1.9,0.1-2.7,0.5c0,0-0.1,0.1-0.1,0.1c-1,2.6-2.4,5.1-4.3,7.6c-0.4,0.5-0.8,1-1.3,1.6
					c-0.8,0.6-1.7,1.3-2.6,1.9c-3.6,2.4-6.2,4.1-8,5.3C385.1,720.3,382.6,722.3,380.7,724.2z"/>
				<path class="st13" d="M483.7,405.2c-0.2,0.1-0.3,0.3-0.5,0.4c-2.1,1.2-4.3,2.4-6.3,3.4c-14.5,7.6-27.6,12.5-39.3,14.6
					c-5.2,0.9-10.4,1.4-15.4,1.4c-0.1,0-0.2,0-0.3,0c-1.2,0-2.3,0-3.5-0.1c-1.1,0-2.3-0.1-3.4-0.3c-7.8-0.7-15-2.6-21.7-5.6
					c-6.8-3-12.1-6.8-16-11.4c0.2,3,0.3,6.1,0.3,9.2c0,0.5,0,1.1,0,1.6c-0.1-0.1-0.3-0.3-0.4-0.4c-0.3,1-0.5,2-0.8,2.9
					c-0.1,0.4-0.1,0.7-0.2,1.1c-1.1,5.4-1.5,11-1.1,16.6c0,0.3,0,0.7,0,1.1c0.1,1.9,0.4,3.8,0.7,5.6c0,0.2,0.1,0.4,0.1,0.6
					c0.1,1.8,0.3,7.2,0.5,16.2v-1c0.1,3.3,0.1,6.2,0.3,8.7c0,0.4,0,0.8,0,1.3c0.3,5.5,0.7,10.8,1.4,15.7c0.1,0.6,0.2,1.2,0.3,1.8
					c0.6,4.6,1.4,8.9,2.4,13c1.7,7,3.3,13.8,4.9,20.4c1.8,14.4,3.5,28.5,5,42.5c0.2,2.4,0.5,4.8,0.8,7.2c0,0.3,0.1,0.5,0.1,0.8
					c0.4,1.9,1,4,1.8,6.1c0.3,0.8,0.8,2.1,1.4,3.7c0.1,0.3,0.2,0.5,0.3,0.8c-0.4,0.8-0.8,1.6-1.3,2.4c-0.1,0.1-0.1,0.2-0.1,0.3
					c-0.8,3.6-1,7.6-0.9,12c0.2,3.5,0.8,8.7,2,15.6c0,0,0,0.1,0,0.1c0.1,0.9,0.3,1.8,0.5,2.7c1,13,1.8,25.8,2.4,38.3v0
					c0.1,2.9,0.3,5.8,0.4,8.8c2.8,11.1,3.3,22.4,1.5,33.8c-0.2,1.4-0.4,2.5-0.5,3.3c1.2-0.1,2.5-0.3,4-0.6c0.8-0.2,1.5-0.3,2.3-0.4
					c2.6-0.5,4.6-0.7,6-0.5c1.6,0.1,3.5,0.6,6,1.3c3,1,5,1.5,5.8,1.8c2.7,0.6,5.4,0.8,8.1,0.4c0.8-0.1,1.7-0.3,2.5-0.5
					c0.1,0,0.2-0.1,0.3-0.1c1.2-0.3,2.4-0.7,3.5-1.2l-1.9-37.7c-0.3-7.6-0.8-13.9-1.3-18.8c0.2-3,0.4-6.2,0.6-9.8
					c0.8-11,1-19.8,0.7-26.3c-0.5-8.7-1.9-16.4-4.4-23.3c0.1-0.5,0.2-1.1,0.3-1.7c1.1-4,1.9-7,2.3-9c1.3-5.7,1.6-13.3,0.8-22.8
					c-0.5-6.1-0.8-11.1-1-15c0.2-3.9,0.6-7.5,1.3-10.9c0-0.1,0.1-0.3,0.1-0.4c0.5-2.1,0.8-3.8,1.1-4.9c0.5-2.1,0.9-3.9,1-5.3
					c0.5-3.3,0.6-6.9,0.4-10.8c0-0.4-0.1-0.8-0.1-1.2c0.1,0.4,0.2,0.7,0.3,1.1v0c1.7,6.2,3.8,13.9,6.3,23.3c1,3.7,2.1,7.7,3.2,11.9
					c0.3,12.2,0.8,19.9,1.6,23.1c1.3,5.2,3,10.1,5.2,14.7c2,11.3,3.1,22.7,3.3,34.1v1.2c0,1.4,0,2.6,0,3.7
					c0.2,5.7,0.9,10.8,2.1,15.3c1.5,5.9,2.6,11.8,3.2,17.7c0.4,15.2-0.8,30.5-3.4,46c-0.1,0.5-0.1,1-0.3,1.4
					c0.1,0.9,0.3,1.8,0.6,2.8c0.8,1,1.6,1.9,2.6,2.7c0.9,0.7,1.8,1.4,2.8,2c0.8,0.5,1.6,0.9,2.5,1.3c0.2,0.1,0.5,0.2,0.8,0.3
					c3.3,1.2,6.8,1.4,10.3,0.7c0.1-0.1,0.2-0.2,0.3-0.3c1.8-1.9,3.8-3.1,6.2-3.8c2.4-0.6,4.8-0.4,7.2,0.7c0.6,0.3,1.2,0.6,1.8,0.9
					c1,0.7,1.8,1.5,2.4,2.4c0.3-0.3,0.6-0.6,0.9-0.9c0.6-0.6,0.9-1,1.1-1.3l0.4-1.2l0.6-0.8c0-0.1,0-0.1,0-0.2
					c-0.1-0.3-0.1-0.5-0.2-0.8c-0.3-1.1-0.5-2.1-0.6-3.3c0-0.3-0.1-0.7-0.1-1c0-0.1,0-0.1,0-0.2c-0.2-1.3-0.1-2.4,0.4-3.5
					c0.4-2.7,1-6.1,1.9-10.2c0.5-2.3,1-4.5,1.3-6.3c-1.7-16-2.4-32.2-2.1-48.8v-0.1h0.9c1.8-15,1.4-29.9-1.2-44.8v0l0.8-0.2
					c-2.5-12.7-4.9-25.3-7-37.9c0-18.2-0.2-32.1-0.5-41.5c-0.2-4.8-0.4-9.6-0.8-14.2c-0.3-4.5-0.6-8.8-1-13v0c0-0.1,0-0.3,0-0.4
					c-0.5-5.1-1.1-10-1.7-14.8c0.1-6,0.1-11.1,0-15.4c0-1.3-0.1-2.4-0.2-3.6c-0.1-0.8-0.1-1.6-0.2-2.3c0,0,0-0.1,0-0.1
					c0-0.1,0-0.1,0-0.1c-0.7-8.8-2.3-16.7-4.6-23.7c-0.1-0.2-0.1-0.3-0.2-0.5c-0.1-0.3-0.3-0.7-0.3-1c0.1-0.1,0.2-0.1,0.3-0.1
					c0-0.1,0-0.1,0-0.1C483.5,410.7,483.6,408,483.7,405.2z"/>
				<path class="st14" d="M369.4,176.2c-2.2,1-4.1,2.7-5.6,4.9c-1.7,2.5-2.6,5.2-2.9,8.3c-0.3,4.9,1.3,10.3,4.9,16.4
					c3.5,6.1,7.3,11.5,11.3,16.5c1.9,7.4,3.9,12.1,5.9,14c0.6,0.5,1.3,1.3,2.2,2.4c0.9,1,2.1,1.5,3.8,1.5c1.5-0.1,3.3-0.6,5.5-1.5
					c-0.3-3.3-0.7-6.6-1.3-9.8c-0.1-0.5-0.1-0.9-0.2-1.4c-0.3,0.1-0.5,0.2-0.9,0.3c-1.5,0.3-2.9-0.2-4.3-1.4
					c-0.8-0.8-1.6-2.1-2.6-3.9c-0.5-1-0.9-2.1-1.4-3.1c-0.9-2.2-1.6-4.4-2.1-6.7c-0.1-0.3-0.2-0.7-0.3-1c0-0.9,0.3-1.9,0.8-3
					c0.4-0.6,0.7-1,1-1.1c0.5-0.3,1.2-0.2,2.2,0.1c0.7,0.3,1.8,1.1,3.1,2.3l3.9,4.1c0.2,0.2,0.4,0.5,0.5,0.6c0.5,0,1.4,0.2,2.5,0.4
					c1.1,0.2,2,0.3,2.7,0.3c-0.1-0.4-0.2-0.8-0.3-1.2l-0.5-3c-0.4-1.3-1-2.8-1.8-4.3c-0.4-1.3-0.7-3.3-0.7-5.9
					c0.5-0.6,1.1-1.2,1.8-2c2.1-2.4,3.5-4.6,4.1-6.5c0.6-1.9,0.8-4.8,0.6-8.5c0-0.7-0.1-1.4-0.1-2.1c1.5,1.3,2.3,2,2.5,2.1
					c1.2,0.8,2.5,1.3,3.8,1.3c1.5-0.1,2.7-0.4,3.7-1c-0.1-0.3-0.4-0.6-0.9-0.9c-1.5-1.1-2.7-2.3-3.8-3.8c2.5,1.9,5,2.9,7.5,2.9
					c1.8,0,4-0.6,6.5-1.7c2.9-1.3,5.9-3.4,9.2-6.4c0.9,1.6,1.6,3.5,2.3,5.5c0.1,0.4,0.4,1.4,0.8,2.8c0.2,0.1,0.4,0.8,0.5,1.9
					c0.1,0.3,0.1,0.6,0.2,0.9c0,0.1,0,0.2,0,0.3c0.2,1,0.4,2.2,0.6,3.6c0.4-1,0.8-2,1.1-2.9c1.5-3.7,2.2-6.2,2.1-7.4
					c-0.1-1.6-0.5-2.8-1.1-3.8c-0.7-0.9-1-1.5-1-1.8c1-2.1,0.6-4.4-1.3-6.9c-2-2.7-4.7-4.8-8-6.2c-2.9-1.3-5.8-1.9-8.8-1.8
					c-1-0.8-1.7-1.5-2.3-1.9c-2.3-1.7-4.5-2.9-6.7-3.4c-3.4-1-7.1-1-11,0.1c-3,0.8-5.8,2.2-8.6,4.2c-4.9,0-9,1.8-12.3,5.2
					c-1.9,1.8-3.5,3.9-4.9,6.1C370.4,171.1,369.6,173.6,369.4,176.2 M658.8,179.5c0.1,0.4,0.3,0.9,0.4,1.4c1,3.6,0.8,7.2-0.6,10.8
					c-0.2,0.4-0.4,0.9-0.6,1.4c-0.1-0.5-0.2-1-0.3-1.4c1.1,5.4,1.8,9.9,2,13.6c0.3,3.6,0.2,7.2-0.3,10.7c-0.5,3.5-1.9,6.9-4.1,10.4
					c-2.2,3.3-3.9,5.5-5.1,6.4c0.3,0.2,0.5,0.4,0.5,0.5c0.1,0.7,0.1,1.3,0.2,1.9c0.6,3.4,1.8,6.2,3.7,8.3c1.7,2.1,4.2,3.7,7.5,4.7
					c2.5,0.7,5.1,1.1,7.8,1c1.7,0,3.3-0.2,4.9-0.6c-2-0.4-3.8-1.1-5.3-1.9c-1.1-0.7-2.2-1.6-3.3-2.7c3.1,0.9,6.4,1.3,9.9,1.3
					c2.2,0,4.4-0.3,6.5-0.7c-0.5-0.2-1.1-0.4-1.6-0.7c-1.6-0.9-3-2.1-4.1-3.7c-0.6-0.7-1.2-1.5-1.7-2.3c0.3,0,0.6,0,1-0.1
					c2.7-0.2,4.9-0.8,6.4-2c-2.2-0.4-3.9-1.1-5.3-2.3c-2.3-2-3.7-5.1-4.2-9.4v-0.1c0.3-4.3,0.5-7.6,0.6-10c0.3-5.5,0-10.3-0.7-14.4
					c-0.9-5.1-2.6-9.5-5.1-13.2c-1.5-2.2-3.3-3.9-5.3-5.1C661.3,180.2,660.1,179.7,658.8,179.5 M648.2,174.2
					c-1.3-1.3-2.8-2.6-4.3-3.7c-6.2-4.7-13.4-7.2-21.7-7.6c-4.7-0.2-9.1,0.3-13.2,1.5c-1.4,0.1-4.9,1-10.5,2.6
					c-5.7,1.6-10.1,5.4-13.4,11.4c-1.8,3.3-2.9,8.1-3.3,14.4l-1.3,5c-1.1,3.5-0.8,6.8,1,9.7c1.8,3,2.9,4.6,3.3,5c0,0,0-0.1,0-0.2
					c0-0.6,0.1-1.2,0.1-1.8c0.3-3.8,0.9-7.6,2-11.3c0.5-0.9,1-1.7,1.6-2.5c1.1-1.4,2.4-2.7,3.8-3.9c2.1-1.8,4.7-3.5,7.7-5.1
					c7.5,4,17.3,10.9,29.3,20.8l0,0c2.6,3.4,4.6,7.1,6.1,10.9c0.8-1.3,1.4-2.4,1.8-3c1-1.6,2.4-2.7,4.2-3.5c1-0.3,1.7-0.3,2.2-0.1
					c0.4,0.2,0.7,0.7,1.1,1.5c0.5,1.5,0.7,2.8,0.6,4.1c0,1.1-0.3,2.4-0.8,3.8c-0.3,0.8-0.8,2.1-1.4,3.7c-0.2,0.5-0.5,1-0.7,1.4
					c0,0.1-0.1,0.1-0.1,0.2c-0.2,0.3-0.4,0.6-0.6,0.9c0,1.1,0,2.3,0,3.6c0,1.5,0,3.3,0,5.2c0,1.2,0,2.5-0.1,3.9
					c1.2-1,2.7-2.9,4.7-5.5c0.2-0.3,0.4-0.5,0.6-0.8c0.1-0.1,0.2-0.2,0.3-0.4c0.6-0.2,1.3-0.5,2-1c0.1-0.1,0.2-0.2,0.3-0.3
					c0.2-0.1,0.4-0.3,0.5-0.5c0,0,0,0,0.1,0h0.1c1.3-0.9,3-3,5.1-6.4c2.2-3.4,3.6-6.9,4.1-10.4c0.5-3.5,0.6-7.1,0.3-10.7
					c-0.3-3.6-1-8.2-2-13.6l0,0c0-0.1,0-0.2-0.1-0.3c-0.2-0.8-0.5-1.6-0.7-2.4C655.1,183.1,652.2,178.2,648.2,174.2 M631.3,209.7
					c-0.3-0.3-0.6-0.5-0.8-0.8c0.2,0.2,0.4,0.5,0.6,0.7c-0.8-0.8-1.1-1.2-0.9-1.1C630.4,208.7,630.7,209,631.3,209.7 M581.8,193.8
					c0,0-0.1,0.1-0.2,0c0,0,0-0.3,0.2-1C581.9,193.2,581.9,193.5,581.8,193.8z"/>
				<path class="st15" d="M607.9,737.9c-9.9,2.1-16.4,4.7-19.5,7.8c-1.4,1.4-3.5,2.9-6.3,4.5c-14,4.5-24.6,6.9-31.9,7.2
					c-2.5,0.1-4.5-0.2-6.2-0.8c-0.5,0.8-0.3,1.5,0.6,2c4.7,0.7,10,0.6,15.6-0.4c1.9-0.3,3.7-0.7,5.5-1.2c2.2-0.5,4.1-1,5.9-1.5
					c3.5-0.9,6-1.6,7.6-2.1l0,0c0.7-0.2,1.3-0.4,2-0.7c3.3-1.2,5.9-3,7.8-5.3c2.4-2.8,8.5-5.2,18.4-7.5l0.8-2.5
					C608,737.7,608,737.8,607.9,737.9 M636.9,752.8c-0.1-0.5-0.1-1-0.2-1.5c0-0.4-0.1-0.9-0.1-1.3c0,0.1-0.1,0.2-0.1,0.3
					c-0.1,1-0.1,2.1,0,3.1c0.1,0.5,0.1,1.1,0.3,1.6c0.1,0.4,0.1,0.9,0.2,1.3c0.2,0.7,0.4,1.4,0.7,2.1c0.1,0.3,0.2,0.6,0.3,1
					c1.1,2.9,2.7,5.4,4.7,7.5c0.8,0.9,1.7,1.6,2.7,2.4c0.5,0,1,0,1.5-0.1c0.5,0,1.1-0.1,1.6-0.2c3.4-0.6,6.6-2.1,9.5-4.4
					c2.7-2.2,5.3-5.6,7.8-10.3c0.1-0.8,0.2-1.5,0.3-2.2c-2.5,4.7-5.1,8.1-7.9,10.4c-3.3,2.7-7,4.2-11.1,4.6c-0.5,0.1-1,0.1-1.5,0.1
					c-3.3-2.5-5.7-5.8-7.3-9.9c-0.1-0.3-0.2-0.6-0.4-1C637.5,755.1,637.2,753.9,636.9,752.8z"/>
				<path class="st16" d="M665.9,752c0.4-4.4,0.4-7.9-0.1-10.5c-0.6-3.4-1.2-6.9-1.6-10.5c0.4,3.4,0.4,6.1,0,8
					c-0.4,2-1.1,3.7-2.1,5.3c-1.5,1.1-2.7,2-3.7,2.5c-4.5,2.5-8.4,2.9-11.8,1.3c-1.6-0.6-3.3-2.1-5.3-4.3c-1.1-1.3-1.8-2.5-2.2-3.6
					c-1.7,3.5-2.6,6.8-2.7,9.8c0,0.4,0.1,0.9,0.1,1.3c0.1,0.5,0.1,1,0.2,1.5c0.2,1.2,0.5,2.3,0.9,3.5c0.1,0.3,0.2,0.6,0.4,1
					c1.6,4.1,4,7.4,7.3,9.9c0.5,0,1,0,1.5-0.1c4.1-0.4,7.8-1.9,11.1-4.6C660.8,760.1,663.5,756.7,665.9,752 M604.6,725
					c0,0.7-0.1,1.2-0.3,1.7c-0.3,0.6-0.9,1.3-2,2c-0.8,0.5-1.5,1-2.3,1.3c-0.9,0.5-1.8,0.9-2.8,1.4c-0.6,0.3-1.2,0.6-1.8,0.9
					c-4,2.1-7.8,4.3-11.6,6.7c0.2,0,0.3-0.1,0.4-0.1c-0.2,0.1-0.4,0.1-0.6,0.2c0.1,0,0.1-0.1,0.2-0.1c-8.8,1.8-13.4,2.7-13.9,2.7
					c-1.9,0.2-3.6,0-5.1-0.6c-1.8-0.8-2.9-2-3.3-3.4c0-0.1,0-0.1,0.1-0.2c0.2-0.3,0.4-0.7,0.5-1v0c0.1,0,0.1-0.1,0.2-0.1
					c-2.1,1.4-4.3,2.9-6.4,4.4c-5.6,3.2-9.1,6.4-10.6,9.8c-1.5,3.4-1.9,5.4-1.3,6c1.7,0.6,3.7,0.8,6.2,0.8
					c7.3-0.3,17.9-2.6,31.9-7.2c2.8-1.6,5-3.1,6.3-4.5c3.1-3.1,9.6-5.7,19.5-7.8c0-0.1,0.1-0.2,0.1-0.4c0.1-0.2,0.2-0.4,0.3-0.6
					c1.4-3.9,0.9-7.1-1.4-9.9l-1-2c-0.2-0.4-0.4-0.8-0.6-1.2c-0.1-0.3-0.3-0.6-0.5-0.9c-0.1,0.1-0.3,0.1-0.4,0.2
					c0.1,0.3,0.1,0.7,0.2,1.1C604.6,724.6,604.6,724.8,604.6,725z"/>
				<path class="st17" d="M662.8,716.8l-19.8-1.1c0.1,5.7-0.2,11.5-0.8,17.6c0,0,0,0,0,0c0.1-0.1,0.4-0.2,0.7-0.5
					c-0.3,0.5-0.5,0.9-0.8,1.4c-1.2,2.3-2.1,4.3-2.7,5.9c0.3,1.1,1.1,2.3,2.2,3.6c1.9,2.3,3.7,3.7,5.3,4.3c3.4,1.6,7.3,1.1,11.8-1.3
					c0.9-0.5,2.2-1.4,3.7-2.5c1-1.5,1.7-3.3,2.1-5.3c0.4-1.9,0.4-4.5,0-8c-0.1-0.6-0.2-1.2-0.3-1.9c0,0,0-0.1-0.1-0.2
					c-0.6-4-0.7-7-0.5-9.2c-0.1-0.2-0.1-0.4-0.2-0.5c-0.1-0.3-0.2-0.6-0.2-0.8c0-0.1,0-0.2-0.1-0.3c0-0.1,0-0.1,0-0.2
					C662.9,717.7,662.8,717.2,662.8,716.8 M574.3,725.7L574.3,725.7c-0.8,3.7-4.8,7.3-12.1,10.8v0c-0.2,0.3-0.4,0.7-0.5,1
					c-0.1,0-0.1,0.1-0.1,0.2c0.4,1.4,1.5,2.6,3.3,3.4c1.5,0.6,3.2,0.8,5.1,0.6c0.5,0,5.1-0.9,13.9-2.7c3.8-2.4,7.6-4.6,11.6-6.7
					c0.6-0.3,1.2-0.6,1.8-0.9c0.9-0.4,1.8-0.9,2.8-1.4c0.7-0.4,1.5-0.8,2.3-1.3c1.1-0.7,1.7-1.4,2-2c0.2-0.5,0.3-1,0.3-1.7
					c0-0.2,0-0.5,0-0.7c0-0.4-0.1-0.8-0.2-1.1c-4.1,2-8.2,3.3-12.3,4c-4.1,0.7-8.1,0.7-12,0.1C578.1,727,576.2,726.4,574.3,725.7
					 M599.6,359.8c-0.2,0-0.6,0.1-1,0.3c-0.8,0.4-1.4,0.7-1.8,1.1c0,0,0,0,0,0c-0.2,0.2-0.4,0.3-0.6,0.4c0,0.1-0.1,0.1-0.1,0.1
					c-0.4,0.3-0.9,0.6-1.4,0.9c-3.2,2-7.1,4-11.7,6.1l-5.1,1.1c2-0.9,3.5-2.2,4.4-3.8c1-1.7,1.4-2.9,1.1-3.5c-0.3-0.5-0.7-0.9-1.3-1
					l0-0.1c-0.2-0.1-0.3-0.2-0.5-0.3c-0.5,0.2-1,0.5-1.5,1.1c-0.4,0.5-0.9,0.9-1.4,1.4c-0.3,0.3-0.7,0.6-1.1,1
					c-1.2,0.9-2.5,1.8-4,2.6c-0.2,0.1-0.3,0.2-0.5,0.3c0,0-0.1,0-0.1,0c-0.2,0.1-0.3,0.2-0.5,0.3l0,0h0h0v0h0h-0.2
					c-0.1,0.2-0.3,0.3-0.4,0.5c-1.5,1.6-2.7,2.8-3.5,3.6c-1.9,1.9-3.9,3.2-5.9,4l0,0c0,0.2,0,0.4,0,0.6c-0.1,2.6,0.1,4.8,0.6,6.8
					c0.5,1.5,1.7,3,3.7,4.6c0.1,0.1,0.2,0.1,0.3,0.2c0.1,0,0.1,0,0.2,0c0.8-0.1,1.5-0.2,2.1-0.3c3.1-0.4,5.4-0.7,7-0.8
					c0.1,0,0.1,0,0.2,0c0.1,0,0.2,0,0.3,0l0,0c0.2,0,0.4,0,0.5,0c0.2,0,0.3,0,0.5,0c3.5-0.1,7-0.6,10.5-1.5c5-1.3,10-4,14.9-8.2
					c0.1-0.1,0.3-0.2,0.4-0.3l-0.3,0.4c0.1-0.2,0.3-0.3,0.4-0.5c0.3-0.3,0.5-0.6,0.7-0.9c0,0,0,0,0,0c0.1-0.1,0.2-0.2,0.3-0.3
					c0.1-0.2,0.2-0.3,0.3-0.5c0.1,0,0.1-0.1,0.2-0.2c0.5-0.9,0.8-1.8,1-2.8c0.1-0.7,0-2.1-0.3-4.2c0-0.1-0.1-0.3-0.1-0.4
					c0-0.1,0-0.2,0-0.3c0-0.2-0.1-0.4-0.1-0.6c-0.1-0.4-0.2-0.7-0.3-1c-0.1-0.1-0.1-0.2-0.2-0.4c-0.4-0.6-0.9-0.9-1.6-0.9
					c-0.4,0-0.9,0-1.5,0.1c-0.7,0.2-1.5,0.5-2.3,1l0,0c0,0,0,0,0,0v0.1h-0.1l-11.5,5.7l9.3-5.4c0.4-0.3,0.8-0.5,1.2-0.9
					c0.2-0.1,0.4-0.2,0.5-0.4c1.8-1.4,2.5-2.6,2.2-3.7c0-0.1-0.1-0.2-0.2-0.3c-0.1-0.2-0.3-0.5-0.8-0.9
					C599.9,359.8,599.8,359.8,599.6,359.8 M604.8,374.9L604.8,374.9L604.8,374.9L604.8,374.9l0.2-0.2
					C604.9,374.7,604.9,374.8,604.8,374.9 M640,352.5C640.1,352.3,640.1,352.3,640,352.5c-0.6-0.6-1.1-1.1-1.6-1.7
					c-3.5-3.9-6.6-8.3-9.2-13.2c-1.9-1-3.9-1.9-6-2.6c0,0,0,0-0.1,0c-0.8-0.3-1.5-0.5-2.3-0.8c-0.1-0.1-0.2-0.1-0.4-0.1
					c-1.4-0.5-2.7-0.9-4.2-1.3c-1.3,0.2-2.6,0.5-3.8,0.7c-4,0.8-8,1.7-12.3,2.7c0,0.2,0,0.4-0.1,0.6c-0.1,0.7,0,1.2,0.2,1.5l0.5,0.5
					c0.1,0,0.1,0.1,0.2,0.1c0.3,0.2,0.6,0.3,0.9,0.4c0.2,0,1.2-0.1,3.1-0.2c1.9-0.1,4.8-0.3,8.5-0.6c0.5,0,0.9-0.1,1.3-0.1
					c0.1,0,0.1,0,0.2,0.1c0,0,0.1,0,0.1,0c0.5,0.2,1.2,0.5,2.2,0.9c0.1,0,0.2,0,0.3,0c0.4,0,0.9,0,1.3,0l-0.1,0.2
					c-0.5-0.1-0.9-0.1-1.3-0.2c-5.7,0.1-11.2,1.1-16.5,2.9l0,0c-0.1,0.1-0.3,0.1-0.4,0.1c-0.6,0.2-1.1,0.4-1.7,0.7
					c0,0.1,0,0.1,0,0.2c-0.1,0.7,0,1.3,0.2,1.7c0.1,0.2,0.5,0.5,1,0.9c0.4,0.3,0.9,0.5,1.5,0.6c0.1,0,0.3-0.1,0.4-0.1l-0.3,0.1
					l-0.6,0.2c0,0,0.1,0,0.1,0h0.2c0.3,0,0.4-0.1,0.6-0.1c0.1,0,0.1,0,0.2,0.1c-0.1,0.2,0.4,1.1,1.4,2.8l2.2,0.1c0.3,0,0.6,0,1.1,0
					c1.9,0,3.1,0,3.5,0.1c-0.6,0.2-1.3,0.4-2,0.6c-1.2,0.4-2.1,0.7-2.7,0.9c-0.1,0-0.1,0-0.2,0.1v0c0,0-0.1,0-0.1,0h-0.1
					c-0.1,0.2-0.2,0.4-0.3,0.5c-0.5,0.9-0.6,1.6-0.3,2.1c0.1,0.3,0.3,0.5,0.5,0.6c0.1,0.1,0.1,0.1,0.2,0.1c1.4-0.2,4.9-0.5,10.5-0.8
					c0,0,0.1,0,0.1-0.1c0.1,0,0.2,0,0.3,0c-0.1,0.1-0.2,0.1-0.3,0.1c0,0,0.1,0,0.1,0.1c1.7,2.3,3.7,4.7,6,7.3c1.7,2,3.5,3.4,5.3,4.4
					c1.5,0.6,3.5,1,5.9,1.2c0.4,0,0.7,0,1,0.1v-0.1c0,0,0.1,0,0.1,0.1c0.6,0.4,1.1,0.7,1.7,0.9c-0.1,0-0.2,0-0.3,0
					c3.3,1.8,6.4,3.9,9.3,6.2c0.3-0.4,0.5-0.9,0.7-1.4c0-0.2,0.1-0.4,0.2-0.5c0.5-1.2,0.8-2.6,0.9-4.4c0.1-0.9,0.1-2.5,0-4.5
					c-0.1-1.7-0.3-3.2-0.4-4.4c-0.1-0.6-0.1-1.2-0.3-1.7c-0.1-0.5-0.2-1-0.4-1.5C644.2,354.6,642.4,353.7,640,352.5 M633.6,366.2
					c-0.1,0-0.2,0-0.3-0.1c0.1,0,0.1,0,0.2,0C633.5,366.2,633.5,366.2,633.6,366.2 M629.5,208.4L629.5,208.4
					c-12.1-9.9-21.9-16.8-29.3-20.8c-3,1.6-5.5,3.3-7.7,5.1c-1.4,1.2-2.7,2.5-3.8,3.9c-0.6,0.8-1.1,1.6-1.6,2.5
					c-1.1,3.7-1.7,7.5-2,11.3c0,0.6-0.1,1.2-0.1,1.8c0,0.1,0,0.1,0,0.2c0,1.2,0.1,2.2,0.2,3.2c0.4,6.7,1.9,13.2,4.5,19.4
					c2.5,5.9,6.2,11.3,11.1,16.3c0.3,0.1,0.5,0.1,0.8,0.2c3.4,0.5,7.4-0.3,12-2.5c0.1,0,0.2-0.1,0.3-0.1c0.2-0.1,0.3-0.2,0.5-0.3
					c0.1-0.1,0.3-0.1,0.4-0.2c4.6-2.3,8.4-4.6,11.4-6.8c1.1-0.9,3.1-2.3,5.8-4.4c0.5-0.4,1.8-1.7,4-3.8c0.2-0.1,0.3-0.3,0.5-0.4
					c0.1,0,0.2-0.1,0.3-0.2c-0.4,0.3-1.6,2-3.6,5.1c-2.1,3.4-7.9,8.8-17.2,16.1c0.1,0.3,0.1,0.6,0.1,0.9c0,0.3,0,0.6,0,0.9
					c0,0.2,0,0.4,0,0.5c0,1.6,0,2.9-0.2,3.9c-0.2,1.4-0.6,2.6-1.2,3.9c-0.4,0.1-0.9,0.2-1.3,0.3c-0.1,0.7-0.1,1.5-0.2,2.2
					c-0.2,3,0.1,6.1,0.8,9.3c1.2,5.2,3.4,9.8,6.8,13.6c0.1,0.1,0.2,0.3,0.3,0.4c0.4-0.3,0.9-0.6,1.4-0.9
					c7.5-5.1,14.3-10.9,20.3-17.4c3.4-3.7,5.8-7.2,7-10.4c-5-3.6-7.6-6.9-7.8-9.7c-0.2-3.4-0.3-6-0.4-7.8c0-0.5,0-1,0-1.3
					c0-0.7,0-1.1,0.1-1.4V241c0,0,0.1,0,0.1,0c0-1.4,0-2.7,0.1-3.9c0-1.9,0-3.7,0-5.2c-1.2,0.3-2.6,0.4-4.2,0.3
					c1.1-0.6,1.9-1.3,2.7-1.9c0.2-0.2,0.4-0.4,0.6-0.6c0.1-0.1,0.2-0.3,0.3-0.4c0.2-0.3,0.4-0.6,0.6-1c0.2-0.3,0.4-0.6,0.6-0.9
					c0-0.1,0.1-0.1,0.1-0.2c0.2-0.5,0.5-0.9,0.7-1.4c0.7-1.6,1.2-2.9,1.4-3.7c0.5-1.4,0.7-2.6,0.8-3.8c0.1-1.3-0.1-2.7-0.6-4.1
					c-0.4-0.7-0.7-1.2-1.1-1.5c-0.5-0.2-1.2-0.2-2.2,0.1c-1.8,0.8-3.2,1.9-4.2,3.5c-0.4,0.7-1,1.7-1.8,3
					C634.1,215.4,632.1,211.8,629.5,208.4z"/>
				<path class="st18" d="M619.8,533.1l-2.9-0.4c-16.6-1.3-32.9-4-48.8-8c1.1,10.7,2.3,24.4,3.4,41.2l1.7,159.3l1.1,0.5
					c1.9,0.7,3.8,1.2,5.9,1.6c3.9,0.6,7.8,0.6,12-0.1c4-0.7,8.1-2,12.3-4c0.2-0.1,0.3-0.1,0.4-0.2v0l1.5-0.7
					c3-42.1,3.9-77,2.8-104.8C614.2,578.7,617.8,550.6,619.8,533.1 M682,512.7c-0.3-1.2-0.7-2.5-1-3.8c-3.5-12.5-8.3-24.3-14.7-35.4
					c1.3,20,0.5,39.8-2.5,59.5c-7.7,0.6-15.5,0.8-23.4,0.8l-7.3,0.4c0.9,13.4,1.7,35.4,2.5,66c0.9,6.6,2.8,45,5.7,115.3h1.8
					c0,0,0,0.1,0,0.1l19.8,1.1l6.3,0.4c0.1-0.2,0.1-0.5,0.2-0.8c5.4-27.6,7.7-62.4,6.9-104.3l5.8-80.9L682,512.7z"/>
				<path class="st19" d="M572.1,367.6L572.1,367.6l0.2,0.1L572.1,367.6L572.1,367.6 M572.3,367.8L572.3,367.8l0.1,0.1l0,0
					C572.5,367.8,572.4,367.8,572.3,367.8L572.3,367.8 M604.2,375.9C604.2,375.9,604.2,376,604.2,375.9c-0.2,0.3-0.5,0.6-0.8,0.9
					c-0.1,0.2-0.3,0.3-0.4,0.5l0.3-0.4c-0.1,0.1-0.3,0.2-0.4,0.3c-4.9,4.2-9.8,6.9-14.9,8.2c-3.5,0.9-7,1.4-10.5,1.5
					c-0.1,0-0.3,0-0.5,0c-0.2,0.2-0.3,0.3-0.5,0.5c-0.1,0.1-0.2,0.2-0.3,0.3c-1,0.9-2,1.5-2.9,1.9c-0.3,0.1-0.5,0.2-0.8,0.3
					c-0.2,0.1-0.4,0.1-0.5,0.1c0,0,0,0,0,0c-0.9-0.1-1.3,0-1.3,0.1c1.5,2.8,2.6,4.6,3.2,5.6c0.2,0.4,0.5,0.7,0.7,1.1
					c0.7,0.1,1.5,0.1,2.3,0.2c0.3,0,0.5,0,0.8,0.1c3.3,0.3,6.8,0.4,10.6,0.4c5.9,0,14.8-0.1,26.6-0.2c1,0,2,0.1,3.1,0.2
					c-2.7-4.7-5.3-9.1-7.8-13.3c0,0,0-0.1-0.1-0.1c-1.7-2.9-3.3-5.7-4.8-8.4c0-0.1-0.1-0.2-0.2-0.3c-0.1-0.1-0.2-0.3-0.3-0.4
					c0,0.1-0.1,0.2-0.2,0.2c-0.1,0.2-0.2,0.3-0.3,0.5C604.4,375.7,604.3,375.8,604.2,375.9 M599.4,365.7c-0.2-0.3-0.4-0.6-0.6-1
					c-0.1,0.1-0.3,0.2-0.5,0.4c-0.4,0.3-0.8,0.6-1.2,0.9l-9.3,5.4L599.4,365.7 M604.8,374.9L604.8,374.9L604.8,374.9L604.8,374.9
					L604.8,374.9 M579.6,331.8h-0.2l-32,2.5c-3.8,0.4-6.6,0.7-8.5,0.9c-0.1,0-0.1,0-0.2,0c-0.1,0.2-0.3,0-0.5-0.4
					c1.9,3.9,3.7,7.3,5.4,10.3c1.9,3.3,3.9,6.6,5.8,9.9c0.4-0.1,0.9-0.2,1.3-0.3c1.7-0.4,3.2-0.4,4.5-0.1c0.7,0.1,1.4,0.4,2,0.9
					c0.5,0.4,0.9,0.8,1.2,1.3h0c0.1,0.1,0.1,0.2,0.2,0.3c0.2,0.3,0.4,0.5,0.7,0.9c2,2.1,3.8,3.7,5.6,4.6l5,1.7
					c1.7,1.6,2.8,2.7,3.3,3.3c0.2-0.1,0.3-0.2,0.5-0.3c1.5-0.8,2.8-1.7,4-2.6c0.4-0.3,0.8-0.7,1.1-1c0.5-0.4,1-0.9,1.4-1.4
					c0.6-0.6,1.1-1,1.5-1.1c0.1,0.1,0.3,0.2,0.5,0.3l0,0.1c0.6,0.2,1,0.5,1.3,1c0.2,0.6-0.2,1.8-1.1,3.5c-0.9,1.6-2.3,2.8-4.4,3.8
					l5.1-1.1c4.6-2.1,8.5-4.1,11.7-6.1c0.5-0.3,0.9-0.6,1.4-0.9c0.1,0,0.1,0,0.1-0.1c0.2-0.1,0.4-0.2,0.6-0.4
					c-1.4-2.5-2.2-3.9-2.4-4.2C587.5,345.1,582.6,336.7,579.6,331.8z"/>
				<path class="st20" d="M605.6,366.5c-0.1-0.2-0.2-0.5-0.3-0.8l0.3,1.6c0,0.1,0,0.2,0,0.3c0,0.1,0.1,0.3,0.1,0.4
					c0.3,2,0.4,3.4,0.3,4.2c-0.2,0.9-0.5,1.8-1,2.8c0.1,0.2,0.2,0.3,0.3,0.4c0.1,0.1,0.1,0.2,0.2,0.3c1.6,2.7,3.2,5.5,4.8,8.4
					c0,0,0,0.1,0.1,0.1c2.5,4.2,5.1,8.6,7.8,13.3c0.2,0,0.3,0,0.3,0c0.6-1.4,1.1-2.7,1.6-3.8c0,0,0-0.1,0.1-0.1
					c0.2-0.5,0.4-1,0.6-1.4c-2.1-3.4-4.2-6.9-6.3-10.5c0,0,0,0,0,0c-1.7-2.9-3.3-5.7-5-8.7c-0.1-0.1-0.2-0.3-0.3-0.4
					c-0.2-0.4-0.4-0.8-0.7-1.1c-0.6-1-1.3-2.3-2.1-3.7c-0.1-0.1-0.2-0.3-0.3-0.5L605.6,366.5 M584.4,327c-0.9,1.9-2.3,3.5-4.3,4.6
					l-0.4,0.2c2.9,4.9,7.8,13.4,14.8,25.3c0.2,0.2,1,1.6,2.4,4.2c0,0,0,0,0,0c0.4-0.4,1-0.8,1.8-1.1c0.4-0.2,0.8-0.3,1-0.3
					c0.2,0,0.3,0,0.3,0c0.5,0.4,0.8,0.7,0.8,0.9c0.1,0.1,0.1,0.2,0.2,0.3c0.3,1.1-0.4,2.3-2.2,3.7c0.2,0.3,0.4,0.6,0.6,1h0.1v-0.1
					c0,0,0,0,0,0l0,0c0.9-0.5,1.7-0.8,2.3-1c0.6-0.1,1.1-0.2,1.5-0.1c0.7,0.1,1.2,0.4,1.6,0.9c-2.7-4.9-4-7.4-4.1-7.5
					c-0.3-0.6-0.6-1.2-0.9-1.8l0,0c-0.3-0.5-0.6-1.1-0.9-1.6c0,0,0-0.1,0-0.1l0,0c-0.9-1.7-1.9-3.5-2.8-5.2
					c-0.1-0.1-0.1-0.3-0.2-0.4c0,0,0,0,0,0c0,0,0,0,0,0c-0.3-0.6-0.6-1.2-1-1.8c0,0,0,0,0-0.1c-0.3-0.5-0.5-1-0.8-1.5
					c-0.3-0.6-0.7-1.3-1-1.9c-0.1-0.3-0.3-0.7-0.5-1c0,0,0,0,0-0.1c-2.3-4.5-4.7-9-7-13.6c-0.3-0.6-0.6-1.2-1-1.9c0,0,0-0.1-0.1-0.2
					C584.5,326.8,584.5,326.9,584.4,327z"/>
				<path class="st21" d="M549,331.5c-0.7,0.1-1.4,0.1-2.1,0.2c-0.3,0-0.7,0-1,0c-1.2,0.1-2.5,0.2-3.7,0.3c0,0.1-0.1,0.1-0.1,0.1
					c-0.4,0.5-0.9,0.9-1.5,1.4c0,0.1-0.1,0.1-0.2,0.2c-0.5,0.4-1,0.8-1.5,1.1c-0.1,0.1-0.1,0.2-0.2,0.3c0.1,0,0.1,0,0.2,0
					c1.9-0.2,4.8-0.5,8.5-0.9l32-2.5h0.2l0.4-0.2c2-1.1,3.5-2.7,4.3-4.6c-2.2,0.4-4.5,0.7-6.8,1.1c-0.4,0.1-0.7,0.1-1.1,0.1
					c0,0-0.1,0-0.2,0c-0.8,0.1-1.5,0.2-2.3,0.4C565.7,329.9,557.4,330.8,549,331.5z"/>
				<path class="st22" d="M641.8,231.9c0-1.4,0-2.6,0-3.6c-0.2,0.4-0.4,0.7-0.6,1c-0.1,0.1-0.2,0.3-0.3,0.4
					c-0.2,0.2-0.4,0.4-0.6,0.6c-0.7,0.7-1.6,1.3-2.7,1.9C639.3,232.3,640.7,232.2,641.8,231.9 M636.6,232.8
					c-0.1,0.1-0.2,0.1-0.3,0.2c-0.2,0.2-0.3,0.3-0.5,0.4c-2.2,2.1-3.5,3.4-4,3.8c-2.7,2.1-4.6,3.6-5.8,4.4c-3,2.2-6.8,4.4-11.4,6.8
					c-0.1,0.1-0.3,0.1-0.4,0.2c-0.2,0.1-0.3,0.2-0.5,0.3c-0.1,0-0.1,0.1-0.3,0.1c1.3,2,2.1,3.7,2.4,5.1c9.3-7.4,15-12.8,17.2-16.1
					C635,234.8,636.2,233.1,636.6,232.8z"/>
			</g>
		</g>
		<g>
			<path class="st23" d="M650.2,232.5c0,0-0.1,0.1-0.1,0.1 M657.7,191.6c1.1,5.4,1.7,9.9,2.1,13.5c0.3,3.6,0.2,7.2-0.3,10.7
				c-0.5,3.5-1.9,6.9-4.1,10.4c-2.2,3.3-3.9,5.5-5.2,6.4"/>
		</g>
		<g>
			<path class="st24" d="M665,388.5c0.1,0.2,0.2,0.4,0.3,0.6 M582.4,295.6c0.3,4.1,0.5,7.2,0.4,9.3c-0.1,3.4-0.6,6.3-1.3,8.8
				c-0.7,2.5-1.1,3.8-1.3,4.1c-0.2,0.3-0.7,1.7-1.8,4.3c-1,2.6-1.6,4.3-1.8,5c-0.2,0.6-0.3,1-0.3,1.2 M663,357.1
				c-2.3-0.7-4.5-1.5-6.7-2.4c-4-1.6-8.2-3.3-12.5-5.2c0.8,1.7,1.5,3.6,1.9,5.7c0,0,0,0.1,0,0.1c0.5,2.2,0.8,4.6,0.9,7.2
				c0.3,3.5,0.1,6.4-0.7,8.6c-0.1,0.3-0.2,0.7-0.4,1c-0.2,0.5-0.4,1-0.7,1.4c-0.8,1.4-1.9,2.7-3.3,3.8c-1.2,1-2.5,1.7-3.8,2.2
				c0.2,0.1,0.5,0.2,0.7,0.3c4.6,2.1,10.9,4.3,19,6.5c0.2,0.1,0.4,0.1,0.7,0.2c1.3,0.4,2.7,0.7,4,1.1c0.2,0,0.4,0.1,0.5,0.1
				c0.8,0.2,1.5,0.4,2.3,0.6 M640,352.5c0.5-0.6,0.8-1,1.1-1.2c1-0.8,1.8-1.4,2.5-1.8c0,0,0.1,0,0.1-0.1h0v0l0,0 M634.1,366.6
				L634.1,366.6c0-0.1,0.1,0,0.1,0c0.6,0.4,1.1,0.7,1.7,0.9c-0.1,0-0.2,0-0.3,0c0,0.2,0,1.1,0,2.7c0,1.6,0.1,3,0.2,4.2
				c0.2,1.2,0.7,2.7,1.8,4.8c0.1,0.2,0.2,0.3,0.2,0.4c0,0,0,0,0.1,0.1"/>
		</g>
		<g>
			<path class="st25" d="M576.4,328.2L576.4,328.2 M845.5,376.7c0.1,0,0.3-0.1,0.3-0.1c4.6-0.6,8.2,0.3,10.9,2.8 M839.8,378.2
				c0.1-0.1,0.2-0.1,0.4-0.1c0.4-0.1,0.8-0.3,1.2-0.4c1.5-0.5,2.8-0.8,4.1-1 M820,387c0.2-0.1,0.5-0.2,0.7-0.3
				c0.8-0.4,1.6-0.7,2.3-1.1c1.9-0.8,4.6-2.1,8.2-3.7c0.8-0.4,1.6-0.7,2.5-1.1c0.4-0.2,0.7-0.3,1-0.5c0.3-0.1,0.6-0.3,0.9-0.4
				c0.6-0.3,1.2-0.5,1.7-0.8c0.1-0.1,0.2-0.1,0.3-0.2c0.8-0.3,1.5-0.6,2.1-0.9 M820.1,387c0.2-0.1,0.4-0.2,0.7-0.3 M820,387
				c-4,2.7-7.6,4.6-10.9,5.6c-1.8,0.7-3.6,1-5.5,1c-0.7,0-1.3-0.1-1.8-0.3c-4.5,2.9-10.9,5.2-19.3,6.8 M820,387
				C820,387,820,387,820,387"/>
		</g>
		<g>
			<path class="st26" d="M525.3,348.9L525.3,348.9 M528.8,360.1l-0.6-0.3 M516.9,423.6l-0.3,0.5c-0.2-0.1-0.5-0.2-0.8-0.3
				 M348.9,440.3c0.4-0.1,0.8-0.2,1.3-0.3 M354.4,279c0,0,0.3-0.2,1-0.6 M387.8,254.2c-0.1,0.2-0.2,0.4-0.2,0.5l0.2,1.5
				c0-0.6,0.1-1.1,0.1-1.6c0-0.2,0-0.4,0-0.5c0,0,0-0.1,0-0.1c0.1-2.4,0.2-3.9,0.3-4.3c0.3-2,1.5-4.1,3.8-6.1c0,0,0.1-0.1,0.1-0.1
				 M362.6,295.3c1.5,9.4,3.3,18.9,5.5,28.3c1.3,5.7,3,11.3,5,16.7c0.3-3.2,0.1-6.4-0.7-9.6 M432.6,243.4c0.5,1.9,1.1,3.8,1.8,5.8
				c0.8-2.3,0.9-4.2,0.5-5.8 M434.4,249.2c-0.4,1-0.9,2.1-1.5,3.4c-3.9,7.9-8.6,15.3-14,22.1c-0.6,0.7-1.1,1.4-1.7,2
				c-0.7,0.9,0.7,23.9,4.3,69c-2,45.2-2.2,71.1-0.5,77.6l1.2,1.6c5,0,10.2-0.4,15.4-1.4c11.7-2.1,24.8-6.9,39.3-14.6
				c2.1-1.1,4.2-2.2,6.3-3.4c0.2-0.1,0.3-0.3,0.5-0.4c0.1-0.9,0.1-1.7,0.2-2.6 M420.2,275.7c5.6-5.6,8.3-8.3,8.1-8.2
				c-0.2,0.1-0.1,0,0.3-0.4c0.3-0.4,0.8-0.7,1.3-0.9c0.4-0.2,0.9-0.3,1.5-0.4c0.4,0,0.9-0.1,1.7-0.1c1.3,0,4.2-0.4,8.6-1.3
				c2.9-0.6,5.8-0.6,8.6-0.3l0,0.5c0.1-0.1,0.6-0.2,1.6-0.2c-4.3-6.9-8.2-13.9-11.5-21.1 M394.8,243.4c0.2,3.1,0.3,6.2,0.3,9.4
				c0.7,1.3,1.6,2.7,2.8,4.3c4.1,5.7,7.4,9.9,10.1,12.6c1,1.1,2.1,2,3.2,2.9c2,1.7,4,3,6,4.1 M393.2,248c0.3,1.4,0.9,3.1,1.9,4.9
				 M387.8,256.2c-0.6,7-2.2,13.4-4.8,19.4c1.9-0.5,4.2-1.3,6.8-2.5c4.1-1.9,6.8-3,8-3.4c1.1-0.5,2.1-0.6,3-0.3c0-0.3,3,1.3,9,4.7
				 M523.4,378.9c-0.2,0.4-0.4,0.7-0.6,1.1 M490.6,421.5L490.6,421.5c4.9-0.2,8.7-0.3,11.5-0.1c5.3,0.2,9.9,1.1,13.8,2.5
				 M481.2,333.6l-1.6,27.8c0.8,3.9,1.5,7.8,2.2,11.8c0.5,3.4,2.1,10.7,4.9,21.8c0.2,5.1-0.7,8.5-2.8,10.2c-0.1,0-0.1,0.1-0.2,0.1
				 M377.3,407.5c3.9,4.6,9.3,8.4,16,11.4c6.7,3,13.9,4.9,21.7,5.6l5.9-1.3 M373.1,340.3c0.1,0.2,0.1,0.3,0.2,0.5v2.6
				c4.8,11.6,5.6,23.5,2.4,35.7c-1,4-1.8,8-2.3,12.1c-0.1,0.4-0.2,0.7-0.3,1.1c-0.7,4.6,0.3,9.1,3.1,13.4c0.4,0.4,0.7,0.8,0.9,1.1
				c-0.1-0.4-0.1-0.9-0.1-1.3 M370.1,345.8c0.1,0.7,0.4,1.9,0.7,3.6c1.2-3,2-6.1,2.3-9.1 M370.8,349.4c-0.2,0.4-0.4,0.9-0.6,1.3
				c-0.3,0.7-0.8,1.7-1.4,2.9c-0.1,0.3-0.3,0.5-0.4,0.8c-0.7,1.5-1.2,2.7-1.5,3.8 M370.8,428.5c0.1-0.1,0.2-0.2,0.3-0.3
				 M377.3,407.5c0-0.2-0.1-0.5-0.1-0.7c0.2,0.2,0.3,0.4,0.4,0.5c0.4,0.8,1,1.1,1.8,1 M368.2,350.2c0.2,1.1,0.4,2.2,0.6,3.4
				 M342.2,412.8c0,1.1-0.1,2.3-0.1,3.5 M370.6,427c0,0.4,0.1,0.9,0.3,1.5c-2.9,2.7-6.1,5-9.7,7c-3.5,1.9-7.2,3.4-11,4.5l-0.5-1.1
				 M475.1,314.7c1.8,5.9,3.9,12.2,6.1,18.9"/>
		</g>
		<g>
			<path class="st27" d="M608.3,737c-0.1,0.2-0.2,0.4-0.3,0.7l-0.8,2.5 M421,423.3c0.3,1,0.6,1.6,1,1.6c0.1,0,0.2,0,0.3,0
				 M415,424.6c1.1,0.1,2.3,0.2,3.4,0.3c1.2,0.1,2.3,0.1,3.5,0.1"/>
		</g>
		<g>
			<path class="st28" d="M600.8,339.4L600.8,339.4"/>
		</g>
	</g>
	<g transform="matrix( 0.8499908447265625, 0, 0, 0.8499908447265625, 43.05,53.45) ">
		<g>
			<g>
				<path class="st29" d="M445.5,268.8c0.5-0.4,0.7-1,0.7-1.6c0-0.6-0.2-1.2-0.7-1.6c-0.5-0.4-1-0.6-1.7-0.6s-1.2,0.2-1.7,0.6
					c-0.5,0.5-0.7,1-0.7,1.6c0,0.6,0.2,1.2,0.7,1.6c0.5,0.5,1,0.7,1.7,0.7C444.5,269.5,445.1,269.3,445.5,268.8z"/>
			</g>
		</g>
	</g>
	<g transform="matrix( 0.8499908447265625, 0, 0, 0.8499908447265625, 44.8,80.5) ">
		<g>
			<g>
				<path class="st29" d="M445.5,268.8c0.5-0.4,0.7-1,0.7-1.6c0-0.6-0.2-1.2-0.7-1.6c-0.5-0.4-1-0.6-1.7-0.6s-1.2,0.2-1.7,0.6
					c-0.5,0.5-0.7,1-0.7,1.6c0,0.6,0.2,1.2,0.7,1.6c0.5,0.5,1,0.7,1.7,0.7C444.5,269.5,445.1,269.3,445.5,268.8z"/>
			</g>
		</g>
	</g>
	<g transform="matrix( 0.8499908447265625, 0, 0, 0.8499908447265625, 47.45,108.25) ">
		<g>
			<g>
				<path class="st29" d="M445.5,268.8c0.5-0.4,0.7-1,0.7-1.6c0-0.6-0.2-1.2-0.7-1.6c-0.5-0.4-1-0.6-1.7-0.6s-1.2,0.2-1.7,0.6
					c-0.5,0.5-0.7,1-0.7,1.6c0,0.6,0.2,1.2,0.7,1.6c0.5,0.5,1,0.7,1.7,0.7C444.5,269.5,445.1,269.3,445.5,268.8z"/>
			</g>
		</g>
	</g>
	<g transform="matrix( 0.8499908447265625, 0, 0, 0.8499908447265625, 47.45,138.65) ">
		<g>
			<g>
				<path class="st29" d="M445.5,268.8c0.5-0.4,0.7-1,0.7-1.6c0-0.6-0.2-1.2-0.7-1.6c-0.5-0.4-1-0.6-1.7-0.6s-1.2,0.2-1.7,0.6
					c-0.5,0.5-0.7,1-0.7,1.6c0,0.6,0.2,1.2,0.7,1.6c0.5,0.5,1,0.7,1.7,0.7C444.5,269.5,445.1,269.3,445.5,268.8z"/>
			</g>
		</g>
	</g>
	<g transform="matrix( 0.8499908447265625, 0, 0, 0.8499908447265625, 47.2,167.05) ">
		<g>
			<g>
				<path class="st29" d="M445.5,268.8c0.5-0.4,0.7-1,0.7-1.6c0-0.6-0.2-1.2-0.7-1.6c-0.5-0.4-1-0.6-1.7-0.6s-1.2,0.2-1.7,0.6
					c-0.5,0.5-0.7,1-0.7,1.6c0,0.6,0.2,1.2,0.7,1.6c0.5,0.5,1,0.7,1.7,0.7C444.5,269.5,445.1,269.3,445.5,268.8z"/>
			</g>
		</g>
	</g>
	<g transform="matrix( 0.8499908447265625, 0, 0, 0.8499908447265625, 46.95,194.4) ">
		<g>
			<g>
				<path class="st29" d="M445.5,268.8c0.5-0.4,0.7-1,0.7-1.6c0-0.6-0.2-1.2-0.7-1.6c-0.5-0.4-1-0.6-1.7-0.6s-1.2,0.2-1.7,0.6
					c-0.5,0.5-0.7,1-0.7,1.6c0,0.6,0.2,1.2,0.7,1.6c0.5,0.5,1,0.7,1.7,0.7C444.5,269.5,445.1,269.3,445.5,268.8z"/>
			</g>
		</g>
	</g>
</g>
</svg>
