<?xml version="1.0" encoding="utf-8"?>
<!-- Generator: Adobe Illustrator 16.0.0, SVG Export Plug-In . SVG Version: 6.00 Build 0)  -->
<!DOCTYPE svg PUBLIC "-//W3C//DTD SVG 1.1//EN" "http://www.w3.org/Graphics/SVG/1.1/DTD/svg11.dtd">
<svg version="1.1" id="Layer_1" xmlns="http://www.w3.org/2000/svg" xmlns:xlink="http://www.w3.org/1999/xlink" x="0px" y="0px"
	 width="1440px" height="900px" viewBox="0 0 1440 900" enable-background="new 0 0 1440 900" xml:space="preserve">
<g>
	<path fill="#FFFFFF" d="M726.129,443.005h-0.518v-0.563c0-0.714-0.562-1.293-1.256-1.293c-0.691,0-1.255,0.579-1.255,1.293v0.563
		h-1.289v-0.563c0-0.714-0.562-1.293-1.255-1.293c-0.693,0-1.255,0.579-1.255,1.293v0.563h-1.289v-0.563
		c0-0.714-0.563-1.293-1.255-1.293c-0.693,0-1.256,0.579-1.256,1.293v0.563h-0.659c-1.102,0-1.998,0.896-1.998,1.998v11.286
		c0,1.102,0.896,1.998,1.998,1.998h11.286c1.101,0,1.998-0.896,1.998-1.998v-11.286
		C728.127,443.902,727.229,443.005,726.129,443.005 M723.806,442.442c0-0.324,0.248-0.588,0.55-0.588
		c0.305,0,0.551,0.264,0.551,0.588v2.302c0,0.324-0.246,0.588-0.551,0.588c-0.302,0-0.55-0.264-0.55-0.588V442.442z
		 M720.007,442.442c0-0.324,0.247-0.588,0.55-0.588c0.303,0,0.55,0.264,0.55,0.588v2.302c0,0.324-0.247,0.588-0.55,0.588
		c-0.303,0-0.55-0.264-0.55-0.588V442.442z M716.207,442.442c0-0.324,0.247-0.588,0.551-0.588c0.302,0,0.549,0.264,0.549,0.588
		v2.302c0,0.324-0.247,0.588-0.549,0.588c-0.304,0-0.551-0.264-0.551-0.588V442.442z M726.951,456.289
		c0,0.453-0.369,0.822-0.822,0.822h-11.286c-0.454,0-0.823-0.369-0.823-0.822v-10.345h12.932V456.289z"/>
	<rect x="715.078" y="448.026" fill="#FFFFFF" width="2.161" height="1.923"/>
	<rect x="717.961" y="448.026" fill="#FFFFFF" width="2.161" height="1.923"/>
	<rect x="720.848" y="448.026" fill="#FFFFFF" width="2.16" height="1.923"/>
	<rect x="723.732" y="448.026" fill="#FFFFFF" width="2.16" height="1.923"/>
	<rect x="715.078" y="450.592" fill="#FFFFFF" width="2.161" height="1.921"/>
	<rect x="717.961" y="450.592" fill="#FFFFFF" width="2.161" height="1.921"/>
	<rect x="720.848" y="450.592" fill="#FFFFFF" width="2.16" height="1.921"/>
	<rect x="723.732" y="450.592" fill="#FFFFFF" width="2.16" height="1.921"/>
	<rect x="715.078" y="453.158" fill="#FFFFFF" width="2.161" height="1.92"/>
	<rect x="717.961" y="453.158" fill="#FFFFFF" width="2.161" height="1.92"/>
	<rect x="720.848" y="453.158" fill="#FFFFFF" width="2.16" height="1.92"/>
	<rect x="723.732" y="453.158" fill="#FFFFFF" width="2.16" height="1.92"/>
</g>
</svg>
