<?xml version="1.0" encoding="utf-8"?>
<!-- Generator: Adobe Illustrator 16.0.0, SVG Export Plug-In . SVG Version: 6.00 Build 0)  -->
<!DOCTYPE svg PUBLIC "-//W3C//DTD SVG 1.1//EN" "http://www.w3.org/Graphics/SVG/1.1/DTD/svg11.dtd">
<svg version="1.1" id="Layer_1" xmlns="http://www.w3.org/2000/svg" xmlns:xlink="http://www.w3.org/1999/xlink" x="0px" y="0px"
	 width="1440px" height="900px" viewBox="0 0 1440 900" enable-background="new 0 0 1440 900" xml:space="preserve">
<path fill="#FFFFFF" d="M726.313,444.019c-1.579-1.579-3.678-2.448-5.91-2.448c-2.231,0-4.33,0.869-5.909,2.448
	c-1.578,1.579-2.447,3.677-2.447,5.91c0,2.232,0.869,4.331,2.447,5.911c1.579,1.578,3.678,2.446,5.909,2.446
	c2.232,0,4.331-0.868,5.91-2.446c1.578-1.58,2.448-3.679,2.448-5.911C728.762,447.696,727.892,445.598,726.313,444.019
	 M725.52,449.929c0,2.821-2.295,5.116-5.116,5.116c-2.82,0-5.115-2.295-5.115-5.116s2.295-5.117,5.115-5.117
	C723.225,444.813,725.52,447.108,725.52,449.929 M725.776,444.556c0.141,0.14,0.274,0.285,0.401,0.435l-1.224,1.224
	c-1.078-1.319-2.718-2.162-4.551-2.162c-0.191,0-0.382,0.009-0.568,0.027v-1.729c0.188-0.013,0.378-0.021,0.568-0.021
	C722.433,442.331,724.341,443.121,725.776,444.556"/>
</svg>
