<?xml version="1.0" encoding="utf-8"?>
<!-- Generator: Adobe Illustrator 16.0.0, SVG Export Plug-In . SVG Version: 6.00 Build 0)  -->
<!DOCTYPE svg PUBLIC "-//W3C//DTD SVG 1.1//EN" "http://www.w3.org/Graphics/SVG/1.1/DTD/svg11.dtd">
<svg version="1.1" id="Layer_1" xmlns="http://www.w3.org/2000/svg" xmlns:xlink="http://www.w3.org/1999/xlink" x="0px" y="0px"
	 width="1440px" height="900px" viewBox="0 0 1440 900" enable-background="new 0 0 1440 900" xml:space="preserve">
<g>
	<path fill="#FFFFFF" stroke="#000000" stroke-miterlimit="10" d="M732.191,45.25v131.759c0,21.547,17.45,38.971,39.017,38.971
		c21.565,0,39.02-17.424,39.02-38.971V45.25c0-21.514-17.454-38.992-39.02-38.992C749.642,6.258,732.191,23.735,732.191,45.25"/>
	<path fill="#FFFFFF" stroke="#000000" stroke-miterlimit="10" d="M940.221,176.986V97.283c0-21.566-17.505-39.04-38.964-39.04
		c-21.621,0-39.073,17.474-39.073,39.04v79.704c0,21.542,17.452,39.016,39.073,39.016
		C922.716,216.002,940.221,198.529,940.221,176.986"/>
	<path fill="#FFFFFF" stroke="#000000" stroke-miterlimit="10" d="M420.221,267.991c0,85.289,41.615,161.188,103.992,208v391.724
		c0,14.557,11.441,26.026,26.004,26.026h312.017c14.558,0,25.982-11.47,25.982-26.026V423.498
		c33.771-44.215,51.958-99.336,51.958-155.507v-9.387c-11.916,5.726-24.944,9.387-38.967,9.387c-25.491,0-48.384-10.37-64.997-27.55
		c-16.665,17.18-39.509,27.55-65.002,27.55c-14.013,0-27.597-3.116-39.505-9.387c0.488,3.108,0.488,6.271,0.488,9.387
		c0,42.666-26.521,80.063-63.428,95.679c23.919,20.832,42.643,47.326,53.04,77.496c4.704,13.506-2.064,28.603-15.59,33.278
		c-15.097,5.178-29.165-3.108-33.284-15.608c-18.208-52.004-67.595-86.835-122.712-86.835c-14.563,0-26.004-11.443-26.004-26.002
		c0-14.558,11.441-26.005,26.004-26.005h78.01c28.603,0,51.983-23.378,51.983-52.002c0-29.096-23.948-51.989-51.983-51.989H472.204
		C443.601,216.002,420.221,239.383,420.221,267.991"/>
	<path fill="#FFFFFF" stroke="#000000" stroke-miterlimit="10" d="M472.229,163.998h78.011V45.25
		c0-21.538-17.478-38.992-39.068-38.992c-21.465,0-38.943,17.454-38.943,38.992V163.998z"/>
	<path fill="#FFFFFF" stroke="#000000" stroke-miterlimit="10" d="M602.222,45.25v118.772h77.988V45.25
		c0-21.514-17.452-38.992-39.042-38.992C619.696,6.258,602.222,23.735,602.222,45.25"/>
</g>
</svg>
