<?xml version="1.0" encoding="utf-8"?>
<!-- Generator: Adobe Illustrator 24.3.0, SVG Export Plug-In . SVG Version: 6.00 Build 0)  -->
<svg version="1.1" id="_x32_18ce321-9800-4e36-9dda-4c1d0ef9719a"
	 xmlns="http://www.w3.org/2000/svg" xmlns:xlink="http://www.w3.org/1999/xlink" x="0px" y="0px" viewBox="0 0 1083.2 826.3"
	 style="enable-background:new 0 0 1083.2 826.3;" xml:space="preserve">
<style type="text/css">
	.st0{opacity:0.1;fill:#FCB040;enable-background:new    ;}
	.st1{display:none;fill:#E9CCDB;}
	.st2{display:none;opacity:0.1;enable-background:new    ;}
	.st3{display:none;fill:#CAA4BC;}
	.st4{display:none;fill:#9C7AA5;}
	.st5{display:none;fill:#FCB040;}
	.st6{display:none;fill:url(#SVGID_1_);}
	.st7{display:none;fill:#FD6F8D;}
	.st8{display:none;fill:#FFBEC5;}
	.st9{display:none;opacity:5.000000e-02;enable-background:new    ;}
	.st10{display:none;fill:#504F88;}
	.st11{display:none;fill:#CBE3FF;}
	.st12{display:none;fill:#C8BFCA;}
	.st13{display:none;fill:#F1F1F2;}
	.st14{display:none;fill:#7E7A98;}
	.st15{display:none;fill:#FFE2DA;}
	.st16{display:none;opacity:0.1;}
	.st17{display:inline;}
	.st18{display:none;opacity:0.1;fill:#FCB040;enable-background:new    ;}
	.st19{fill:#FCB040;}
	.st20{opacity:0.1;enable-background:new    ;}
	.st21{fill:#FFD037;}
	.st22{fill:#65617D;}
	.st23{fill:#9D9CB5;}
	.st24{fill:#E09579;}
	.st25{fill:#91CCDC;}
	.st26{fill:#F39F80;}
	.st27{fill:#E09C38;}
	.st28{fill:#BA785F;}
	.st29{fill:#1E1C1A;}
	.st30{fill:#70A8B7;}
	.st31{fill:#434052;}
	.st32{fill:none;stroke:#488A9B;stroke-width:0.1;stroke-linecap:round;stroke-linejoin:round;}
	.st33{fill:none;stroke:#2D2A3A;stroke-width:0.1;stroke-linecap:round;stroke-linejoin:round;}
	.st34{fill:none;stroke:#1F0C06;stroke-width:0.1;stroke-linecap:round;stroke-linejoin:round;}
	.st35{fill:none;stroke:#D58568;stroke-width:0.1;stroke-linecap:round;stroke-linejoin:round;}
	.st36{fill:none;stroke:#8B5440;stroke-width:0.1;stroke-linecap:round;stroke-linejoin:round;}
	.st37{fill:#FBF0C2;}
</style>
<path class="st0" d="M977.3,568.9c-6.4,15.5-14.8,30.3-26.6,41.6c-14.3,13.8-32.2,21.4-51.2,25c-5.6,1-11.3,1.8-17,2.2
	c-15.1,1.2-30.5,0.4-45.3-1.2c-36.3-4-72-11.6-106.7-22.8c-5.7-1.8-11.4-3.8-17-5.8c-8.5-3.1-16.9-6.3-25.3-9.8
	c-34-14.2-69.2-32.3-105.3-26.7c-17.5,2.7-34,11-51.6,13.5c-12.3,1.6-24.9,0.7-36.8-2.6c-5.8-1.6-11.5-3.5-17-5.9
	c-12.4-5.4-24.3-12.1-35.3-20c-26.5-18.5-50.3-41.5-78.2-57.5c-30.8-17.7-64.8-26.1-99.5-32.4c-5.6-1-11.3-2-17-2.9
	c-16-2.6-32.1-5.1-48-8c-15.3-2.8-30.8-6.3-44.1-14.8c-9.5-6-17.5-14.4-24.8-23.3c-13.5-16.4-25.1-34.2-34.5-53.2c-0.5-1-1-2-1.5-3
	c-14.7-30.1-24.6-63-30.6-97c-0.2-1-0.3-2-0.5-3c-5.7-33.3-7.8-67.8-7.2-102l0.1-3c0.4-16.9,1.4-33.7,3-50.3
	c1.1-11.7,2.6-23.8,8.7-33.6c6-9.8,15.9-16.1,25.7-21.3C137,28,178.5,21.6,225,32.8c7.5,1.8,14.9,3.7,22.4,5.7
	c5.7,1.5,11.3,3.1,17,4.7c39.1,10.9,78.1,22.5,118.6,26c3.9,0.3,7.8,0.6,11.7,0.8c7.7,0.4,15.5,0.4,23.2,0.2
	c19.9-0.6,39.8-2.6,59.4-6.1c5.7-1,11.3-2.1,17-3.3c24.4-5.1,48.6-11.9,72.4-19.4c4.9-1.5,9.7-3.1,14.6-4.7
	c10.9-3.6,21.8-7.2,32.8-10.8c32.7-10.6,65.5-20.3,99.3-24.2c2.9-0.3,5.8-0.6,8.7-0.9c2.8-0.2,5.5-0.4,8.3-0.6
	c52.5-2.8,105.5,9.9,152,35.7c5.8,3.2,11.4,6.6,17,10.2c7.7,5,15.2,10.4,22.4,16.2c14.8,11.8,28.7,25.3,39.3,41.6
	c10.3,15.8,17,33.5,20.9,52.2c0.2,1,0.4,2,0.6,3c5.7,30.1,3.9,62.4-2.4,92.5c-0.7,3.2-1.4,6.3-2.1,9.5c-0.2,1-0.5,2-0.7,3
	c-6.8,28.5-15.6,56.9-13.3,86.1c0.3,3.7,0.8,7.3,1.3,10.9c0.2,1,0.3,2,0.5,3c4.5,23.8,14.6,46.3,20.7,69.9
	C998,478.9,994.7,526.2,977.3,568.9z"/>
<path class="st0" d="M899.4,159.3h83.2c-0.2-1-0.4-2-0.6-3h-82.6V46.4c-5.6-3.6-11.2-7-17-10.2v120.1h-152V0.4
	c-2.8,0.1-5.5,0.3-8.3,0.6s-5.8,0.5-8.7,0.9v154.4h-217l-0.5-0.6L614.2,26c-10.9,3.5-21.9,7.2-32.8,10.8l-86.9,95.4V60.8
	c-5.7,1.2-11.3,2.3-17,3.3v71.4L418,70.2c-7.7,0.2-15.5,0.1-23.2-0.2l78.2,85.8l-0.5,0.6h-208V43.2c-5.7-1.6-11.3-3.2-17-4.7v117.8
	H56.3l-0.1,3h191.2v102h-184c0.2,1,0.3,2,0.5,3h183.6v97h-153c0.5,1,1,2,1.5,3h151.5v99.3c5.7,0.9,11.3,1.9,17,2.9V364.3h213v212
	c5.5,2.4,11.2,4.3,17,5.9V364.3h219v243.6c5.6,2,11.3,4,17,5.8V364.3h152v273.4c5.7-0.4,11.4-1.2,17-2.2V364.3H966
	c-0.2-1-0.4-2-0.5-3h-66v-97h77.9c0.2-1,0.5-2,0.7-3h-78.6v-102H899.4z M882.4,159.3v102h-152v-102L882.4,159.3L882.4,159.3z
	 M713.4,261.3h-219v-102h219V261.3z M264.4,159.3h210l3,2.7v99.3h-213V159.3z M264.4,361.3v-97h213v97H264.4z M494.4,361.3v-97h219
	v97H494.4z M882.4,361.3h-152v-97h152V361.3z"/>
<path class="st0" d="M809.4,89H808c0.9-0.5,1.5-1.5,1.6-2.6l0,0c0-2.1-2.5-3.8-5.6-3.8h-39.5c-3.1,0-5.6,1.7-5.6,3.8l0,0
	c0,2.1,2.5,3.8,5.6,3.8h1.3c-0.9,0.5-1.6,1.5-1.6,2.6c0,1.8,1.8,3.2,4.3,3.6h-11.3c-3.1,0-5.6,1.7-5.6,3.8s2.5,3.8,5.6,3.8h39.4
	c3.1,0,5.6-1.7,5.6-3.8c0-1.8-1.8-3.3-4.3-3.6h11.3c3.1,0,5.6-1.7,5.6-3.8S812.5,89,809.4,89z"/>
<path class="st0" d="M382.2,124.8h-1.3c0.9-0.6,1.5-1.5,1.6-2.6l0,0c0-2.1-2.5-3.8-5.6-3.8h-39.4c-3.1,0-5.6,1.7-5.6,3.8l0,0
	c0,2.1,2.5,3.8,5.6,3.8h1.3c-0.9,0.6-1.5,1.5-1.6,2.6c0,1.8,1.8,3.3,4.3,3.6h-11.3c-3.1,0-5.6,1.7-5.6,3.8s2.5,3.8,5.6,3.8h39.5
	c3.1,0,5.6-1.7,5.6-3.8c0-1.8-1.9-3.2-4.3-3.6h11.4c3.1,0,5.6-1.7,5.6-3.8S385.3,124.8,382.2,124.8z"/>
<path class="st0" d="M869.8,277.9h-1.3c0.9-0.6,1.5-1.5,1.6-2.6l0,0c0-2.1-2.5-3.8-5.6-3.8h-39.4c-3.1,0-5.6,1.7-5.6,3.8l0,0
	c0,2.1,2.5,3.8,5.6,3.8h1.3c-0.9,0.6-1.5,1.5-1.6,2.6c0,1.8,1.8,3.2,4.3,3.6h-11.4c-3.1,0-5.6,1.7-5.6,3.8s2.5,3.8,5.6,3.8h39.4
	c3.1,0,5.6-1.7,5.6-3.8c0-1.8-1.8-3.3-4.3-3.6h11.3c3.1,0,5.6-1.7,5.6-3.8S872.9,277.9,869.8,277.9z"/>
<ellipse class="st0" cx="525.6" cy="728.4" rx="422.6" ry="46.7"/>
<path class="st1" d="M613.4,396.5v146.7c0,2.5-0.3,5-1,7.4c-3.3,12-14.2,20.3-26.7,20.3h-124c-15.3,0-27.7-12.4-27.7-27.6l0,0V396.5
	c0-15.3,12.4-27.7,27.6-27.7l0,0h124c12.4,0,23.3,8.3,26.7,20.3C613.1,391.5,613.4,394,613.4,396.5z"/>
<path class="st2" d="M436.1,396.5v146.7c0,2.5-0.3,5-1,7.4c-0.7-2.4-1-4.9-1-7.4V396.5c0-2.5,0.3-5,1-7.4
	C435.8,391.5,436.1,394,436.1,396.5z"/>
<path class="st1" d="M244.4,368.8h162c15.3,0,27.7,12.4,27.7,27.7v146.7c0,15.3-12.4,27.7-27.7,27.7h-162
	c-15.3,0-27.7-12.4-27.7-27.7V396.5C216.8,381.2,229.2,368.8,244.4,368.8z"/>
<path class="st2" d="M613.4,396.5v146.7c0,2.5-0.3,5-1,7.4c-0.7-2.4-1-4.9-1-7.4V396.5c0-2.5,0.3-5,1-7.4
	C613.1,391.5,613.4,394,613.4,396.5z"/>
<path class="st1" d="M641.1,368.8h162c15.3,0,27.7,12.4,27.7,27.7v146.7c0,15.3-12.4,27.7-27.7,27.7h-162
	c-15.3,0-27.7-12.4-27.7-27.7V396.5C613.4,381.2,625.8,368.8,641.1,368.8z"/>
<path class="st2" d="M423.1,585.8H224.6l-1-17.3c-1.1-19.5,24.1-35.7,55.5-35.7h135.1c10.5,0,18.7,5.7,17.3,12.2L423.1,585.8z"/>
<path class="st3" d="M423.1,587.8H224.6l-1-17.3c-1.1-19.5,24.1-35.7,55.5-35.7h135.1c10.5,0,18.7,5.7,17.3,12.2L423.1,587.8z"/>
<path class="st2" d="M622,586.9h198.5l1-17.3c1.1-19.5-24.1-35.7-55.5-35.7H630.9c-10.5,0-18.7,5.7-17.3,12.2L622,586.9z"/>
<path class="st3" d="M622,588.9h198.5l1-17.3c1.1-19.5-24.1-35.7-55.5-35.7H630.9c-10.5,0-18.7,5.7-17.3,12.2L622,588.9z"/>
<path class="st2" d="M457.5,533.9H592c15.8,0,28.6,12.8,28.6,28.6l0,0v17.8l0,0H426.1l0,0v-15C426.1,548,440.2,533.9,457.5,533.9z"
	/>
<path class="st3" d="M457.5,535.9H592c15.8,0,28.6,12.8,28.6,28.6l0,0v17.8l0,0H426.1l0,0v-15C426.1,550,440.2,535.9,457.5,535.9z"
	/>
<path class="st1" d="M238.1,553.8h161c14.9,0,27,12.1,27,27v36.5l0,0h-200l0,0v-51.5C226.2,559.2,231.5,553.8,238.1,553.8z"/>
<path class="st2" d="M446.1,553.8h153c14.9,0,27,12.1,27,27v36.5l0,0H420.6l0,0v-38C420.6,565.2,432,553.8,446.1,553.8z"/>
<path class="st2" d="M450.1,553.8h153c14.9,0,27,12.1,27,27v36.5l0,0H424.6l0,0v-38C424.6,565.2,436,553.8,450.1,553.8z"/>
<path class="st1" d="M448.1,553.8h153c14.9,0,27,12.1,27,27v36.5l0,0H422.6l0,0v-38C422.6,565.2,434,553.8,448.1,553.8z"/>
<path class="st2" d="M634.4,553.8h163.5c14.2,0,25.8,11.5,25.8,25.8v37.8l0,0h-200l0,0v-52.8C623.7,558.6,628.5,553.8,634.4,553.8
	L634.4,553.8z"/>
<path class="st1" d="M636.4,553.8h163.5c14.2,0,25.8,11.5,25.8,25.8v37.8l0,0h-200l0,0v-52.8C625.7,558.6,630.5,553.8,636.4,553.8
	L636.4,553.8z"/>
<path class="st4" d="M229.1,701.8V729c0,7.6-6.2,13.7-13.8,13.8h-9.5c-7.6,0-13.7-6.2-13.8-13.8v-27.3L229.1,701.8L229.1,701.8z"/>
<path class="st4" d="M858.6,701.8V729c0,7.6-6.2,13.7-13.8,13.8h-9.5c-7.6,0-13.7-6.2-13.8-13.8v-27.3L858.6,701.8L858.6,701.8z"/>
<path class="st1" d="M239.2,522.9c0-20.2-16.3-36.5-36.5-36.5s-36.5,16.3-36.5,36.5c0,17.4,12.3,32.4,29.4,35.8v147.5h41V536.4
	C238.3,532.1,239.2,527.6,239.2,522.9z"/>
<path class="st1" d="M810,522.9c0-20.2,16.3-36.5,36.5-36.5s36.5,16.3,36.5,36.5c0,17.4-12.3,32.4-29.4,35.8v147.5h-41V536.4
	C810.9,532.1,810,527.6,810,522.9z"/>
<path class="st2" d="M239.2,522.9c0-20.2-16.3-36.5-36.5-36.5s-36.5,16.3-36.5,36.5c0,17.4,12.3,32.4,29.4,35.8v147.5h41V536.4
	C238.3,532.1,239.2,527.6,239.2,522.9z"/>
<path class="st2" d="M810,522.9c0-20.2,16.3-36.5,36.5-36.5s36.5,16.3,36.5,36.5c0,17.4-12.3,32.4-29.4,35.8v147.5h-41V536.4
	C810.9,532.1,810,527.6,810,522.9z"/>
<rect x="216.8" y="680.8" class="st4" width="617.8" height="28.5"/>
<rect x="223.6" y="617.3" class="st2" width="607.2" height="65.5"/>
<rect x="223.6" y="615.3" class="st3" width="607.2" height="65.5"/>
<rect x="821.6" y="701.8" class="st2" width="36.9" height="9.5"/>
<path class="st1" d="M819,525.9c0-20.2,16.3-36.5,36.5-36.5s36.5,16.3,36.5,36.5c0,17.5-12.3,32.5-29.5,35.8v147.5h-41V539.4
	C819.9,535.1,819,530.5,819,525.9z"/>
<rect x="192.1" y="701.8" class="st2" width="36.5" height="9.5"/>
<path class="st1" d="M231.2,525.9c0-20.2-16.3-36.5-36.5-36.5s-36.5,16.3-36.5,36.5c0,17.4,12.3,32.4,29.4,35.8v147.5h41V539.4
	C230.3,535.1,231.2,530.6,231.2,525.9z"/>
<rect x="236.6" y="615.3" class="st2" width="576.2" height="1.8"/>
<circle class="st3" cx="192.1" cy="524.8" r="16.5"/>
<circle class="st3" cx="858.6" cy="524.8" r="16.5"/>
<path class="st2" d="M366.6,496.9c-15.7-3.9-48.9-45.4-48.9-45.4c-12.5-8.7-37.9-61.5-37.9-61.5s-9.7-4.5-18.2,15.9
	s-58,36.8-72.8,39.1c-8.4,1.3-7.5,5-5.2,8c1.6,1.9,3.6,3.4,5.9,4.2c6.3,2.4,25.9,25.9,25.9,25.9c18.2,12.3,38.5,69.2,45.2,84.1
	c3.7,8.3,7.9,4.3,10.8-0.8c5.7-9.9,13.5-18.5,22.9-25.1c25.4-17.9,52.7-25.3,54.6-25.3C351.2,515.8,382.3,500.8,366.6,496.9z"/>
<path class="st5" d="M157.6,448.2c-2.6-1-4.8-2.6-6.6-4.8c-2.6-3.4-3.8-7.5,5-9c15.4-2.5,66.5-20.8,74-43.9s18-17.9,18-17.9
	s30.5,59.6,44.2,69.5c0,0,37.9,46.8,54.7,51.3s-14.9,21.3-17.4,21.3c-2,0-30.2,8.3-55.7,28.4c-9.5,7.6-17.2,17.2-22.4,28.2
	c-2.8,5.8-6.9,10.3-11.4,0.9c-8.1-16.8-33.4-81-53.5-95C186.7,477.4,164.4,450.8,157.6,448.2z"/>
<path class="st2" d="M157.6,448.2c-2.6-1-4.8-2.6-6.6-4.8c-2.6-3.4-3.8-7.5,5-9c15.4-2.5,66.5-20.8,74-43.9s18-17.9,18-17.9
	s30.5,59.6,44.2,69.5c0,0,37.9,46.8,54.7,51.3s-14.9,21.3-17.4,21.3c-2,0-30.2,8.3-55.7,28.4c-9.5,7.6-17.2,17.2-22.4,28.2
	c-2.8,5.8-6.9,10.3-11.4,0.9c-8.1-16.8-33.4-81-53.5-95C186.7,477.4,164.4,450.8,157.6,448.2z"/>
<path class="st5" d="M168.5,446.9c-2.4-0.8-4.5-2.3-6.1-4.3c-2.4-3-3.4-6.8,4.8-8.3c14.6-2.6,63-20,70.4-41.2s17.3-16.6,17.3-16.6
	s27.8,54,40.7,62.9c0,0,35,42.2,50.8,46.1s-14.4,19.7-16.7,19.8c-1.9,0.1-28.6,8-53,26.8c-9.1,7-16.4,15.9-21.5,26.1
	c-2.7,5.3-6.6,9.5-10.7,1c-7.4-15.2-30.3-73.6-49-86C195.4,473.2,174.9,449.3,168.5,446.9z"/>
<path class="st2" d="M224.6,466c0,0-5.2,4.9,19.8-4.5S224.6,466,224.6,466z"/>
<path class="st2" d="M245.1,490.1c0,0,3.8,0.5,18.2-5.3C277.7,479,245.1,490.1,245.1,490.1z"/>
<path class="st2" d="M243.9,534.2c0,0,3.6,0,17.9-5.9S243.9,534.2,243.9,534.2z"/>
<path class="st2" d="M828.8,435.4v19.1c-4.1,8.5-8.2,19.4-8.2,19.4c-12,15.6-10.1,67.7-10.9,81.7c-0.4,7.8-5.5,5.9-10,2.7
	c-8.8-6.3-18.8-10.7-29.3-12.9c-29-6.3-56-3.7-57.7-3.2c-2.1,0.7-35.2-1.5-22.6-9.6s27.8-51.8,27.8-51.8
	c8.1-10.9,12.3-61.3,12.3-61.3s7-6.7,21.8,7C766.2,439.6,812.3,438,828.8,435.4z"/>
<path class="st5" d="M839.7,442c1.8-1.3,3.1-3.2,3.8-5.2c1-3.1,0.4-6.4-7.5-4.8c-14,2.8-64.1,5.3-78.9-8.5s-21.8-7-21.8-7
	s-4.2,50.4-12.3,61.3c0,0-15.2,43.7-27.8,51.8s20.4,10.3,22.6,9.6c1.7-0.6,28.7-3.2,57.7,3.2c10.6,2.3,20.5,6.7,29.3,12.9
	c4.5,3.2,9.6,5.1,10-2.7c0.8-14-1.1-66.1,10.9-81.7C825.6,470.9,834.9,445.9,839.7,442z"/>
<path class="st2" d="M839.7,442c1.8-1.3,3.1-3.2,3.8-5.2c1-3.1,0.4-6.4-7.5-4.8c-14,2.8-64.1,5.3-78.9-8.5s-21.8-7-21.8-7
	s-4.2,50.4-12.3,61.3c0,0-15.2,43.7-27.8,51.8s20.4,10.3,22.6,9.6c1.7-0.6,28.7-3.2,57.7,3.2c10.6,2.3,20.5,6.7,29.3,12.9
	c4.5,3.2,9.6,5.1,10-2.7c0.8-14-1.1-66.1,10.9-81.7C825.6,470.9,834.9,445.9,839.7,442z"/>
<path class="st5" d="M836.1,444.2c1.7-1.3,2.9-3,3.6-5c1-3,0.4-6-7.1-4.5c-13.3,2.7-60.9,5-74.9-8s-20.8-6.7-20.8-6.7
	s-4,47.8-11.7,58.2c0,0-14.4,41.5-26.4,49.2s19.4,9.8,21.4,9.1c1.6-0.5,27.2-3,54.8,3c10,2.1,19.5,6.3,27.8,12.3
	c4.2,3,9.1,4.8,9.5-2.6c0.8-13.3-1-62.7,10.3-77.6C822.7,471.6,831.5,447.9,836.1,444.2z"/>
<path class="st2" d="M800.9,471.8c0,0-3.5,2-20.3,7.8S798.1,477.3,800.9,471.8z"/>
<path class="st2" d="M799.1,489.4c0,0-10.5,8.6-15.8,9.3S796.1,497.8,799.1,489.4z"/>
<path class="st2" d="M807.5,529.2c0,0-10.5,8.6-15.8,9.3S804.5,537.6,807.5,529.2z"/>
<linearGradient id="SVGID_1_" gradientUnits="userSpaceOnUse" x1="454.4136" y1="557.8129" x2="454.4136" y2="277.5591" gradientTransform="matrix(1 0 0 1 -58.43 -2.84)">
	<stop  offset="0" style="stop-color:#808080;stop-opacity:0.25"/>
	<stop  offset="0.54" style="stop-color:#808080;stop-opacity:0.12"/>
	<stop  offset="1" style="stop-color:#808080;stop-opacity:0.1"/>
</linearGradient>
<path class="st6" d="M648.2,536.4c-1.5-0.1-3-0.3-4.4-0.6c-0.1-0.5-0.9-0.8-2.6-0.9h-0.3c-5.2-2-9.9-5.2-13.6-9.3
	c-4.8-5.3-18.5-11.9-18.5-11.9s-9.6-8.1-16-8.8s-23.9-18.4-38.9-34.8s-38.1-34.3-38.1-34.3l-9.8-10.9c0,0-11.4-8.1-14.1-12.7
	c-1.5-2.5-6-3.7-10.7-4.1c-5-2-13.3-2-17.1-1.2c-2.3,0.5-8.8,6.7-15.3,13.2l5.3-67.5c0.1-1.9-1.1-3.7-2.9-4.3l-17.7,8.6
	c-1.3,0.6-2.2,1.9-2.3,3.3l-4.8,72.5L405.7,448c-0.5-2.6-1.6-5-3.2-7c-11.7-15.3-29.9,13.7-36.7,25.8c-0.3,0-0.6,0.1-0.9,0.2
	c-0.1,0.4-0.3,0.7-0.6,0.9c-5.2-2.5-10.1-5.5-14.6-9c-0.3-0.4-0.6-0.7-0.8-1.2c-1-2.5-4.9-6.8-7.2-9.1c-6.9-7.8-17.2-18.2-18.7-18.8
	c-0.8-0.3-4.5-3.2-9-6.8c-0.7-1.5-1.5-3-2.3-4.4c-3.3-5.4-8.8-7-12.7-7.4c-3.6-2.8-6.4-4.9-7.1-5.3c-2.5-1.2-8.2-10.2-11-15.9
	s-22.9-6.5-22.9-6.5c-0.2-7.9,1.7-15.6,5.3-22.6c0.2-0.4,0.4-0.8,0.6-1.2c19.3-5.6,30.4-25.8,24.8-45.2c-0.2-0.6-0.4-1.2-0.5-1.7
	c2.6-0.9,5.7-0.5,8.4-1.5c3.6-1.3,6.9-4.2,7.5-8c0.2-2.5-0.3-5.1-1.7-7.2c-1.2-2.2-2.8-4.1-4.6-5.8c-4.9-5.2-12-8.4-19-10.8
	c-8.8-3-18.1-5.3-27.4-4.8s-18.7,4.1-24.7,11.2c-1.1,1.5-2.3,2.8-3.7,3.9c-2.1,1.5-4.9,1.7-7.5,1.6c-8.5-0.3-17.5-3.7-25.3-0.4
	c-9.5,4-12.8,15.5-14,25.7c-1.3,10.5-1.6,21.1-4.4,31.3c-2.8,10.2-8.5,20.1-17.8,25.2c-2.7,1.5-5.7,2.5-8.2,4.2s-4.7,4.4-4.7,7.5
	c0,4.2,3.8,7.3,5.7,11c1,1.9,1.6,4,2.6,5.9l0,0c0.1,0.2,0.2,0.4,0.3,0.5l0.1,0.1c0.1,0.1,0.2,0.3,0.3,0.4c0,0.1,0.1,0.1,0.1,0.1
	l0.3,0.4l0.1,0.1c0.1,0.2,0.3,0.3,0.4,0.5s0.4,0.3,0.5,0.5s0.3,0.3,0.5,0.5c4.3,4.3,11.9,1.9,17.4,4.5c1,0.5,2,1.2,2.9,2
	c1.8,2,3.3,4.5,5,6.7l0.1,0.1l0.5,0.7l0.3,0.3c0.1,0.1,0.3,0.3,0.4,0.4s0.5,0.5,0.7,0.7l0.4,0.4c0.2,0.2,0.4,0.4,0.6,0.6
	c4.5,4.5,11.2,6.1,17.6,6.5c3.5,0.2,7.1,0.2,10.3-1.2c1.5-0.6,2.8-1.5,4-2.6c1.9,1.5,3.9,2.8,6,3.9c5.3,3.4,11.1,6.6,16.6,10.3
	c5.7,5.5,12.7,13.2,12.8,18.8c0.1,7.5,10.4,22.1,15,28.3c0.2,1.2,0.3,1.9,0.3,1.9l21.1,31.1c0,0,1.6,4.8,9.8,5.1
	c-1.5,9.4-1,25.8,6.3,27.5c8.5,2,22.3,0.3,24.3,2.8s34.9-1.3,34.9-1.3s18.3-4.1,30.4-0.5c7.6,2.1,15.6,1.5,22.8-1.7
	c0,0,13.1-1.2,14.8-6.4c0.3-0.5,0.6-1,0.6-1.6c0.1-0.6,0.2-1.1,0.4-1.6c1.3-2.2,3.4-2.8,2.6-3.3c1-0.9,1.2-1.1-1.9-1.6
	c-2-0.3-4.1-0.2-6.1,0.2c0.7-0.7,1.5-1.5,2.2-2.4c0.5,0,0.9,0,1.4,0c4.6,0.3,4.3-1.7,8.6-2.8c5-1.2,10-1.7,16.5-2.5s13.2-4.5,16-8
	s14.5-1.5,17.7-7.5c2.8-5.1-7-9.5-12.3-9.1c-1.3-0.2-2.5,0-3.7,0.6c-3.1,2-14.1,2.9-17.9,3.2c-0.8-0.3-4.2-1.5-8.1-2.5
	c3.4-5.6,8.2-13.2,12.5-19.3c7.8-11.1,12.5-15.1,12.5-15.1c1.6-2.6,3.6-4.9,6-6.9c5.8,14.8,40.4,39.6,57,42.5
	c18.3,3.2,36.3,18.1,36.3,18.1s-1.7,7-1.7,10c0,1.3,3.3,2,7.5,2.3c2.8,2.1,16.4,1.9,21.6,1c5.8-1,22.3,3.2,35.8,4
	S656.4,536.7,648.2,536.4z"/>
<path class="st7" d="M316,423.1l-1.3,15.9l7.7,16.7l10.9,9.6l11.9,7l11,7.7l11-9.9c0,0-16.1-10.3-17.5-13.9s-8.7-10.6-8.7-10.6
	l-10.2-9.9l-8.3-7.6L316,423.1z"/>
<path class="st2" d="M316,423.1l-1.3,15.9l7.7,16.7l10.9,9.6l11.9,7l11,7.7l11-9.9c0,0-16.1-10.3-17.5-13.9s-8.7-10.6-8.7-10.6
	l-10.2-9.9l-8.3-7.6L316,423.1z"/>
<path class="st8" d="M266.1,361.4c-4,7.8-7.4,19.4-3.5,32.4c7.1,24-45.2-9.6-45.2-9.6s11.3-16.8,14.6-31.4c1.1-4.7,1.3-9.2,0-12.8
	c-5.2-14.6,41.2,10.7,41.2,10.7C270.3,354,268,357.6,266.1,361.4z"/>
<path class="st2" d="M259.4,383.5c0,0,19.7,0.7,22.4,6.3s8.3,14.4,10.7,15.6s28.2,22.4,30.4,23.4s24.4,24.1,24.4,26.5
	s22.9,16.6,37.5,18.8c14.6,2.2,37,28.5,43.6,27.5s20,3.9,20,3.9s15.1-0.7,18.8-3.2s17.3,2.4,14.1,8.3c-3.2,5.8-14.6,3.9-17.3,7.3
	s-9.3,7.1-15.6,7.8s-11.2,1.2-16.1,2.4s-3.6,3.7-11,2.4s-35.8-51.9-35.8-51.9l-31.6-14.4c0,0-11.9-9.7-12.9-12.9
	s-23.9-24.8-23.9-24.8l-30-21.9L259.4,383.5z"/>
<path class="st7" d="M260.9,383.5c0,0,19.7,0.7,22.4,6.3s8.3,14.4,10.7,15.6s28.2,22.4,30.4,23.4s24.3,24.1,24.3,26.5
	s22.9,16.6,37.5,18.8c14.6,2.2,37,28.5,43.6,27.5s20,3.9,20,3.9s15.1-0.7,18.8-3.2s17.3,2.4,14.1,8.3c-3.2,5.8-14.6,3.9-17.3,7.3
	s-9.3,7.1-15.6,7.8s-11.2,1.2-16.1,2.4s-3.6,3.7-11,2.4s-35.8-51.9-35.8-51.9l-31.6-14.4c0,0-11.9-9.7-12.9-12.9
	s-23.8-24.8-23.8-24.8l-30-21.9L260.9,383.5z"/>
<path class="st8" d="M363.4,492.3c0,0,29.5-26.1,31-28.1c0.7-1,10.1-8,19.3-15c11.5-8.6,22.3-18.1,32.3-28.4
	c6.7-6.9,13.8-13.8,16.3-14.4c5-1.1,17.7-0.6,20.3,3.7s13.8,12.3,13.8,12.3l9.6,10.7c0,0,22.6,17.5,37.2,33.6
	c14.6,16.1,31.8,33.4,38,34.1s15.6,8.6,15.6,8.6s13.3,6.5,18,11.7s12.5,10.2,20.5,10.5s-4.2,6.5-17.4,5.7s-29.2-4.9-34.9-3.9
	s-21.6,1.1-21.6-1.8s1.6-9.7,1.6-9.7s-17.5-14.6-35.3-17.6s-56.8-32.1-56.5-45.6c0,0-5.5-0.5-11.8,9.3c0,0-4.5,3.9-12.2,14.8
	s-16.7,26.5-16.7,26.5s-14.1,28.5-25.5,28.3s-23.5-1.5-23.5-1.5l-15.1-10.7l-1-13L363.4,492.3z"/>
<path class="st9" d="M363.4,492.3c0,0,29.5-26.1,31-28.1c0.7-1,10.1-8,19.3-15c11.5-8.6,22.3-18.1,32.3-28.4
	c6.7-6.9,13.8-13.8,16.3-14.4c5-1.1,17.7-0.6,20.3,3.7s13.8,12.3,13.8,12.3l9.6,10.7c0,0,22.6,17.5,37.2,33.6
	c14.6,16.1,31.8,33.4,38,34.1s15.6,8.6,15.6,8.6s13.3,6.5,18,11.7s12.5,10.2,20.5,10.5s-4.2,6.5-17.4,5.7s-29.2-4.9-34.9-3.9
	s-21.6,1.1-21.6-1.8s1.6-9.7,1.6-9.7s-17.5-14.6-35.3-17.6s-56.8-32.1-56.5-45.6c0,0-5.5-0.5-11.8,9.3c0,0-4.5,3.9-12.2,14.8
	s-16.7,26.5-16.7,26.5s-14.1,28.5-25.5,28.3s-23.5-1.5-23.5-1.5l-15.1-10.7l-1-13L363.4,492.3z"/>
<path class="st8" d="M370.2,493.8c0,0,29.5-26.1,31-28.1s38.1-28.9,38.1-28.9S464,409,469,407.9s17.7-0.6,20.3,3.7
	s13.8,12.3,13.8,12.3l9.6,10.7c0,0,22.6,17.5,37.2,33.6s31.8,33.4,38,34.1s15.6,8.6,15.6,8.6s13.3,6.5,18,11.7s12.5,10.2,20.5,10.5
	s-4.2,6.5-17.4,5.7s-29.2-4.9-34.9-3.9s-21.6,1.2-21.6-1.8s1.6-9.7,1.6-9.7s-17.5-14.6-35.4-17.7s-56.8-32.1-56.5-45.6
	c0,0-5.5-0.5-11.8,9.3c0,0-4.5,3.9-12.2,14.8c-7.6,10.9-16.7,26.5-16.7,26.5S423,539.2,411.6,539s-23.5-1.5-23.5-1.5L373,526.7
	l-1-13L370.2,493.8z"/>
<path class="st2" d="M465.3,509c-0.8,0.3-1.6,0.8-2.3,1.2l-5,2.7c4.4,0.7,8.8,0.9,13.2,0.4c2.4-0.3,5.9-2.3,3.1-4.8
	C472,506.5,467.6,508,465.3,509z"/>
<path class="st2" d="M442.5,512.4c2.7-0.5,5.6-1.1,8.2,0c0.9,0.4,1.7,0.9,2.5,1.5l4.3,3.1c-3.7,1.1-7.6,1.8-11.5,2.1
	c-0.5,0.1-1,0.1-1.5-0.1c-0.7-0.2-1.3-0.6-1.8-1.1C439.2,515.2,437,513.5,442.5,512.4z"/>
<path class="st2" d="M273.2,350.7c-2.8,3.2-5.2,6.8-7.1,10.7c-12.1,3.3-25.1,0-34.1-8.6c1.1-4.7,1.3-9.2,0-12.8
	C226.8,325.4,273.2,350.7,273.2,350.7z"/>
<circle class="st8" cx="256.6" cy="326" r="35.7"/>
<polygon class="st10" points="260.9,383.5 259,386.6 282.2,411.8 293.1,419.4 299.4,411 "/>
<path class="st10" d="M296.6,410.5c0,0,11.4-1.4,16.7,7.3c3.1,5.1,5.1,10.7,5.8,16.6c0,0,5.3,4.2,4.8,6.6c-0.4,1.5-1.3,2.8-2.6,3.7
	c0,0-10.2-5.8-10.3-6.1s-7.9-8.9-7.9-8.9l-6.5-6.8V410.5z"/>
<path class="st2" d="M227.7,375.7c0,0-17.9,1.4-19.6,13.9s-2.4,19.6,3.9,28.2s19.3,12.2,19.3,12.2s19.6,15.4,19.8,24.8
	s16.7,30.5,16.7,30.5s31.5,23.4,29.2,30.8c-2.3,7.5-2.9,28.7,5.3,30.7s21.8,0.3,23.7,2.8s34.1-1.3,34.1-1.3s17.9-4.1,29.7-0.5
	c7.4,2.1,15.2,1.5,22.2-1.6c0,0,13.8-1.3,14.6-6.8s7-5.3,1.1-6.3s-9.6,2.1-13.8,0.7s-7.8-6.3-17.5-6.2s-12,0.3-13,0.2
	s6.2-5.7,2.3-14.6c-3.9-8.9-11.3-15.9-11-20.9s-14.6-22.1-14.6-22.1s-7.1-10.4-16.4-13.8S317.1,432,317.1,432s-14.9-23.1-22.9-24.4
	s-34.5-25-34.5-25S237.3,373.3,227.7,375.7z"/>
<path class="st7" d="M227.2,376.7c0,0-17.9,1.5-19.7,13.9s-2.4,19.6,3.9,28.2s19.3,12.2,19.3,12.2s19.6,15.4,19.8,24.8
	s16.7,30.5,16.7,30.5s31.5,23.4,29.3,30.9c-2.3,7.5-2.9,28.7,5.3,30.7s21.8,0.3,23.7,2.8s34.1-1.3,34.1-1.3s17.9-4,29.7-0.5
	c7.4,2.1,15.2,1.5,22.2-1.7c0,0,13.8-1.3,14.6-6.8s7-5.4,1.1-6.3s-9.6,2.1-13.8,0.6s-7.8-6.3-17.5-6.2s-12,0.3-13,0.2
	s6.2-5.7,2.3-14.6c-3.9-8.9-11.4-15.9-11-20.9S359.7,471,359.7,471s-7.1-10.4-16.4-13.8s-26.6-24.4-26.6-24.4s-14.9-23.1-22.9-24.4
	s-34.5-25-34.5-25S236.8,374.3,227.2,376.7z"/>
<path class="st2" d="M343,517.2c-1.1,2.5-1.3,5.6,0.5,7.5c1.2,1,2.6,1.7,4.1,2.1c3,1.2,6,3.3,7,6.4c0.2,0.9,0.5,1.7,1,2.4
	c0.5,0.5,1.1,1,1.8,1.2c8.7,3.9,18.2,5.9,27.7,5.7c-3.2-3-7.2-5-11.5-5.8c-3.4-0.6-7.1-0.3-10.3-1.7s-5.3-4.2-7.4-6.8
	c-0.8-0.9-1.4-1.9-1.8-3c-0.8-2.4,0.5-5.1-0.2-7.5c-0.4-1.4-3.7-6.4-5.2-6.7C346.6,510.6,343.7,515.5,343,517.2z"/>
<path class="st2" d="M469,456.9c2-0.6,12.2-2.5,9.1-6.4C475.3,447,471.1,456.2,469,456.9z"/>
<path class="st11" d="M432.4,357.5l17.3-8.4l-6,86.7l-18.2-3.6l4.7-71.4C430.3,359.3,431.2,358.1,432.4,357.5z"/>
<path class="st12" d="M449.7,349.1L449.7,349.1l-6,86.7l0,0c1.4,0,2.5-1.1,2.6-2.4l6.3-80C452.7,351.4,451.5,349.6,449.7,349.1z"/>
<path class="st13" d="M425.6,431.7L370.8,472c-1.8,1.3-2.2,3.8-0.9,5.6c0.1,0.1,0.2,0.2,0.3,0.3l5.4,6.1l69.3-51.8L428,431
	C427.1,430.9,426.3,431.2,425.6,431.7z"/>
<polygon class="st14" points="424.2,435.8 387.3,461.6 392.4,467.2 435.5,436.5 "/>
<path class="st12" d="M375.5,484L375.5,484l69.3-51.8l0,0c1.1,2.4,0.4,5.2-1.7,6.8l-60.9,45.7C380.2,486.2,377.3,485.9,375.5,484z"
	/>
<path class="st8" d="M363.6,470.1c0,0,24.2-48.9,38.5-30.2s-21.9,39-21.9,39L363.6,470.1z"/>
<path class="st2" d="M234.6,389.7c-9.8,2.5-17.5,10-20.4,19.6c-1.6,5.4-1.5,11.3,3.9,15.2c12.2,9,29.4,15.3,37.3,30.1
	c5,9.7,8.4,20,10.2,30.8l20.6,30.4c0,0,3.1,9.7,24,2.1c20.9-7.6,32.3-11.5,32.3-11.5s16.2-8.7,23.4-11.8c1-0.5,2.1-0.9,3.2-1.1
	c2.4,0,19.8-14.9,20.6-16.9s-17.6-10.6-24.9-8.7c0,0-1,4.4-14.9,3.8s-19,5.2-19,5.2s-6.8-2.4-11.2-2.2s-12.3-4-18.3-3.5
	c0,0,3-6-0.9-11s-7.5-4.5-9.1-10.5c-0.9-3.4-4-14.1-6.5-22.8c-3.2-11.5-9.7-21.8-18.6-29.8c-5.8-5.1-12.7-9.3-19.7-9
	C242.6,388.1,238.5,388.7,234.6,389.7z"/>
<path class="st2" d="M235,387.3c-9.8,2.5-17.5,10-20.4,19.6c-1.6,5.4-1.5,11.3,3.9,15.2c12.2,9,29.4,15.3,37.3,30.1
	c5,9.7,8.4,20,10.2,30.8l20.6,30.4c0,0,3.1,9.7,24,2.1c20.9-7.6,32.3-11.5,32.3-11.5s16.2-8.7,23.4-11.8c1-0.5,2.1-0.9,3.2-1.1
	c2.4,0,19.8-14.9,20.6-16.9s-17.6-10.6-24.9-8.7c0,0-1,4.4-14.9,3.8s-19,5.2-19,5.2s-6.8-2.4-11.2-2.2s-12.3-4-18.3-3.5
	c0,0,3-6-0.9-11s-7.5-4.5-9.1-10.5c-0.9-3.4-4-14.1-6.5-22.8c-3.2-11.5-9.7-21.8-18.6-29.8c-5.8-5.1-12.7-9.3-19.7-9
	C243,385.7,239,386.2,235,387.3z"/>
<path class="st7" d="M234.6,388.3c-9.8,2.5-17.5,10-20.4,19.6c-1.6,5.4-1.5,11.3,3.9,15.2c12.2,9,29.4,15.3,37.3,30.1
	c5,9.7,8.4,20,10.2,30.8l20.6,30.4c0,0,3.1,9.7,24,2.1c20.9-7.6,32.3-11.5,32.3-11.5s16.2-8.7,23.4-11.8c1-0.5,2.1-0.9,3.2-1.1
	c2.4,0,19.8-14.9,20.6-16.9s-17.6-10.6-24.9-8.7c0,0-1,4.4-14.9,3.8s-19,5.2-19,5.2s-6.8-2.4-11.2-2.2s-12.3-4-18.3-3.5
	c0,0,3-6-0.9-11s-7.5-4.5-9.1-10.5c-0.9-3.4-4-14.1-6.5-22.8c-3.2-11.5-9.7-21.8-18.6-29.8c-5.8-5.1-12.7-9.3-19.7-9
	C242.6,386.7,238.5,387.2,234.6,388.3z"/>
<path class="st2" d="M298.6,312.9c3.5-1.2,6.8-4.1,7.3-7.8c0.2-2.5-0.4-5-1.7-7.1c-4.4-8-13.4-12.3-22-15.2s-17.6-5.2-26.7-4.7
	s-18.3,4-24.2,11c-1,1.4-2.3,2.7-3.6,3.8c-2.1,1.4-4.8,1.7-7.3,1.6c-8.3-0.3-17-3.6-24.7-0.4c-9.2,3.9-12.5,15.2-13.7,25.2
	c-1.2,10.2-1.5,20.7-4.3,30.6c-2.7,10-8.3,19.7-17.3,24.6c-2.6,1.4-5.5,2.5-8,4.1c-2.5,1.7-4.6,4.4-4.6,7.4c0,4.1,3.7,7.1,5.6,10.8
	c1.4,2.6,1.9,5.8,4.1,7.9c4.2,4.2,11.6,1.8,17,4.4c4.8,2.3,6.8,7.9,10.6,11.7c4.4,4.4,10.9,6,17.2,6.4c3.4,0.2,6.9,0.2,10.1-1.2
	c6.3-2.6,9.6-9.8,10-16.6s-1.6-13.4-3-20.1c-0.5-2.2-0.9-4.5,0-6.6c0.7-1.6,1.9-3,3.4-4c7.4-5.8,17.9-8.5,22.2-16.9
	c2.9-5.6,2-12.4,2.7-18.6c0.3-2.3,0.8-4.7,2.5-6.3c2.1-1.9,5.2-2,8-2.3c8.3-0.8,16.2-4.3,22.5-9.8c3.1-2.7,4.9-6,7.6-8.9
	S295,314.2,298.6,312.9z"/>
<path class="st15" d="M297.6,312c3.5-1.3,6.8-4.1,7.3-7.9c0.2-2.5-0.4-5-1.7-7.1c-4.4-8-13.4-12.3-22-15.3s-17.6-5.2-26.7-4.7
	s-18.3,4-24.2,11c-1,1.4-2.3,2.7-3.6,3.8c-2.1,1.4-4.8,1.7-7.3,1.6c-8.3-0.3-17-3.6-24.8-0.4c-9.2,3.9-12.5,15.2-13.7,25.2
	c-1.2,10.3-1.5,20.7-4.2,30.6c-2.7,10-8.3,19.7-17.3,24.6c-2.6,1.5-5.5,2.5-8,4.2s-4.6,4.4-4.6,7.4c0,4.1,3.7,7.1,5.6,10.8
	c1.4,2.6,1.9,5.8,4,7.9c4.2,4.2,11.6,1.8,17,4.4c4.8,2.3,6.9,7.9,10.6,11.7c4.4,4.4,10.9,6,17.2,6.4c3.4,0.2,6.9,0.2,10.1-1.2
	c6.3-2.6,9.6-9.8,10-16.6s-1.6-13.5-3-20.1c-0.5-2.2-0.9-4.5,0-6.6c0.7-1.6,1.9-3,3.4-4c7.4-5.8,17.9-8.5,22.1-16.9
	c2.9-5.6,2-12.4,2.7-18.6c0.3-2.3,0.8-4.7,2.5-6.3c2.1-1.9,5.2-2,8-2.3c8.3-0.8,16.2-4.3,22.5-9.8c3.1-2.7,4.9-6,7.6-8.9
	S294,313.2,297.6,312z"/>
<g class="st16">
	<path class="st17" d="M171,405.2c-5-2.4-11.8-0.5-16.1-3.6c0.4,0.8,0.9,1.5,1.5,2.1c4.2,4.2,11.6,1.8,17,4.4
		c1.2,0.6,2.3,1.4,3.3,2.4C175.2,408.3,173.3,406.5,171,405.2z"/>
	<path class="st17" d="M303.3,297c-1-1.8-2.2-3.5-3.7-4.9c0.5,0.6,0.9,1.3,1.3,2c1.3,2.1,1.9,4.6,1.7,7.1c-0.5,3.7-3.8,6.6-7.3,7.9
		s-8,0.1-10.6,3s-4.5,6.3-7.6,8.9c-6.3,5.5-14.2,8.9-22.5,9.8c-2.8,0.3-5.9,0.3-8,2.3c-1.7,1.6-2.3,4-2.5,6.3
		c-0.7,6.3,0.2,13-2.7,18.6c-4.2,8.4-14.8,11.1-22.2,16.9c-1.4,1-2.6,2.4-3.4,4c-0.8,2.1-0.4,4.4,0,6.6c1.4,6.6,3.4,13.3,3,20.1
		s-3.7,13.9-10,16.6c-3.1,1.3-6.7,1.4-10.1,1.2c-6.2-0.4-12.7-2-17.2-6.4l-0.1-0.1c0.8,1.1,1.6,2.1,2.5,3c4.4,4.4,10.9,6,17.2,6.4
		c3.4,0.2,6.9,0.2,10.1-1.2c6.3-2.6,9.6-9.8,10-16.6s-1.6-13.5-3-20.1c-0.5-2.2-0.9-4.5,0-6.6c0.7-1.6,1.9-3,3.4-4
		c7.4-5.8,17.9-8.5,22.1-16.9c2.9-5.6,2-12.4,2.7-18.6c0.3-2.3,0.8-4.7,2.5-6.3c2.1-1.9,5.2-2,8-2.3c8.3-0.8,16.2-4.3,22.5-9.8
		c3.1-2.7,4.9-6,7.6-8.9s7.1-1.7,10.7-3s6.8-4.1,7.3-7.9C305.2,301.6,304.6,299.1,303.3,297z"/>
</g>
<ellipse class="st18" cx="1008.5" cy="775" rx="74.6" ry="11.5"/>
<ellipse class="st18" cx="106.7" cy="820" rx="41.4" ry="6.3"/>
<path class="st19" d="M93.4,558.1c0,0,7.1,9.3-3.3,23.4s-19,26-15.6,34.8c0,0,15.7-26.2,28.5-26.5S107.6,573.8,93.4,558.1z"/>
<path class="st20" d="M93.4,558.1c0.6,0.9,1.1,1.9,1.5,2.9c12.5,14.7,19.1,28.4,7.1,28.7C90.8,590,77.4,610,74.2,615.1
	c0.1,0.4,0.2,0.8,0.4,1.2c0,0,15.7-26.2,28.5-26.5S107.6,573.8,93.4,558.1z"/>
<path class="st21" d="M106.7,569.9c0,3.3-0.4,5.9-0.8,5.9s-0.8-2.7-0.8-5.9s0.5-1.7,0.9-1.7S106.7,566.7,106.7,569.9z"/>
<path class="st21" d="M111.2,573.9c-2.9,1.6-5.4,2.5-5.6,2.1s1.9-2,4.8-3.6s1.7-0.4,2,0S114.1,572.3,111.2,573.9z"/>
<path class="st19" d="M55.8,558.1c0,0-7.1,9.3,3.3,23.4s19,26,15.6,34.8c0,0-15.7-26.2-28.5-26.5S41.7,573.8,55.8,558.1z"/>
<path class="st20" d="M55.8,558.1c-0.6,0.9-1.1,1.9-1.5,2.9c-12.5,14.7-19.2,28.4-7.1,28.7C58.3,590,71.8,610,75,615.1
	c-0.1,0.4-0.2,0.8-0.4,1.2c0,0-15.7-26.2-28.5-26.5S41.7,573.8,55.8,558.1z"/>
<path class="st21" d="M42.5,569.9c0,3.3,0.4,5.9,0.8,5.9s0.8-2.7,0.8-5.9s-0.5-1.7-0.9-1.7S42.5,566.7,42.5,569.9z"/>
<path class="st21" d="M37.9,573.9c2.9,1.6,5.4,2.5,5.6,2.1s-1.9-2-4.8-3.6s-1.7-0.4-2,0S35.1,572.3,37.9,573.9z"/>
<ellipse class="st0" cx="74.6" cy="676.2" rx="74.6" ry="11.5"/>
<path class="st22" d="M113,603.7l-0.4,2.9l-0.5,4.1l-0.2,1.7l-0.5,4.1l-0.2,1.7l-0.5,4.1l-5.7,46.8c-0.5,4.2-7.3,7.4-15.6,7.4H59.8
	c-8.2,0-15-3.3-15.6-7.4l-5.7-46.8l-0.5-4.1l-0.2-1.7l-0.5-4.1l-0.2-1.7l-0.5-4.1l-0.4-2.9c-0.3-2.4,3.4-4.4,8.1-4.4H105
	C109.6,599.3,113.3,601.3,113,603.7z"/>
<polygon class="st23" points="112.6,606.6 112.1,610.7 37.1,610.7 36.6,606.6 "/>
<polygon class="st23" points="111.9,612.4 111.4,616.5 37.8,616.5 37.3,612.4 "/>
<polygon class="st23" points="111.2,618.2 110.7,622.3 38.5,622.3 38,618.2 "/>
<g id="Layer_2_2_">
	<g>
		<g>
			<g>
				<path class="st24" d="M655.9,445.7c0.4-0.4,1.1-0.6,2.1-0.7l1.6-2.2c0.2,0,0.4,0,0.5,0c0.5-0.1,0.8-0.3,1-0.7
					c0.1-0.2,0.2-0.6,0.1-0.9c0.2,0,0.1-0.1-0.3-0.3h0c0,0-0.1,0-0.1,0.1l0-0.1c0,0,0,0,0,0.1c0,0-0.1,0-0.1,0c0,0,0,0.1,0,0.1
					c0,0,0,0.1,0,0.1c-0.6-0.4-1.2-0.8-1.7-1c0.4,0.1,0.7,0.2,0.9,0.3c-0.3-0.2-0.7-0.4-1-0.7c-19.1-11.9-35.4-21.9-48.7-30.2
					c-0.9-1.4-1.7-2.6-2.3-3.6l-13-18l-1.7-3.2l-2.2-4.1c-3.7,0.9-7.2,2.1-10.7,3.8c-3.8,1.8-7.3,3.9-10.5,6.4c0,0,0.1,0,0.1,0
					c0.1,0,0.1,0,0.2-0.1c0.4-0.1,0.8-0.2,1.3-0.4c-0.5,0.1-0.9,0.3-1.3,0.4c0,0-0.1,0-0.1,0c0,0-0.1,0-0.1,0
					c-0.2,0.1-0.4,0.2-0.6,0.3c-0.5,0.4-1,0.8-1.6,1.3c-0.5,0.4-0.9,0.8-1.4,1.2c-0.3,0.3-0.6,0.6-0.9,0.8c0,0.1-0.2,0.2-0.4,0.4
					c0.4,0.6,0.7,1.1,1,1.7l0.3-0.1c0.4,0.8,0.7,1.6,1.1,2.4c1.9,3.1,7.3,11.1,16.3,24l2.4,4.6c12.6,10.1,26.5,18.3,41.7,24.6
					c3.9,1.6,7.8,3.1,11.7,4.4c0.6,0.2,1.2,0.4,1.7,0.6c1.3,0.4,2.7,0.8,4,1.2l0.4-1.6l1.6-0.5l4.4-6l1.6-0.5
					C654.1,447.9,654.9,446.6,655.9,445.7 M646.6,452.7c-0.1,0-0.3,0.1-0.6,0.3C646.2,452.8,646.4,452.7,646.6,452.7
					C646.6,452.6,646.6,452.6,646.6,452.7 M545.7,263.8c-0.1-0.9-0.4-1.4-0.9-1.7c-0.2-0.2-0.5-0.3-0.8-0.3c-0.2,0-0.4,0-0.6,0
					c-0.1,0-0.3,0-0.4,0.1c-1.6,0.3-3.2,1.5-4.8,3.6c-0.8,1.2-1.4,2-1.8,2.6c-0.5,0.7-1,1.4-1.4,1.9c0.2-2.7,0.3-5.1,0.4-7
					c0.1-1.1,0.2-2.1,0.3-3c0-0.7,0-1.4,0-2c-0.1-2,0.1-11.2,0.6-27.6c-11.8,9.6-26.5,6.7-44.2-8.6l-0.2,17.3
					c-4.6,3.3-6.9,5.2-7,5.7c-0.2,0.9-0.4,1.7-0.6,2.4c-1.7,7.2-2.4,10.1-2.1,8.5c0.5-2.6,1.2-5.3,1.9-8.1c-0.2,0.4-0.4,0.7-0.5,1.1
					c-0.1,0.4-0.3,0.9-0.4,1.4c-0.4,1.4-0.9,3.2-1.6,5.6c0,0.7-0.1,1.1-0.1,1.2c-0.1,1-0.2,1.9-0.3,2.7c-0.1,0.8-0.3,2.1-0.7,3.7
					c-0.1,0.5-0.1,1-0.1,1.5c0.1,0.4,0.1,0.7,0,0.9c-0.1,0.1-0.1,0.1-0.2,0.2c0,0,0,0-0.1,0c-0.1,0.3-0.1,0.5-0.2,0.8c0,0,0,0,0,0
					c-0.2-0.3-0.1-0.6,0.2-0.8c0.1-0.3,0.1-0.5,0.2-0.8c0-0.1,0-0.2,0-0.3c-0.1-0.7-0.3-1.6-0.7-2.9c-0.8-2.4-1.7-4.6-2.9-6.5
					c-0.6-0.5-1.2-0.8-1.7-1c-0.5-0.2-1-0.3-1.5-0.4c0,0-0.1,0-0.1,0c-0.6,0-1.1,0.1-1.5,0.4c-0.3,0.2-0.7,0.5-1,0.8
					c-0.2,0.9-0.3,2.1-0.3,3.5c0,4.9,0.4,9.6,1.4,14.1c0.4,2.3,1,4.2,1.7,5.7c0.2,0.3,0.3,0.7,0.5,1c0,0,0.1,0,0.1,0
					c0.6,0.2,1,0.4,1.3,0.4c0.4,0.1,0.9-0.1,1.5-0.3c0.4-0.2,0.8-0.5,1.2-0.8c0.1-0.1,0.2-0.2,0.3-0.3c0.1-0.1,0.1-0.2,0.2-0.2
					c0,0.2,0,0.3,0.1,0.5c0,0.2,0,0.4,0.1,0.7c0.1,1.7,0.4,3.5,0.7,5.2c0,0,0,0.1,0,0.1c0.2,1,0.4,1.9,0.7,2.9c0,0.1,0,0.2,0.1,0.3
					c0,0.1,0.1,0.3,0.1,0.4c0.4,1.3,0.8,2.6,1.2,3.9c0.1,0.2,0.1,0.4,0.2,0.6c0,0.1,0.4,0.7,1.2,1.6c0.1,0.1,0.1,0.2,0.2,0.2
					c0.4,0.6,1,1.3,1.7,2.2c1.8,2.4,4.4,5.7,7.9,10.1c7.4,0.4,13.5,1.4,18.3,3c0.1,0,0.2,0,0.2,0.1c1.1,0.1,4.3-2.1,9.7-6.5
					c2.4-1.9,5.1-4.3,8.3-7c0-0.1,0-0.1,0.1-0.1c1.5-2.3,2.5-5,2.9-8.1c0.1-0.5,0.2-0.9,0.4-1.4c0,0,0,0,0.1,0
					c0.8,0.3,1.7,0.2,2.7-0.1c0.9-0.3,1.7-0.7,2.4-1.4c0.6-0.5,1.2-1.2,1.8-2.1c0.4-0.6,0.8-1.4,1.3-2.4c1.7-3.3,3-6.1,3.7-8.4
					C545.9,269.5,546.1,266.5,545.7,263.8 M538.3,733.9c0.4-0.7,0.5-1.5,0.1-2.5c-0.7-2-2.7-3.8-5.9-5.3c-1.2-0.5-2.2-1-2.9-1.3
					c-0.3-0.2-0.6-0.3-0.8-0.4c-1-0.6-1.9-1.2-2.6-1.8c-0.1-0.1-0.2-0.2-0.3-0.3c-0.1-0.1-0.1-0.1-0.2-0.1c-0.1-0.1-0.1-0.1-0.2-0.2
					c-1.5-1.4-3.5-3.8-6-7.3c-2.6-3.7-4.5-7.1-5.7-10.3c-0.2-0.5-0.3-1-0.5-1.4c0.1-0.8,0.2-1.6,0.3-2.3c0.8-5.1,2.3-9.5,4.4-13.2
					c-2.1-1.4-4.5-2.7-7.2-3.9c-5.7-2.6-11.8-4.6-18-5.8l0,0c0,0,0,0-0.1,0c-2.5,2.6-4.7,4.8-6.5,6.5c-0.8,0.8-1.6,1.5-2.5,2.2
					c-0.1,0.1-0.2,0.2-0.3,0.3c0,0,0,0-0.1,0c-2.1,1.8-4.2,3.5-6.3,5c-2.3,1.7-4.7,3.1-7,4.4c-1.3,1-2,1.5-2.1,1.7
					c-0.1,0.1-0.1,0.2-0.2,0.2c-0.3,0.5-0.4,1.1-0.4,1.8v0.1c0,0.3,0.1,0.7,0.2,1c0.2,0.7,0.6,1.4,1.1,2.2c0.7,1.2,1.8,2.5,3.2,3.9
					c3.3,1.7,7.1,4,11.2,6.9c3,2.1,7.4,5.2,13.4,9.3c0.2,0.1,0.4,0.3,0.6,0.4c9.6,6.2,18.4,9.4,26.4,9.5c1.7,0.9,3.4,1.7,5.2,2.4
					c3.2,0.5,5.9,0.3,8-0.5C537.5,734.7,538.1,734.4,538.3,733.9 M540.7,699.5c-0.9-0.9-1.7-1.5-2.4-1.9c-1.9,0.7-3.8,1.3-5.8,1.6
					l-3-1.8c-0.4,0.6-0.8,1.3-1.2,1.9c-0.1,0.1-0.1,0.2-0.2,0.4c0,0,0,0-0.1,0c-0.1,0-0.1,0-0.2,0c0,0.1,0,0.2,0.1,0.2
					c-0.8,1.2-1.5,2.4-2.3,3.7c-0.1,0-0.1,0-0.1,0.1c-0.4,0.1-0.6,0.3-0.8,0.4c-2,0.8-3.3,1.3-3.8,1.4c-1.1,0.3-2.1,0.5-3,0.6
					c-0.2,0-1.6-0.6-4.2-1.7c1.2,3.2,3.1,6.7,5.7,10.3c2.5,3.5,4.5,5.9,6,7.3c0.1,0.1,0.3,0.2,0.4,0.3c0.1,0.1,0.2,0.2,0.3,0.2
					c0,0,0,0,0.1,0c0.1,0,0.5,0,1.1,0c0.5,0,1.1,0,1.9-0.1l0.8,0.1c0.4,0,0.8,0,1.3,0c6.9-0.2,12.9-0.9,18-2.1
					c2.4-0.6,4.6-1.6,6.9-3c3-3.6,2.5-6.2-1.2-7.9c-3.9-1.8-7.3-4.1-10.3-6.9C543,701.4,541.7,700.4,540.7,699.5 M511.5,312.9
					c-3.1-0.1-5.7-0.3-7.7-0.4c-5.4-0.4-10-1.3-13.9-2.8c-1.5-3.9-3.2-7.8-4.9-11.6c-0.2,1.8-0.5,3.4-0.9,5c0,0,0.1,0.1,0.1,0.1
					c-0.1,0.1-0.2,0.2-0.2,0.2c-0.2,0.8-0.4,1.7-0.7,2.4c-0.1,0.2-0.1,0.4-0.2,0.6c-0.2,0.6-0.5,1.3-0.7,1.9c-0.1,0.3-0.3,0.7-0.5,1
					c1.4,1.9,4.1,5.4,8,10.3c0.5,0.7,5.2,11.9,14,33.8c2.4-4,4.4-9.5,5.8-16.4c1.6-8.1,6.4-15.5,14.3-22.2c-0.4-0.7-0.8-1.5-1.2-2.5
					c-0.3-0.9-0.9-2.9-1.7-5.8c0.5,1.5,0.8,2,0.7,1.7c-0.1-0.4-0.1-0.8-0.2-1.2c-0.1-0.9-0.2-1.8-0.2-2.6c-2.9,2.4-5.7,4.9-8.4,7.4
					c-0.4,0.3-0.7,0.7-1.1,1C511.8,312.9,511.7,312.9,511.5,312.9z"/>
				<path class="st25" d="M576.1,342.2c1.2,1.9,2.5,4,3.9,6.6c1.2,2.2,2.4,4.1,3.4,5.7c1.5,2.5,2.8,4.5,3.9,5.9
					c1.9,2.5,4.8,7.2,8.9,14c0.1,0.1,0.5,0.7,1,1.7c0.1,0.1,0.1,0.2,0.2,0.3c0.2,0.3,0.4,0.6,0.5,0.9c0,0,0,0-0.1,0
					c0.6,1.2,1,1.7,0.9,1.8c-0.5,0.9-1.2,1.8-2.1,2.7c-0.7,0.7-1.5,1.4-2.4,2.1c-0.3,0.3-0.7,0.6-1.1,0.8l1.7,3.2l13,18
					c0.6,1,1.4,2.2,2.3,3.6c13.3,8.3,29.6,18.3,48.7,30.2c0.3,0.2,0.7,0.4,1,0.7c0.3,0.1,0.6,0.3,0.8,0.6c0-0.1,0-0.1,0-0.1
					c0,0,0.1,0,0.1,0c0,0,0,0,0-0.1l0,0.1c0.1,0,0.1,0,0.1-0.1h0c3.3-45.5,4.2-73.5,2.7-83.9c-1.5-11.2-4.4-16.5-8.6-15.9
					c-5.1,0.1-10.8,0.1-17,0.2c-13.4,0.2-29.4,0.4-48,0.6l0,0C584.1,341.5,579.4,341.6,576.1,342.2 M600.8,361.1L600.8,361.1
					c0.1,0.1,0.2,0.2,0.2,0.2c0,0,0,0.1,0.1,0.1c0,0,0,0,0,0c0,0,0,0,0,0c0,0,0,0,0.1,0.1h0c0,0,0,0-0.1,0c0,0-0.1-0.1-0.1-0.1
					C600.9,361.2,600.8,361.1,600.8,361.1 M603.4,364.5C603.4,364.5,603.4,364.5,603.4,364.5C603.3,364.5,603.3,364.5,603.4,364.5
					L603.4,364.5 M632.8,422.1c0,0,0-0.1-0.1-0.1c-0.1-0.2-0.1-0.4-0.2-0.5c0.1,0.1,0.1,0.1,0.2,0.2
					C632.8,421.8,632.8,422,632.8,422.1 M609.9,373.3L609.9,373.3c-0.1-0.1-0.2-0.2-0.4-0.5l0-0.1c0,0,0,0,0,0.1
					C609.7,373.1,609.8,373.2,609.9,373.3 M607.4,373.1C607.4,373.1,607.4,373.2,607.4,373.1c0.1,0.1,0.1,0.2,0.1,0.2
					C607.5,373.3,607.4,373.3,607.4,373.1c-0.1-0.2-0.3-0.5-0.4-0.8C607.1,372.6,607.3,372.9,607.4,373.1 M613.6,375.5
					c-0.1-0.1-0.2-0.2-0.3-0.2c0,0,0.1,0,0.1,0C613.5,375.4,613.6,375.4,613.6,375.5 M639.5,456.6c0.1-0.1,0.2-0.1,0.3-0.2
					c-3.9-1.3-7.8-2.8-11.7-4.4c-15.2-6.3-29.1-14.5-41.7-24.6l-2.4-4.6c-9-12.9-14.4-20.9-16.3-24c-0.4-0.8-0.7-1.6-1.1-2.4
					l-0.3,0.1l-3.7,1.5l-0.1-0.2l-6.6-12.2l-4.2-7.8c0.4,11.8,1.7,23.5,3.6,35.3l-0.7,0.1c0.1,0.5,0.2,1.1,0.4,1.6
					c0.1,1.3,0.1,2,0.2,2.2c0,0.1,0.1,0.2,0.1,0.2c0.1,0.4,0.3,0.7,0.4,1.1c0.4,0.9,0.7,1.7,1,2.5c0.1,0.3,0.3,0.6,0.4,0.9
					c3.4,13.2,6.5,24.7,9.2,34.5c2.1,7.8,4,14.5,5.6,20.1c0,0.1,0.1,0.2,0.1,0.3c-0.1-0.1-0.2-0.2-0.2-0.2c0,0,0,0,0-0.1
					c0,0,0,0,0,0l-0.1,0.1l-3,3.4c3.1,3.2,7.7,7.8,13.7,13.7c0.7,0.7,2.4,2.5,5.3,5.5c0.9,1,1.7,1.8,2.4,2.5c-0.1,0,0,0.2,0.1,0.4
					c3.4,3,6.6,6.2,9.8,9.4c1.4,1.4,2.8,2.9,4.2,4.4c0.4,0.8,0.8,1.6,1.2,2.5c0,0.1,0.1,0.3,0.2,0.4l1-0.4h0.7h16.8
					c0.1-2.1,0.1-4.1,0.2-6.1c0.3-11.4,0.6-20.8,1-28.2c0.1-1.5,0.1-2.9,0.2-4.2C626.2,470.1,631,462.3,639.5,456.6 M378.7,343.5
					c-2.7,0.1-5.1,0.2-7.2,0.2c-0.7,17.9-1.1,43.1-1.2,75.8c0,9.6,0,19.7,0,30.6c4.4-0.1,8.9,0.1,13.6,0.7c5,0.7,9.3,1.7,13.2,3.2
					c2.8,1.1,5.3,2.4,7.5,3.9c2.6,1.8,4.9,4.1,6.8,6.7c1.1,1.5,1.8,19.4,2.1,53.7h24.1c-1-6.9-0.9-14.6,0.4-23.4c0,0,0,0,0,0v0
					c0,0,0,0-0.1,0h-0.1h0l-0.3,0.1c-0.5,0.6-1.7,0-3.7-1.9c-1.9-1.9,0.2-13.6,6.4-35.1c5.2-18.2,7.7-38.6,7.4-60.9
					c0-0.9,0-1.7-0.1-2.6c-1,0.1-2.3,0-4-0.3c-6.7-1.3-18.7-6.1-36-14.5c-0.1-0.2-0.1-0.4-0.2-0.7l-0.2,0.2c0.1-0.1,0.1-0.2,0.2-0.3
					c-0.1-0.4,0-0.8,0-1.1c0,0-0.1,0-0.1,0c0.1-0.1,0.1-0.2,0.2-0.3c0-0.1,0-0.1,0.1-0.1c0-0.1,0.1-0.2,0.1-0.3
					c0.1-0.3,0.2-0.5,0.3-0.7c0,0,0,0,0,0c0,0,0-0.1,0-0.1l0,0v0c5-11.1,10.3-22.5,16-34.2C404.2,342.6,389,343.1,378.7,343.5
					 M408.3,380.7c0,0.1,0,0.1-0.1,0.2c-0.1-0.3-0.2-0.6-0.3-0.8L408.3,380.7 M397.1,453.9c-3.8-1.4-8.2-2.5-13.2-3.2
					c-4.7-0.6-9.2-0.9-13.6-0.7c-3.9,0.1-11.8,2.1-23.5,6c-11.7,3.9-21.1,10.6-28.2,19.9c-0.7,1.2-1.4,2.4-2,3.7
					c-2,4.3-3.4,8.9-4,13.6c-0.7,4.9-0.5,9.6,0.4,14.2c1,4.7,2.8,9.1,5.4,13.2c2.6,4.1,6,7.5,10,10.2c1.2,44.2,2,88.9,2.2,134.3
					h151.5c2-3.3,3.6-5.7,4.6-7.4c0.8-1.4,1.7-2.7,2.5-3.9c-1.8-9.5-5.5-20.9-11.1-34.2c-3.5-8.1-6.2-14.1-7.9-18.2
					c-0.7-1.7-3.8-15.6-9.2-41.6c-0.1-0.3-0.1-0.5-0.2-0.8c-0.6-2.8-1.2-5.7-1.8-8.7c-0.4-0.1-0.9-0.3-1.4-0.4
					c-0.1,0-0.2-0.1-0.3-0.1c-0.7-0.2-1.2-0.3-1.7-0.5c0,0,0,0-0.1,0c-0.5-0.2-0.9-0.3-1.2-0.4c-1.3-0.5-2.4-1-3.3-1.7
					c-0.9-0.7-1.6-1.5-2.1-2.4c-0.2-0.4-0.4-0.8-0.5-1.2h-35c0-9.2,0-17.6-0.1-25.2c-0.2-34.3-0.9-52.2-2.1-53.7
					c-1.9-2.6-4.2-4.9-6.8-6.7C402.5,456.3,400,455,397.1,453.9 M467.6,701c-0.1-0.4-0.2-0.7-0.2-1v1C467.5,701,467.6,701,467.6,701
					 M477,673.5h-1.6v2.5C476,675.2,476.5,674.4,477,673.5 M541.4,673.5v-2l-0.3,0.1L541.4,673.5 M535.9,543.4h-1.2l-19.9,0.2
					l0.3,0.6c2.9,8.7,5.5,22.5,7.9,41.6c3.9-9.2,8.4-19.7,13.4-31.4c0.2-0.5,0.4-0.9,0.6-1.4c0-0.3,0.1-0.6,0.1-0.9
					c0-0.1,0-0.1,0.1-0.2c0.3-0.8,0.5-1.7,0.4-2.6c0-0.9-0.3-1.7-0.8-2.4c-0.3-0.3-0.5-0.6-0.7-0.8c-0.3-0.3-0.5-0.6-0.5-0.8
					C535.4,544.9,535.5,544.3,535.9,543.4 M555.5,346.7c0-1.4,0.1-2.9,0.1-4.4c0-0.3,0-0.7,0-1c0,0.3,0,0.7,0,1
					C555.5,343.8,555.5,345.3,555.5,346.7L555.5,346.7c-0.2,10.4-0.3,19.6-0.5,27.7c0,0,0,0.1,0,0.1l0,0h0
					C555.1,366.6,555.3,357.3,555.5,346.7 M721.6,479.6c-0.6-1.2-1.2-2.4-2-3.7c-1.9-2.5-4-4.8-6.2-6.9c-4.5-5-10.1-9.4-16.9-13.2
					c-6.8-3.9-13.7-6.4-20.6-7.6c-6.1-1.1-11.1-3.1-14.7-6.1c-0.2,0.4-0.5,0.6-1,0.7c-0.2,0-0.4,0-0.5,0L658,445
					c-1,0.1-1.6,0.3-2.1,0.7c-1.1,1-1.9,2.2-2.3,3.7l-1.6,0.5l-4.4,6l-1.6,0.5l-0.4,1.6c-1.3-0.4-2.7-0.8-4-1.2
					c-0.6-0.2-1.1-0.4-1.7-0.6c-0.1,0.1-0.2,0.1-0.3,0.2c-8.6,5.7-13.4,13.5-14.4,23.3c-0.1,1.3-0.2,2.7-0.2,4.2
					c-0.4,7.3-0.7,16.7-1,28.2c-0.1,2-0.1,4-0.2,6.1c-0.2,7.6-0.4,16-0.5,25.2h-13.5h-1.6c-0.5,0.7-1.2,1.5-1.9,2.2l-3.3,3.9
					c-19.2,48.6-29.5,73.9-31.1,75.8c-3.6,4.4-6.4,8.1-8.3,11.3c-1.4,2.3-3,5.4-4.9,9.4c-2.6,5.5-4.1,8.7-4.6,9.6
					c-1.9,3.7-3.8,6.8-5.9,9.4h159.4c0.3-50.2,1-95,2.1-134.3c4-2.7,7.4-6.1,10-10.2c2.6-4.1,4.4-8.4,5.4-13.2
					c1-4.6,1.1-9.3,0.4-14.2C725,488.5,723.7,483.9,721.6,479.6z"/>
				<path class="st19" d="M613.4,375.3c0.1,0.1,0.2,0.2,0.3,0.2c-0.1-0.1-0.1-0.2-0.2-0.2C613.4,375.3,613.4,375.3,613.4,375.3
					 M609.9,373.3L609.9,373.3c0-0.1-0.1-0.2-0.3-0.5c0,0,0,0,0-0.1l0,0.1C609.7,373.1,609.8,373.2,609.9,373.3 M603.4,364.5
					C603.4,364.5,603.4,364.5,603.4,364.5l-0.1,0C603.3,364.5,603.3,364.5,603.4,364.5 M600.9,361.1L600.9,361.1c0,0,0,0.1,0.1,0.2
					c0,0,0.1,0.1,0.1,0.1c0,0,0,0,0.1,0h0c0,0,0,0-0.1-0.1c0,0,0,0,0,0c0,0,0,0,0,0c0,0,0,0-0.1-0.1
					C601,361.2,600.9,361.2,600.9,361.1 M572.7,337.1c-3-4-6.1-7.1-9.5-9.2c-2.2-1.4-5-2.6-8.4-3.7c-4.3-0.9-7.6-1.6-10-2.1
					c-2.4-0.5-3.7-0.8-4-0.8c-1.2-0.1-2.1-0.2-2.9-0.2c-0.4-0.4-0.7-0.8-1-1.2c-0.3-0.4-0.5-0.7-0.7-1.1c-0.4-0.7-0.7-1.2-0.9-1.4
					c-0.3-0.3-0.7-0.6-1.2-0.8c-0.5-0.3-2.5-2.1-6-5.3c-0.3-0.4-0.8-0.9-1.3-1.3c-0.3-0.2-0.6-0.5-1-0.7l-4.2-2.1
					c0.1,0.4,0.1,0.8,0.2,1.2c0,0.3-0.2-0.3-0.7-1.7c0.8,3,1.3,4.9,1.7,5.8c0.3,1,0.7,1.8,1.2,2.5c-7.9,6.7-12.7,14.1-14.3,22.2
					c-1.4,7-3.3,12.4-5.8,16.4c-8.8-21.9-13.5-33.2-14-33.8c-3.9-5-6.5-8.4-8-10.3c0.2-0.3,0.3-0.7,0.5-1c0.3-0.6,0.5-1.2,0.7-1.9
					c0.1-0.2,0.1-0.4,0.2-0.6c0.3-0.8,0.5-1.6,0.7-2.4c0.1-0.1,0.2-0.2,0.2-0.2c0,0-0.1-0.1-0.1-0.1c-3.1,0.2-6.1,1.9-9.2,5.3
					c-3,3.3-4.7,5.4-5.1,6.3c-0.2,0.4-0.3,0.8-0.5,1.3c-0.3,0.1-0.6,0.1-0.9,0.2h0c-6.2,1.2-12.3,2.9-18.3,4.9
					c-1.2,0.4-2.5,0.9-3.7,1.3c-0.4,0.1-0.8,0.3-1.1,0.4c-10.5,4.8-17.5,11.2-21.2,19c-5.7,11.7-11,23.1-16,34.2v0l0,0
					c0,0,0,0.1,0,0.1c0,0,0,0,0,0c-0.1,0.2-0.2,0.5-0.3,0.7c-0.1,0.1-0.1,0.2-0.1,0.3c0,0,0,0.1-0.1,0.1c-0.1,0.1-0.1,0.2-0.2,0.3
					c0,0,0,0,0.1,0c-0.1,0.3-0.1,0.7,0,1.1c-0.1,0.1-0.1,0.2-0.2,0.3l0.2-0.2c0,0.2,0.1,0.4,0.2,0.7c17.3,8.4,29.3,13.2,36,14.5
					l6.7-29.8l-2.2,30.1l-4.6-0.3c1.7,0.3,3,0.4,4,0.3c0,0.9,0,1.7,0.1,2.6c0.3,22.4-2.2,42.7-7.4,60.9c-6.2,21.5-8.3,33.2-6.4,35.1
					c1.9,1.8,3.2,2.5,3.7,1.9l0.3-0.1h0h0.1c0,0,0,0,0.1,0v0l0.2,0.1c10-6,20.3-10.8,30.9-14.2l0,0h0c0.9-0.3,1.8-0.6,2.7-0.8h0
					c0,0,0,0,0.1,0c2.1-0.6,4.1-1.2,6.2-1.8c0.8-0.2,1.6-0.5,2.4-0.7c0.4-0.1,0.9-0.2,1.3-0.4c16.1-4.2,32.4-6.6,49-7.2
					c11.8-0.4,22.2,0.6,31.1,2.9c0.2,0.1,0.4,0.1,0.5,0.1c2.9,0.8,6,2,9.1,3.5l0.1-0.1c0,0,0,0,0,0c0,0,0,0,0,0.1
					c0,0.1,0.1,0.1,0.2,0.2c0-0.1-0.1-0.2-0.1-0.3c-1.6-5.6-3.5-12.3-5.6-20.1c-2.7-9.8-5.7-21.3-9.2-34.5c-0.1-0.3-0.3-0.6-0.4-0.9
					c-0.3-0.8-0.7-1.7-1-2.5c-0.1-0.4-0.3-0.7-0.4-1.1c0-0.1-0.1-0.2-0.1-0.2c-0.1-0.2-0.2-1-0.2-2.2c-0.1-0.5-0.2-1.1-0.4-1.6
					l0.7-0.1c-2-11.7-3.2-23.5-3.6-35.3c0-0.8,0-1.8-0.1-3c0-5.2,0.2-13.8,0.7-25.9c1.1,8.6,2,17.2,2.7,25.7
					c0.1-8.1,0.3-17.3,0.5-27.7v0c0-1.4,0.1-2.9,0.1-4.4c0-0.3,0-0.7,0-1c0,0.3,0,0.7,0,1c0,1.5,0,3-0.1,4.4
					c-0.2,10.6-0.3,19.9-0.4,27.9h0c0.3,3.6,0.6,7.3,0.8,10.9l6.6,12.2c1.4-1.4,2.3-2.4,2.8-3c0.2-0.2,0.4-0.4,0.4-0.4
					c0.3-0.3,0.6-0.6,0.9-0.8c0.5-0.4,0.9-0.8,1.4-1.2c0.5-0.4,1-0.9,1.6-1.3c0.2-0.1,0.4-0.2,0.6-0.3c0,0,0.1,0,0.1,0
					c0,0,0.1,0,0.1,0c0.4-0.1,0.8-0.3,1.3-0.4c-0.5,0.1-1,0.2-1.3,0.4c-0.1,0-0.1,0-0.2,0.1c0,0-0.1,0-0.1,0
					c3.2-2.5,6.7-4.6,10.5-6.4c3.5-1.6,7-2.9,10.7-3.8c0.5-0.1,1.1-0.3,1.6-0.4c1.6-0.3,3.7-0.7,6.2-1.2c0,0-0.3-0.6-0.9-1.8
					c0,0,0,0,0.1,0c-0.2-0.3-0.4-0.6-0.5-0.9c0-0.1-0.1-0.2-0.2-0.3c-0.6-1-0.9-1.6-1-1.7c-4.1-6.8-7-11.4-8.9-14
					c-1.1-1.4-2.3-3.4-3.9-5.9c-1-1.7-2.2-3.6-3.4-5.7c-1.4-2.5-2.7-4.7-3.9-6.6C574.8,340.1,573.7,338.4,572.7,337.1 M544.5,346.5
					c-1-0.2-2.1-0.3-3.2-0.5c-2.6-0.3-5.4-0.6-8.6-0.8c-5.6-0.3-9.8-0.6-12.7-0.8c-0.1,0.7-0.1,1.4-0.1,2c0,1.4,0,2.2,0,2.6
					c-0.1,1-0.5,1.7-1.1,2.1c-0.3,0.2-0.7,0.4-1.2,0.5c-0.1,0-0.5,0.1-1.3,0.2c-3.8,0.5-7,2-9.7,4.4c-0.3,0.3-0.6,0.6-0.9,0.9
					c-0.3-0.1-0.6-0.2-0.9-0.4c0.2-0.2,0.4-0.5,0.6-0.7c0.2-0.2,0.3-0.3,0.5-0.5c0.7-0.7,1.5-1.5,2.5-2.3c0.7-0.6,1.8-1.5,3.2-2.6
					c1.4-1.3,2.7-2.6,3.8-3.9c0.6-0.7,1.1-1.3,1.4-1.9c0.1-0.1,0.2-0.3,0.3-0.4c0-0.1,0.1-0.2,0.1-0.3c-0.1,0-0.3,0-0.4-0.1v-4.4
					c5.5,0.3,10.9,0.8,16.3,1.5c2.4,0.3,4.9,0.7,7.3,1.2c-1.5-7.3-2.9-14.6-4.1-21.9c3.1,7.3,5.5,14.8,7.3,22.5
					C543.9,344.1,544.2,345.3,544.5,346.5 M483.8,331.9c0.1,0,0.1,0.1,0.2,0.1c0.4,0.3,0.6,0.7,0.8,1.3c0.1,0.3,0.2,0.8,0.2,1.6
					c0.2,1.1,0.7,2,1.5,2.8c0.8,0.8,1.6,1.1,2.4,0.9c0.1,0,0.2-0.1,0.6-0.2c0.2-0.1,0.4-0.1,0.6-0.2c0.5,0,0.9,0.3,1.4,0.8
					c0.6,0.7,1.1,1.7,1.6,2.8c0.3,0.7,0.7,1.7,1.3,3.1c1.6,3.9,3.9,7.2,7,10c-0.1-0.1-0.2-0.2-0.3-0.2c-0.3-0.3-1.9-1.7-4.8-4.3
					c-3.5-3.2-7.3-5.9-11.5-8.3c-0.4-0.2-0.6-0.4-0.8-0.6c0,0,0,0-0.1-0.1c-0.5-0.2-1-0.4-1.4-0.6c-0.3-0.1-0.7-0.2-1-0.3
					c-6.1,5-11.7,10.4-17,16.4c0.1-1.9,0.2-3.8,0.3-5.8c0.3-4.1,0.6-8.3,1-12.5c0.7-7,1.7-14.1,2.9-21.3l0.5,0.1
					c-0.7,7.3-1,14.5-1,21.5c0,3.3,0,5.3-0.1,6.1c0,1.1-0.1,2.1-0.2,3C473.1,342.5,478.4,337.2,483.8,331.9 M526.4,326.8
					c-0.1,0-0.1,0-0.1,0.1c0.1-0.1,0.1-0.1,0.2-0.2C526.5,326.6,526.5,326.7,526.4,326.8 M567.9,391.2c-0.2,0-0.4,0.1-0.5,0.1
					c-0.5,0.1-0.5,0.1,0,0c0.4-0.1,1.1-0.2,2.2-0.4C568.6,391,568.1,391.2,567.9,391.2 M408.2,380.9c0-0.1,0-0.1,0.1-0.2l-0.4-0.6
					C408,380.3,408.1,380.6,408.2,380.9z"/>
				<path class="st26" d="M607.4,373.2C607.4,373.2,607.4,373.1,607.4,373.2c-0.2-0.3-0.3-0.6-0.4-0.8
					C607.1,372.6,607.3,372.9,607.4,373.2c0,0.1,0,0.1,0.1,0.2C607.5,373.3,607.5,373.3,607.4,373.2 M567.4,391.3
					c0.2,0,0.4,0,0.5-0.1c0.2,0,0.7-0.1,1.6-0.4C568.5,391,567.8,391.2,567.4,391.3C566.9,391.3,566.9,391.4,567.4,391.3
					 M525.9,722.3c-0.1-0.1-0.3-0.2-0.4-0.3c0.1,0.1,0.1,0.1,0.2,0.2C525.8,722.2,525.9,722.2,525.9,722.3 M526.2,722.5L526.2,722.5
					c-0.1-0.1-0.2-0.2-0.3-0.3C526,722.3,526.1,722.4,526.2,722.5z"/>
				<path class="st27" d="M566.2,396.4c-0.3-0.6-0.7-1.1-1-1.7c-0.5,0.5-1.4,1.5-2.8,3l0.1,0.2L566.2,396.4 M484,332
					c-0.1,0-0.1-0.1-0.2-0.1c-5.4,5.3-10.7,10.6-15.9,16c0.1-0.9,0.2-1.9,0.2-3c0-0.8,0.1-2.8,0.1-6.1c0-7,0.3-14.2,1-21.5l-0.5-0.1
					c-1.2,7.1-2.2,14.2-2.9,21.3c-0.4,4.2-0.8,8.4-1,12.5c-0.1,1.9-0.2,3.9-0.3,5.8c5.3-6,10.9-11.5,17-16.4c0.3,0.1,0.6,0.2,1,0.3
					c0.4,0.1,0.9,0.3,1.4,0.6c0,0,0,0,0.1,0.1c0.1,0.2,0.4,0.4,0.8,0.6c4.2,2.4,8.1,5.1,11.5,8.3c2.9,2.6,4.5,4.1,4.8,4.3
					c0.1,0.1,0.2,0.2,0.3,0.2c-3.1-2.8-5.4-6.1-7-10c-0.6-1.4-1-2.4-1.3-3.1c-0.5-1.2-1.1-2.1-1.6-2.8c-0.4-0.5-0.9-0.8-1.4-0.8
					c-0.2,0-0.4,0.1-0.6,0.2c-0.3,0.1-0.5,0.2-0.6,0.2c-0.8,0.2-1.6-0.1-2.4-0.9c-0.8-0.8-1.3-1.7-1.5-2.8c-0.1-0.7-0.2-1.2-0.2-1.6
					C484.6,332.7,484.3,332.3,484,332 M541.2,346c1.1,0.2,2.2,0.3,3.2,0.5c-0.2-1.2-0.5-2.4-0.8-3.6c-1.8-7.7-4.3-15.2-7.3-22.5
					c1.2,7.3,2.6,14.6,4.1,21.9c-2.4-0.4-4.8-0.8-7.3-1.2c-5.3-0.7-10.8-1.2-16.3-1.5v4.4c0.1,0,0.3,0,0.4,0.1
					c0,0.1-0.1,0.2-0.1,0.3c-0.1,0.1-0.2,0.3-0.3,0.4c-0.4,0.6-0.8,1.2-1.4,1.9c-1.1,1.3-2.4,2.6-3.8,3.9c-1.4,1.2-2.5,2-3.2,2.6
					c-1,0.8-1.8,1.6-2.5,2.3c-0.2,0.2-0.3,0.4-0.5,0.5c-0.2,0.2-0.4,0.5-0.6,0.7c0.3,0.1,0.6,0.3,0.9,0.4c0.3-0.3,0.6-0.6,0.9-0.9
					c2.7-2.5,5.9-3.9,9.7-4.4c0.7-0.1,1.2-0.2,1.3-0.2c0.5-0.1,0.9-0.3,1.2-0.5c0.6-0.5,1-1.2,1.1-2.1c0-0.4,0-1.3,0-2.6
					c0-0.6,0-1.3,0.1-2c2.9,0.2,7.1,0.5,12.7,0.8C535.8,345.4,538.7,345.6,541.2,346 M592.7,380.1c-0.5,0.1-1.1,0.3-1.6,0.4l2.2,4.1
					c0.4-0.3,0.8-0.6,1.1-0.8c0.9-0.7,1.7-1.4,2.4-2.1c0.9-0.9,1.7-1.8,2.1-2.7C596.3,379.4,594.3,379.8,592.7,380.1 M551.5,374.7
					c0,1.2,0,2.2,0.1,3l4.2,7.8c-0.2-3.6-0.5-7.3-0.8-10.9l0,0c0,0,0-0.1,0-0.1c-0.7-8.6-1.6-17.1-2.7-25.7
					C551.8,360.8,551.5,369.5,551.5,374.7 M443.7,394.1l4.6,0.3l2.2-30.1L443.7,394.1z"/>
				<path class="st28" d="M511.7,310.2c-0.1,0-0.2-0.1-0.2-0.1c-4.8-1.6-10.9-2.6-18.3-3c-3.4-4.4-6.1-7.8-7.9-10.1
					c0,0.2,0,0.3-0.1,0.5c0,0.2-0.1,0.4-0.1,0.6c1.7,3.8,3.4,7.7,4.9,11.6c3.8,1.5,8.4,2.4,13.9,2.8c2,0.1,4.6,0.3,7.7,0.4
					c0.1,0,0.3,0,0.4,0c0.4-0.3,0.7-0.7,1.1-1c2.7-2.5,5.5-4.9,8.4-7.4c0-0.3,0-0.6-0.1-0.8C516,308.1,512.7,310.3,511.7,310.2z"/>
				<path class="st29" d="M550.4,227.6c-0.5-7.2-3.6-13.1-9.3-17.7c-3.1-2.5-6.9-4.6-11.5-6.3c-7.7-2.9-14.7-4.1-20.9-3.6
					c-4.3,0.3-8.3,1.4-11.9,3.3c-0.8,0.4-1.5,0.9-2.1,1.4c-1.2,1.1-2.1,2-2.6,2.8c-0.4,0.6-0.6,1.1-0.5,1.6
					c-0.6-1.2-2.8-1.5-6.7-1.1c-1.8,0.2-3.4,0.8-4.7,1.9c-1.9,1.5-3.4,3.8-4.5,7c-1.8,5.5-2.7,10.5-2.6,15.2c0.1,2.3,0.1,4.3,0,6
					c0.6,5.2,0.9,10.5,0.7,15.8c0.5,0,1,0.1,1.5,0.4c0.5,0.2,1.1,0.5,1.7,1c1.2,1.9,2.1,4.1,2.9,6.5c0.4,1.2,0.6,2.2,0.7,2.9
					c0-0.5,0.1-1,0.1-1.5c0.3-1.6,0.5-2.9,0.7-3.7c0.1-0.8,0.3-1.7,0.3-2.7c0-0.1,0-0.5,0.1-1.2c0.7-2.4,1.2-4.3,1.6-5.6
					c0.1-0.6,0.3-1,0.4-1.4c0.1-0.3,0.2-0.7,0.5-1.1c0.1-0.5,0.3-1.1,0.5-1.7c0.1-0.4,0.2-0.8,0.3-1.1c0.1-0.5,2.5-2.4,7-5.7
					l0.2-17.3c17.6,15.4,32.4,18.2,44.2,8.6c-0.5,16.4-0.7,25.6-0.6,27.6c0,0.6,0,1.3,0,2c-0.1,1-0.2,2-0.3,3c-0.1,2-0.2,4.3-0.4,7
					c0.5-0.5,0.9-1.1,1.4-1.9c0.4-0.6,1-1.4,1.8-2.6c1.6-2,3.2-3.2,4.8-3.6c0.1,0,0.3-0.1,0.4-0.1c0.2,0,0.4,0,0.6,0
					c2.2-2.9,3.8-5.3,4.8-7c1.7-3,2.8-6.2,3.5-9.7c0-0.1,0-0.1,0-0.2c0-0.3,0-1-0.1-1.9C554.7,237.8,554.1,232.7,550.4,227.6z"/>
				<path class="st30" d="M707.6,673.5c0-2.9,0-5.7,0.1-8.6H548.3c-0.5,0.7-1.1,1.3-1.6,1.9c-1.7,1.9-3.5,3.4-5.3,4.6v2l-0.3-2
					l-4.4,0.8c0.1,0.4,0.1,0.8,0.2,1.2c0.5,3,1,6,1.4,8.9c0.7,4.9,1.3,9.7,1.8,14.4c-0.6,0.3-1.2,0.6-1.8,0.8c0.7,0.4,1.5,1,2.4,1.9
					c0.9,0.9,2.2,1.9,3.9,3l162.9,3.6C707.5,695,707.5,684.2,707.6,673.5 M330.8,665c0,2.9,0,5.7,0,8.6c0.1,9,0.1,17.9,0.1,26.9
					c0,0,0,0.1,0,0.1c30.7,0.1,76.2,0.2,136.6,0.4v-1v-0.1c0-0.6,0.1-1.2,0.4-1.8c0.1-0.1,0.1-0.2,0.2-0.2c0.1-0.2,0.8-0.7,2.1-1.7
					c2.3-1.3,4.7-2.7,7-4.4c2.1-1.5,4.2-3.2,6.3-5c-2.7-1.4-4.7-3.1-6.1-5.1c-0.9-1.3-1.5-2.7-1.7-4.2c-0.1-0.4-0.1-0.7-0.1-1.1
					c-0.1,0-0.1,0-0.2,0c0.1-0.1,0.1-0.2,0.2-0.2v-2.5h1.6c2-3.3,3.8-6.1,5.3-8.6H330.8 M606.3,518.2l-1,0.4c1.3,3.2,2.4,6.5,3.2,10
					c0.9,4.1,1.4,8.2,1.3,12.4c-0.5,0.9-1,1.7-1.6,2.5h1.6h13.5c0.2-9.2,0.3-17.6,0.5-25.2H607H606.3 M439.3,525.6
					c-0.7-2.3-1.3-4.8-1.7-7.4h-24.1c0,7.6,0.1,16,0.1,25.2h35c-0.2-0.7-0.3-1.4-0.3-2.2c0-0.8,0-2,0.2-3.6c0.1-1.1,0.2-2.2,0.3-3.3
					c-1.2,0-2.3-0.2-3.4-0.7c-1.3-0.5-2.4-1.2-3.3-2.1c-0.3-0.3-0.6-0.6-0.9-1.1C440.4,528.8,439.8,527.3,439.3,525.6 M512.1,521.3
					c0.1,0.9-0.1,2.1-0.5,3.4l-2.6,8.5l-0.2,0.3c0,0,0.1,0,0.1,0.1c0.5,0.5,1.1,0.9,1.7,1.4c0,0,0,0.1,0.1,0.1
					c1.5,1.7,2.9,4.5,4.3,8.4c0,0,0,0,0,0.1l-0.1,0.1l19.9-0.2h1.2h0.2V543c0.2-0.4,0.4-0.8,0.6-1.2c1.4-1.1,2.9-2.2,4.5-3.2
					l-1.6-2.5c-10.1-7.3-18.2-13.5-24.5-18.5c-2.1-1.7-4-3.2-5.6-4.6l-1.7,2.1c1.2,1,2.1,1.9,2.7,2.6c0.1,0.2,0.3,0.4,0.4,0.5
					C511.6,519.3,512,520.3,512.1,521.3z"/>
				<path class="st31" d="M438,494.8C438,494.8,438,494.9,438,494.8c-1.3,8.7-1.5,16.5-0.4,23.4c0.4,2.6,0.9,5.1,1.7,7.4
					c0.5,1.6,1.1,3.2,1.8,4.7c0.3,0.5,0.7,0.8,0.9,1.1c0.9,1,2,1.7,3.3,2.1c1.1,0.5,2.3,0.7,3.4,0.7c-0.1,1.1-0.2,2.2-0.3,3.3
					c-0.2,1.6-0.2,2.8-0.2,3.6c0,0.8,0.1,1.5,0.3,2.2c0.1,0.4,0.3,0.8,0.5,1.2c0.5,0.9,1.2,1.7,2.1,2.4c0.9,0.7,2,1.3,3.3,1.7
					c0.3,0.1,0.7,0.2,1.2,0.4c0,0,0,0,0.1,0c0.5,0.1,1.1,0.3,1.7,0.5c0.1,0,0.2,0,0.3,0.1c0.5,0.1,1,0.3,1.4,0.4
					c0.6,3,1.2,5.9,1.8,8.7c0.1,0.3,0.1,0.5,0.2,0.8c5.4,26,8.5,39.8,9.2,41.6c1.7,4,4.4,10.1,7.9,18.2c5.6,13.3,9.4,24.7,11.1,34.2
					c-0.8,1.3-1.7,2.6-2.5,3.9c-1,1.6-2.5,4.1-4.6,7.4c-1.5,2.4-3.3,5.3-5.3,8.6c-0.5,0.8-1,1.7-1.6,2.5c0,0.1,0,0.2,0,0.2
					c0,0.4,0,0.7,0.1,1.1c0.3,1.5,0.8,2.9,1.7,4.2c1.4,2,3.4,3.7,6.1,5.1c0,0,0,0,0.1,0c0.1-0.1,0.2-0.2,0.3-0.3
					c0.8-0.7,1.6-1.5,2.5-2.2c1.8-1.7,4-3.9,6.5-6.5c0,0,0,0,0.1,0l0,0c6.3,1.2,12.3,3.1,18,5.8c2.7,1.2,5.1,2.6,7.2,3.9
					c-2.1,3.7-3.6,8.1-4.4,13.2c-0.1,0.7-0.2,1.5-0.3,2.3c0.1,0.5,0.3,1,0.5,1.4c2.6,1.1,4,1.7,4.2,1.7c0.9-0.1,1.9-0.2,3-0.6
					c0.5-0.1,1.7-0.6,3.8-1.4c0.2-0.1,0.4-0.2,0.8-0.4c0,0,0.1,0,0.1-0.1c0.7-1.2,1.5-2.4,2.3-3.7c0-0.1-0.1-0.2-0.1-0.2
					c0.1,0,0.1,0,0.2,0c0,0,0,0,0.1,0c0.1-0.1,0.1-0.2,0.2-0.4c0.4-0.6,0.8-1.3,1.2-1.9l3,1.8c2-0.4,3.9-0.9,5.8-1.6
					c0.6-0.2,1.2-0.5,1.8-0.8c-0.5-4.7-1.1-9.5-1.8-14.4c-0.4-2.9-0.9-5.9-1.4-8.9c-0.1-0.4-0.1-0.8-0.2-1.2l4.4-0.8l0.3-0.1
					c1.8-1.2,3.6-2.8,5.3-4.6c0.5-0.6,1.1-1.2,1.6-1.9c2.1-2.6,4-5.7,5.9-9.4c0.5-0.9,2-4.1,4.6-9.6c1.9-3.9,3.5-7.1,4.9-9.4
					c1.9-3.1,4.7-6.9,8.3-11.3c1.5-1.9,11.9-27.1,31.1-75.8l3.3-3.9c0.7-0.7,1.3-1.4,1.9-2.2c0.6-0.8,1.1-1.7,1.6-2.5
					c0-4.1-0.4-8.3-1.3-12.4c-0.8-3.5-1.8-6.8-3.2-10c-0.1-0.1-0.1-0.3-0.2-0.4c-0.4-0.8-0.7-1.6-1.2-2.5c-1.4-1.5-2.8-2.9-4.2-4.4
					c-3.2-3.2-6.5-6.3-9.8-9.4c-0.1-0.3-0.1-0.4-0.1-0.4c-0.7-0.7-1.4-1.5-2.4-2.5c-2.9-3-4.6-4.8-5.3-5.5c-6-6-10.6-10.5-13.7-13.7
					l3-3.4c-3.1-1.5-6.1-2.7-9.1-3.5c-0.2,0-0.4-0.1-0.5-0.1c-8.9-2.4-19.3-3.3-31.1-2.9c-16.5,0.6-32.8,3-49,7.2
					c-0.4,0.1-0.9,0.2-1.3,0.4c-0.8,0.2-1.6,0.4-2.4,0.7c-2.1,0.6-4.2,1.2-6.2,1.8c0,0,0,0-0.1,0h0c-0.9,0.3-1.8,0.6-2.7,0.8h0l0,0
					c-10.6,3.4-20.9,8.1-30.9,14.2L438,494.8 M511.6,524.7c0.5-1.4,0.6-2.5,0.5-3.4c-0.1-1-0.5-2-1.3-3c-0.1-0.2-0.3-0.3-0.4-0.5
					c-0.6-0.7-1.5-1.6-2.7-2.6l1.7-2.1c1.7,1.4,3.6,3,5.6,4.6c6.3,5,14.5,11.2,24.5,18.5l1.6,2.5c-1.5,1-3,2-4.5,3.2
					c-0.2,0.4-0.4,0.8-0.6,1.2v0.4h-0.2c-0.4,0.8-0.5,1.5-0.3,1.9c0.1,0.2,0.3,0.5,0.5,0.8c0.1,0.2,0.4,0.4,0.7,0.8
					c0.5,0.7,0.8,1.5,0.8,2.4c0.1,0.9-0.1,1.8-0.4,2.6c0,0.1,0,0.1-0.1,0.2c-0.1,0.3-0.1,0.6-0.1,0.9c-0.2,0.5-0.4,0.9-0.6,1.4
					c-5,11.7-9.4,22.1-13.4,31.4c-2.4-19-5-32.9-7.9-41.6l-0.3-0.6l0.1-0.1c0,0,0-0.1,0-0.1c-1.4-3.9-2.8-6.7-4.3-8.4
					c0,0-0.1-0.1-0.1-0.1c-0.6-0.5-1.2-0.9-1.7-1.4c0,0-0.1-0.1-0.1-0.1l0.2-0.3L511.6,524.7 M459.2,514.6c-0.5,1.1-1,2.3-1.5,3.6
					c-0.5,1.4-1,3-1.5,4.6c-0.6,2.2-1.3,5-2.1,8.5c-0.2,0.9-0.4,1.9-0.6,2.9c-0.1,0.3-0.1,0.7-0.2,1.1c-0.2,1.1-0.4,2.1-0.6,3.2
					c-0.3,1.7-0.6,3.4-0.9,5c0.3-1.7,0.6-3.4,0.9-5c0.2-1.1,0.4-2.1,0.6-3.2c0.1-0.4,0.1-0.7,0.2-1.1c0.2-1,0.4-1.9,0.6-2.9
					c0.7-3.5,1.4-6.3,2.1-8.5c0.5-1.6,1-3.2,1.5-4.6C458.2,517,458.7,515.8,459.2,514.6 M459.1,511.6c2-2.7,5-4.7,8.8-6.1
					c3-1,6.6-1.7,10.7-1.8c3-0.2,5.5-0.1,7.5,0.5c1.3,0.4,2.4,1,3.4,1.7c0.5,0.4,1,0.8,1.4,1.3c0.4,0.5,0.7,1,1,1.5
					c-0.3-0.5-0.6-1.1-1-1.5c-0.4-0.5-0.9-0.9-1.4-1.3c-1-0.7-2.1-1.3-3.4-1.7c-2-0.5-4.5-0.7-7.5-0.5c-4.1,0.2-7.7,0.8-10.7,1.8
					C464,506.8,461.1,508.9,459.1,511.6 M565.1,497.4c0.1,0,0.1,0,0.2,0c2.6-0.1,5.2,0,7.8,0c0.1,0,0.2,0,0.2,0c0.1,0,0.2,0,0.3,0
					c0.2,0,0.3,0,0.5,0c0.1,0,0.3,0,0.5,0c-0.2,0-0.3,0-0.5,0c-0.2,0-0.3,0-0.5,0c-0.1,0-0.2,0-0.3,0c-0.1,0-0.2,0-0.2,0
					c-2.6-0.1-5.2-0.1-7.8,0C565.2,497.4,565.2,497.4,565.1,497.4c-2,0.1-3.9,0.1-5.9,0.3c0,0,0,0-0.1,0c0,0,0,0-0.1,0
					c0,0-0.1,0-0.1,0c-7.7,0.5-16.1,3-25.3,7.6c9.2-4.6,17.6-7.1,25.3-7.6c0,0,0,0,0.1,0c0,0,0,0,0.1,0c0,0,0,0,0.1,0
					C561.2,497.5,563.1,497.4,565.1,497.4 M573.4,502.6c0.1,0,0.2,0,0.3,0c2.6,0.2,5.1,0.5,7.5,0.9c1.6,0.3,3.1,0.6,4.6,1
					c-1.5-0.4-3-0.7-4.6-1c-2.4-0.4-4.9-0.7-7.5-0.9C573.6,502.6,573.5,502.6,573.4,502.6c-0.1,0-0.2,0-0.2,0c-0.1,0-0.1,0-0.2,0
					c-2.5-0.2-5-0.2-7.6-0.2c-1.9,0-3.8,0.1-5.8,0.3h0c-6.1,0.5-14.9,1.7-26.5,3.8c11.6-2.1,20.4-3.4,26.5-3.8h0
					c2-0.1,3.9-0.2,5.8-0.3c2.6-0.1,5.2,0,7.6,0.2c0.1,0,0.1,0,0.2,0C573.3,502.6,573.3,502.6,573.4,502.6z"/>
			</g>
		</g>
		<g>
			<path class="st32" d="M639.8,456.4c-0.1,0.1-0.2,0.1-0.3,0.2c-8.6,5.7-13.4,13.5-14.4,23.3c-0.1,1.3-0.2,2.7-0.2,4.2
				 M623.9,512.2c-0.1,2-0.1,4-0.2,6.1c-0.2,7.6-0.4,16-0.5,25.2h-13.5 M370.4,450c4.4-0.1,8.9,0.1,13.6,0.7c5,0.7,9.3,1.7,13.2,3.2
				c2.8,1.1,5.3,2.4,7.5,3.9c2.6,1.8,4.9,4.1,6.8,6.7c1.1,1.5,1.8,19.4,2.1,53.7h24.1 M413.5,518.2c0,7.6,0.1,16,0.1,25.2h35
				 M514.9,543.6l19.9-0.2 M646.6,452.7c-0.1,0-0.3,0.1-0.6,0.3 M607,518.2h16.8"/>
		</g>
		<g>
			<path class="st33" d="M459.2,514.6c-0.5,1.1-1,2.3-1.5,3.6c-0.5,1.4-1,3-1.5,4.6c-0.6,2.2-1.3,5-2.1,8.5
				c-0.2,0.9-0.4,1.9-0.6,2.9c-0.1,0.3-0.1,0.7-0.2,1.1c-0.2,1.1-0.4,2.1-0.6,3.2c-0.3,1.7-0.6,3.4-0.9,5 M459.1,511.6
				c2-2.7,5-4.7,8.8-6.1c3-1,6.6-1.7,10.7-1.8c3-0.2,5.5-0.1,7.5,0.5c1.3,0.4,2.4,1,3.4,1.7c0.5,0.4,1,0.8,1.4,1.3
				c0.4,0.5,0.7,1,1,1.5 M533.7,505.3c9.2-4.6,17.6-7.1,25.3-7.6c0,0,0,0,0.1,0c0,0,0,0,0.1,0c0,0,0,0,0.1,0c2-0.1,3.9-0.2,5.9-0.3
				c0.1,0,0.1,0,0.2,0c2.6-0.1,5.2,0,7.8,0c0.1,0,0.2,0,0.2,0c0.1,0,0.2,0,0.3,0c0.2,0,0.3,0,0.5,0c0.1,0,0.3,0,0.5,0 M533,506.5
				c11.6-2.1,20.4-3.4,26.5-3.8h0c2-0.1,3.9-0.2,5.8-0.3c2.6-0.1,5.2,0,7.6,0.2c0.1,0,0.1,0,0.2,0c0.1,0,0.2,0,0.2,0
				c0.1,0,0.2,0,0.3,0c2.6,0.2,5.1,0.5,7.5,0.9c1.6,0.3,3.1,0.6,4.6,1"/>
		</g>
		<g>
			<path class="st34" d="M624.9,484c-0.4,7.3-0.7,16.7-1,28.2"/>
		</g>
		<g>
			<path class="st35" d="M301.1,320.9l-0.1,0.8"/>
		</g>
		<g>
			<path class="st36" d="M526.2,722.5C526.2,722.5,526.2,722.5,526.2,722.5 M513.4,702.9c0.1,0.5,0.3,1,0.5,1.4 M526.2,722.5
				c-0.1-0.1-0.2-0.2-0.3-0.2C526,722.3,526.1,722.4,526.2,722.5 M526.3,722.5C526.3,722.5,526.2,722.5,526.3,722.5 M525.5,721.9
				c0.1,0.1,0.3,0.2,0.4,0.3c-0.1-0.1-0.1-0.1-0.2-0.1C525.7,722,525.6,722,525.5,721.9c-1.5-1.4-3.5-3.8-6-7.3
				c-2.6-3.7-4.5-7.1-5.7-10.3"/>
		</g>
	</g>
	<g transform="matrix( 1, 0, 0, 1, -1.55,-1.5) ">
		<g>
			<g>
				<path class="st25" d="M676.6,466.8c0.1,0.1,0.3,0.2,0.4,0.2c-0.2-0.2-0.5-0.5-0.7-0.7c0,0.1,0,0.1,0,0.2
					C676.3,466.6,676.4,466.7,676.6,466.8z"/>
				<path class="st24" d="M658.5,440.5c-0.4,0.1-0.8,0.1-1.2,0.1c0,0.9-0.3,1.4-1,1.5c-0.2,0-0.3,0-0.5,0l-1.5,2
					c-0.9,0-1.5,0.2-1.8,0.6c-1,0.9-1.7,2-2.1,3.3l-1.5,0.5l-3.9,5.4l-1.5,0.5l-0.4,1.5c0.2,0.1,0.3,0.1,0.5,0.2
					c0.3,0.7,0.6,1.5,0.9,2.2l0.5,1.2c0.3,0.8,0.6,1.6,0.9,2.4c0,0,0,0,0,0c0.7,2,1.5,3.9,2.2,5.9c2.7,1.6,5,4.1,7,7.5
					c0.6,1,1.2,2.1,1.8,3.4l0,0c0.2,0.5,0.5,1.1,0.7,1.7c0.1,0.3,0.3,0.6,0.4,0.8c0.5,1.1,0.9,2.2,1.4,3.5c0.2,0,0.5,0,0.7,0
					c0.8-0.1,1.3-0.2,1.5-0.2c0.3-0.1,0.6-0.4,1-0.8c0.3-0.3,0.7-0.5,1.2-0.8c0.5-1.7,0.7-3.4,0.7-5c0-1.7-0.3-3.3-0.8-4.8
					c-0.5-1.5-1.2-2.9-2.1-4.1c-2.2-1.7-3.1-3.5-2.7-5.5c0.4,0.2,0.8,0.4,1.2,0.6c2.5,1.3,5.1,2.5,7.8,3.5c3.7,3.7,6.8,7.8,9.3,12.4
					c1,2.9,1.8,5.9,2.4,9c0.2,0.2,0.4,0.4,0.7,0.7c0.7,0.6,1.2,1,1.7,1.2c0.5,0.2,0.8,0.2,1.1,0.2c0.3-0.1,0.6-0.3,1-0.7
					c0.2-0.2,0.6-0.6,1.3-1.3c-1.2-6.5-1.9-10.8-2.4-12.8c0-0.3-0.1-0.9-0.4-1.8c-0.5-1.5-2.4-3.9-5.8-7.4c-0.1-0.1-0.3-0.2-0.4-0.2
					c-0.1-0.1-0.2-0.2-0.3-0.3c0-0.1,0-0.1,0-0.2c0.2,0.2,0.4,0.5,0.7,0.7c2.3,1.6,4.1,3,5.3,4.1c2,1.7,3.6,3.5,4.8,5.2
					c2.2,4,4,8.2,5.2,12.7c0.4,0.4,0.9,0.6,1.3,0.7c0.1,0,0.4,0.1,0.7,0.1c0.9,0,1.6-0.5,2.3-1.3c0.3-0.3,0.5-0.7,0.8-1.2
					c0,0,0-0.1,0.1-0.1c-0.1-0.3-0.1-0.5-0.1-0.7c-0.1-0.9-0.3-1.6-0.5-2.1c0.8,0.4,1.7,0,2.7-1.3c1-1.3,0.4-5.1-1.8-11.2
					c1.4-1.7,1.9-3.3,1.5-4.7c-0.3-1-0.8-2.2-1.5-3.6c-0.2-0.5-0.4-0.9-0.6-1.2l-1.3-1.9c-0.5-0.8-1.3-1.8-2.4-3.1
					c-1.1-1.3-2.5-2.8-4.3-4.5c-1.8-1.7-2.9-2.6-3.3-2.7c0,0,0,0-0.1,0c-0.1,0-0.1-0.1-0.2-0.1c-0.5-0.2-1-0.3-1.6-0.5
					C673.4,446.1,664.9,443.1,658.5,440.5z"/>
			</g>
		</g>
	</g>
	<g transform="matrix( 0.9551849365234375, 0.2960052490234375, -0.2960052490234375, 0.9551849365234375, 371.4,-60.55) ">
		<g>
			<g>
				<path class="st24" d="M201.6,360.4c-0.8,0.2-1.4,0.6-1.9,1c-0.7,3.7-1.5,7.3-2.3,11l9-2.6c0.4-1.4,0.6-2.6,0.6-3.8
					c0-2-0.6-3.6-1.7-4.8c-0.4-0.4-0.9-0.8-1.4-1C203.3,360.1,202.6,360.2,201.6,360.4z"/>
			</g>
		</g>
	</g>
	<g>
		<g>
			<g>
				<path class="st37" d="M467,338.7c-0.3,0.1-0.6,0.2-0.9,0.4c-0.1,0.9-0.3,1.7-0.4,2.4h0c-0.3-0.1-0.7-0.1-1-0.1
					c-0.9-0.1-1.8-0.1-2.7-0.1c-0.8,0.1-1.6,0.2-2.5,0.4c-0.1,0-0.3,0.1-0.4,0.1c-3.5,1.3-5.4,3.9-5.7,7.6c-0.3,3.5,0.4,6.8,2,9.9
					c0.9,1.8,2.2,3.4,3.8,4.9c1.6,1.5,3.6,2.8,5.9,3.8c2.3,1,3.7,1.6,4.3,1.6c-0.1,0.3-0.1,0.4,0,0.6c0.2,0.5,0.5,1,0.7,1.4
					c0.3,0.5,0.6,1,0.9,1.4c0.8,1.1,1.7,1.9,2.7,2.7c0,0,0.1,0,0.1,0l0.5,0.1c6.7,0.9,12,1.1,15.8,0.5c2.2-0.4,3.7-0.6,4.4-0.7
					c0,0,0,0,0.1-0.1c0.8-0.5,1.8-1.7,3.1-3.6c1.6-2.4,2.9-5.8,3.9-10.3c1.7-7.4,2.2-14.7,1.7-21.8c-4.3-2.6-10.2-3.8-17.5-3.8
					C478.2,336,472,336.9,467,338.7 M465.2,345l0,0.2L465.2,345L465.2,345 M459.8,349c0,0.2,0.2-0.4,0.7-1.6c0.5-1.2,2-1.5,4.4-0.8
					c-0.2,2-0.1,4.1,0.1,6.4c0.2,2.1,0.7,4.6,1.3,7.3c0.2,0.6,0.3,1.2,0.5,1.9c0,0.1,0.2,0.9,0.6,2.5c-3.6-2.5-5.8-5.2-6.5-8.1
					c-0.8-2.9-1.2-4.9-1.2-6.1V349z"/>
			</g>
		</g>
	</g>
	<g transform="matrix( 0.9354400634765625, -0.353485107421875, 0.353485107421875, 0.9354400634765625, 41.5,350.85) ">
		<g>
			<g>
				<path class="st24" d="M365.7,146.9c-0.1,0-0.1,0-0.2,0c-0.2,0-0.3,0.1-0.5,0.1c0,0,0,0.1,0,0.2c-0.5,3.9-0.7,7.9-0.6,11.9
					c0,0.5,0.1,1.1,0.1,1.6l0.3,0.5l0.2,2.4l0.5,0.5v1.1l0.8,1.1v0.6c0.6,0.5,1.1,1.1,1.5,1.7c0.2,0.3,0.3,0.6,0.4,0.8l0.7,0.2
					c0.3,0.1,0.6,0.3,0.9,0.4c0-0.1,0-0.2-0.1-0.3c0.3-0.3,0.6-0.5,0.9-0.8c0.3-0.1,0.6-0.2,1-0.5c0.5-0.2,0.9-0.4,1.1-0.5
					c0.6-0.2,1.2-0.3,1.9-0.4c0.7-0.1,2.2-0.3,4.4-0.5c2.2-0.3,3.8-0.8,4.6-1.7c0.9-0.9,1.3-1.7,1.2-2.4c-0.1-0.7-0.1-1.2-0.2-1.3
					c0.5-0.2,1.7-0.4,3.6-0.7c2.6-0.4,4.1-1.5,4.4-3.2c0.1-0.5,0.1-1.2-0.2-1.9c-0.3-0.7-0.5-1.1-0.5-1.1c0.2-0.1,0.4-0.1,0.5-0.2
					c0.7-0.2,1.4-0.5,2-0.9c0.5-0.2,0.7-0.4,0.8-0.6c0.1-0.2,0.1-0.5,0.1-1c-0.1-0.5-0.3-1.3-0.6-2.1c-0.2-0.5-0.4-0.9-0.5-1.1
					c-5.9-2.2-12.1-3.5-18.5-3.8c-0.4,0.1-0.7,0.1-1.1,0.2c-0.7,0.1-1.4,0.2-2.1,0.3l-0.1,0.5l0.1-0.5
					C370.3,146,368,146.4,365.7,146.9z"/>
			</g>
		</g>
	</g>
	<g>
		<g>
			<g>
				<path class="st24" d="M447,353.4c0.1-0.2,0.3-0.4,0.4-0.5c0.2-0.2,0.7-0.5,1.4-0.7c1.6-0.7,2.9-1.1,3.7-1.4
					c0.3-0.1,0.5-0.2,0.8-0.3l0.2-0.1c0,0,0,0-0.1,0l1.8-0.5c1.5-0.5,2.4-0.8,2.9-0.9c0.4-0.2,0.9-0.3,1.5-0.5
					c0.6-0.2,1-0.4,1.3-0.6c0.8-0.8,1.3-1.8,1.3-3c0-0.5-0.1-1.1-0.2-1.5l0,0c-0.2,0-0.4-0.1-0.5-0.1c-0.1,0-0.1,0-0.2,0
					c-0.2,0-2.3,0-6.2-0.1c0,0,0,0,0-0.1c-0.1,0-0.3,0-0.4,0c-0.1,0-0.3,0-0.4,0c-1.4,0.1-2.9,0.3-4.3,0.5c-1.9,0.3-3.8,0.7-5.6,1.2
					c-0.6,0.5-1.1,1.1-1.6,1.8c-0.4,0.5-1.1,1.5-2.2,3.1c-1.5,1.9-3.2,4.9-5.3,8.9c-0.1,0.1-0.1,0.2-0.2,0.3
					c-0.1,0.3-0.3,0.5-0.4,0.8l-0.1,0.8v0c0,0.1,0,0.1,0,0.2h0c0,0-0.1,0-0.1,0l-2.1,22c-0.7,1.1-1.5,2.1-2.2,3.2
					c-7.2,10.2-15.1,19.6-23.7,28c-1.4,2.2-2.3,4.6-2.7,7.3c-0.6,3.7-0.8,6.5-0.6,8.4c-0.1-1.9,0.1-4.7,0.6-8.4
					c0.4-2.7,1.3-5.2,2.7-7.3c8.6-8.5,16.5-17.8,23.7-28c-6.5-0.6-12.8-2.3-18.9-5c-2.4,5.4-4.9,10.9-7.5,16.3
					c-1.2,2.4-2.8,6.4-5,11.8c0.2-0.3,0.5-0.5,0.7-0.8c-0.4,0.7-0.8,1.4-1.1,2.1c-0.2,0.4-0.3,0.9-0.5,1.3c-0.5,1.6-0.8,3.4-0.9,5.2
					c-0.1,3.6,0.8,8,2.6,13c0.6,1.8,1.3,3.2,1.9,4.3c0.9,1.5,1.9,2.7,3,3.5c0.6,0.5,1.3,0.9,2.1,1.2c0.7,0.3,1.5,0.5,2.4,0.7
					c1.2,0.2,2.5,0.3,3.9,0.1c0.3,0,0.7-0.1,1-0.2c1.4-0.2,3-0.6,4.7-1.3c1-0.4,2.4-1,4.1-1.8c0.1-0.1,0.2-0.1,0.3-0.2
					c0.3-0.2,0.6-0.4,0.9-0.7c2.6-1.8,4.6-3.5,6-5c1.7-1.8,2.9-3.6,3.6-5.5c3-4.3,5.7-9.1,7.9-14.6c2.6-6.3,4.8-14.7,6.6-25.3
					c1.4-0.3,2.5-1.2,3.3-2.9c0.8-2,1.2-4.1,1.1-6.4c-0.1-2.3-0.3-2.9-0.7-1.9c0.1-0.2,0.1-0.5,0.2-0.8l-0.2,0.4
					c0-0.6,0.1-1.2,0.1-1.9c-0.2,1-0.4,1.9-0.5,2.5c-1.6,0.4-2.8,0.8-3.7,1.2c-0.1-0.1-0.1-0.1-0.2-0.2v-0.6l-0.8-1.1v-1.1l-0.5-0.5
					l-0.2-2.4l-0.3-0.5c-0.1-0.6-0.1-1.1-0.1-1.6c-0.1-4,0.1-8,0.6-11.9c0-0.1,0-0.1,0-0.2c-0.1,0-0.1,0-0.2,0l0.6-1.3
					C446.8,353.9,446.9,353.7,447,353.4z"/>
			</g>
		</g>
		<g>
			<path class="st35" d="M434.5,360.6l-2.1,22c-0.7,1.1-1.5,2.1-2.2,3.2c-7.2,10.2-15.1,19.5-23.8,28c-1.4,2.2-2.3,4.6-2.7,7.3
				c-0.6,3.7-0.8,6.5-0.6,8.4 M434.7,359.2l-0.1,1.4"/>
		</g>
	</g>
</g>
</svg>
