<?xml version="1.0" encoding="utf-8"?>
<!-- Generator: Adobe Illustrator 24.3.0, SVG Export Plug-In . SVG Version: 6.00 Build 0)  -->
<svg version="1.1" id="f1903550-5374-4fc8-959e-1f31e4981ba4"
	 xmlns="http://www.w3.org/2000/svg" xmlns:xlink="http://www.w3.org/1999/xlink" x="0px" y="0px" viewBox="0 0 1017.2 708.3"
	 style="enable-background:new 0 0 1017.2 708.3;" xml:space="preserve">
<style type="text/css">
	.st0{opacity:0.1;fill:#CD4266;enable-background:new    ;}
	.st1{opacity:0.1;}
	.st2{fill:#CD4266;}
	.st3{fill:#FFFFFF;}
	.st4{fill:#3F3D56;}
	.st5{opacity:0.1;enable-background:new    ;}
	.st6{fill:none;stroke:#3F3D56;stroke-width:9;stroke-miterlimit:10;}
	.st7{fill:#464452;}
	.st8{fill:#393745;}
	.st9{fill:#CFA677;}
	.st10{fill:#272737;}
	.st11{fill:#3E3E53;}
	.st12{fill:#373653;}
	.st13{fill:#23222B;}
	.st14{fill:#323245;}
	.st15{fill:#B33A5A;}
	.st16{fill:#B28D63;}
	.st17{fill:#97314C;}
	.st18{fill:#4D3110;}
</style>
<path class="st0" d="M594.2,111.4c-64.7-2.3-126.4-23.1-185.2-46S291.8,17.2,228.7,5.2C188.1-2.6,141.6-3.7,108.9,18
	c-31.5,21-41.7,57.2-47.2,90.7c-4.1,25.3-6.5,51.8,4.8,75.5c7.8,16.4,21.7,30.2,31.4,46c33.5,54.7,9.8,122.2-26.5,175.6
	c-17,25.1-36.7,49-49.9,75.7S2.3,538.8,13.8,566c11.4,27,38.5,47.2,67.9,61.5c59.7,28.9,130,37.2,198.6,41.9
	c151.8,10.4,304.5,5.9,456.7,1.4c56.3-1.7,112.9-3.4,168.3-12.1c30.8-4.8,62.6-12.5,84.9-31c28.4-23.5,35.4-63.4,16.4-92.9
	c-31.9-49.5-120-61.8-142.3-114.9c-12.3-29.2,0.3-61.8,18.2-88.9c38.2-58.2,102.3-109.2,105.7-175.7c2.3-45.7-28.5-91.4-76.1-113
	C862.1,19.7,792.8,22.5,756,60C718,98.5,651.4,113.4,594.2,111.4z"/>
<g class="st1">
	<path class="st2" d="M86.4,328.4c0,0-74.7-31.4-84.6,25.3c0,0-5.1,8.8,2,16.1c0,0,1.5-3.9,8.8,0.1c2.6,1.4,5.3,2.5,8.2,3.3
		c3.8,1.1,7.9,0.8,11.6-0.6l0,0c0,0,24.6-1.3,45.3-33.5c0,0,8.9-5.5,9.3-7.5l-14.8,1c0,0,1.1,10.9-5,17.4c0,0,5.4-16.8,2.8-17.3
		c-0.5-0.1-7.8,0.9-7.8,0.9s1.9,18.9-8,28.6c0,0,9.2-19.2,5.2-28.3l-10.9,2.1c0,0,3,19.9-7.8,31.4c0,0,8.9-20.4,5.5-30.8L35.5,340
		c0,0,2.5,19.4-6.5,29c0,0,7.9-24.6,4.2-28c0,0-9.4,3.8-11.4,6c0,0,1.5,14-4.3,19c0,0,3.5-17,1.8-17.7c0,0-10.9,8.2-14.3,15.4
		c0,0,4.2-10.9,12.9-17c0,0-7.3-1.2-13,1.8c0,0,3.8-7.2,15.7-3.8c0,0,8.8-6.1,10.6-6c0,0-11.2-5-19.3-4.4c0,0,8.7-5,22.1,3.4
		l10.4-3.8c0,0-14.5-7.4-21.8-7.4c0,0,9.7-3.7,24.5,6.7l10.7-2.2c0,0-12-7.4-20.1-9.1c0,0,9.7-1.5,23.2,8.5l7.3-0.6
		c0,0-8.9-5.2-11.5-6.5s-2.6-2.1-2.6-2.1c6.4,1.1,12.3,4,17.2,8.3C71.1,329.6,86.3,329.3,86.4,328.4z"/>
</g>
<g class="st1">
	<path class="st2" d="M83.6,272c0,0-26.5-61.3-64.6-33.2c0,0-8.1,2.3-8,10.7c0,0,3.1-1.5,5.1,5.1c0.7,2.3,1.7,4.5,3,6.6
		c1.7,2.8,4.2,5,7.3,6.3l0,0c0,0,15.4,13.2,46,5.9c0,0,8.4,1.8,9.8,0.8l-9.4-7.9c0,0-5.5,7.1-12.9,7.4c0,0,12.8-6.9,11.6-8.7
		c-0.3-0.4-5.1-3.9-5.1-3.9s-9.6,12.3-21,12.5c0,0,16.4-6.2,19.2-13.9l-7.7-5c0,0-9.5,13.5-22.5,14.2c0,0,16.9-7,20.8-15.2l-8.2-3.9
		c0,0-9.6,13-20.4,13.5c0,0,18.7-10.1,18.4-14.3c0,0-7.8-3.1-10.2-2.9c0,0-7.1,9.1-13.4,8.9c0,0,11.8-8.1,11.2-9.5
		c0,0-11.2-1.3-17.2,1c0,0,8.7-4.1,17.3-2.7c0,0-3.7-4.9-8.8-6.3c0,0,6.4-2.1,11.5,6.6c0,0,8.7,1.4,9.7,2.4c0,0-3.8-9.4-9-13.6
		c0,0,8,2,11.2,14.6l8.4,3.7c0,0-4.4-12.7-8.7-16.8c0,0,7.9,3.3,10.8,17.9l7.6,4.8c0,0-2.9-11.2-6.8-16.8c0,0,6.6,4.6,8.9,18.3
		l4.7,3.8c0,0-2.3-8.1-3.2-10.4s-0.3-2.7-0.3-2.7c3.2,4.3,5.1,9.4,5.5,14.7C74,264,83,272.5,83.6,272z"/>
</g>
<circle class="st3" cx="712.6" cy="494.7" r="6"/>
<path class="st4" d="M449.4,611h12.1c13.8,0,25,11.2,25,25v37.1l0,0h-62.1l0,0V636C424.4,622.2,435.6,611,449.4,611z"/>
<path class="st5" d="M449.4,611h12.1c13.8,0,25,11.2,25,25v37.1l0,0h-62.1l0,0V636C424.4,622.2,435.6,611,449.4,611z"/>
<circle class="st4" cx="453" cy="619.7" r="5"/>
<circle class="st4" cx="453" cy="613.5" r="5"/>
<circle class="st4" cx="453" cy="607.3" r="5"/>
<circle class="st4" cx="453" cy="601.1" r="5"/>
<circle class="st4" cx="453" cy="594.9" r="5"/>
<circle class="st4" cx="453" cy="588.7" r="5"/>
<circle class="st4" cx="453" cy="582.4" r="5"/>
<circle class="st4" cx="460.5" cy="584.9" r="5"/>
<circle class="st4" cx="465.4" cy="582.4" r="5"/>
<circle class="st4" cx="470.4" cy="580" r="5"/>
<circle class="st4" cx="453" cy="576.2" r="5"/>
<circle class="st4" cx="453" cy="570" r="5"/>
<circle class="st4" cx="453" cy="563.8" r="5"/>
<circle class="st4" cx="453" cy="557.6" r="5"/>
<path class="st2" d="M473.6,541.6c-1.2,0.2-2.5,0.3-3.7,0.4c1.2-1,2.2-2.1,3.2-3.3c-0.7-2.1-1.7-4.1-3-5.8c-1.2,0.7-2.6,1.1-4,1.3
	c-1.2,0.2-2.5,0.3-3.7,0.4c1.7-1.6,3.3-3.3,4.8-5c-8.7-7.8-22-7.1-29.8,1.6c-7.8,8.7-7.1,22,1.6,29.8c8.7,7.8,22,7.1,29.8-1.6
	c3.5-3.9,5.4-8.9,5.4-14.1c0-1.2-0.1-2.4-0.3-3.6L473.6,541.6z"/>
<path class="st2" d="M490.2,566.3c-1.3,0.8-2.7,1.3-4.2,1.4c-1.2,0.2-2.5,0.3-3.7,0.4c1.3-1.2,2.5-2.5,3.7-3.8
	c-6.6-1.7-13.4,2.3-15.2,8.9c-1.7,6.6,2.3,13.4,8.9,15.2c6.6,1.7,13.4-2.3,15.2-8.9C496.2,574.5,494.3,569.2,490.2,566.3
	L490.2,566.3z"/>
<circle class="st4" cx="445.6" cy="584.9" r="5"/>
<circle class="st4" cx="440.6" cy="582.4" r="5"/>
<circle class="st4" cx="435.6" cy="580" r="5"/>
<path class="st2" d="M415.8,566.3c1.3,0.8,2.7,1.3,4.2,1.4c1.2,0.2,2.5,0.3,3.7,0.4c-1.3-1.2-2.6-2.5-3.7-3.8
	c6.6-1.7,13.4,2.3,15.2,8.9c1.7,6.6-2.3,13.4-8.9,15.2c-6.6,1.7-13.4-2.3-15.2-8.9C409.8,574.5,411.7,569.2,415.8,566.3L415.8,566.3
	z"/>
<path class="st4" d="M449.4,614.7h12.1c13.8,0,25,11.2,25,25v32.9c0,2.3-1.9,4.2-4.2,4.2h-53.6c-2.3,0-4.2-1.9-4.2-4.2v-32.9
	C424.4,625.9,435.6,614.7,449.4,614.7z"/>
<g class="st1">
	<path d="M474,542.9c-0.5,0.5-1,1-1.6,1.5c0.6,0,1.1-0.1,1.7-0.2C474.1,543.8,474,543.4,474,542.9z"/>
	<path d="M464.9,537c1.3-0.1,2.5-0.2,3.7-0.4c1.1-0.1,2.2-0.4,3.2-0.9c-0.5-1-1.1-2-1.7-2.9c-0.6,0.4-1.3,0.7-2,0.8
		C467.2,534.9,466.1,536,464.9,537z"/>
	<path d="M434.4,547.7c0-11.6,9.4-21.1,21-21.1c4.1,0,8,1.2,11.5,3.4l0.3-0.3c-8.7-7.7-22-7-29.8,1.7c-7.7,8.7-7,22,1.7,29.8
		c0.1,0.1,0.2,0.1,0.2,0.2C436.1,557.5,434.4,552.6,434.4,547.7z"/>
</g>
<g class="st1">
	<path d="M482.3,570.5c1.2-0.1,2.5-0.2,3.7-0.4c1.5-0.1,2.9-0.6,4.2-1.4c2.8,2.1,4.7,5.3,5,8.8c0-0.4,0.1-0.9,0.1-1.3
		c0-3.9-1.8-7.7-5-10c-1.3,0.8-2.7,1.3-4.2,1.4l-1,0.1C484.3,568.7,483.3,569.7,482.3,570.5z"/>
	<path d="M482.8,566.3c0.4,0,0.8,0,1.2,0.1c0.7-0.7,1.3-1.4,1.9-2.2c-6.6-1.8-13.4,2.2-15.2,8.8c-0.3,1.1-0.4,2.1-0.4,3.2
		c0,0.4,0,0.8,0.1,1.2C471.1,571.1,476.5,566.3,482.8,566.3z"/>
</g>
<g class="st1">
	<path d="M423.7,570.5c-1.2-0.1-2.5-0.2-3.7-0.4c-1.5-0.1-2.9-0.6-4.2-1.4c-2.8,2.1-4.7,5.3-5,8.8c0-0.4-0.1-0.9-0.1-1.3
		c0-3.9,1.8-7.7,5-10c1.3,0.8,2.7,1.3,4.2,1.4l1,0.1C421.8,568.7,422.7,569.7,423.7,570.5z"/>
	<path d="M423.2,566.3c-0.4,0-0.8,0-1.3,0.1c-0.6-0.7-1.3-1.4-1.9-2.2c6.6-1.8,13.4,2.2,15.2,8.8c0.3,1.1,0.4,2.1,0.4,3.2
		c0,0.4,0,0.8-0.1,1.2C434.9,571.1,429.6,566.3,423.2,566.3z"/>
</g>
<rect x="158.1" y="179.6" class="st2" width="226" height="88"/>
<path class="st6" d="M170.1,179.6h347c6.6,0,12,5.4,12,12v64c0,6.6-5.4,12-12,12h-347c-6.6,0-12-5.4-12-12v-64
	C158.1,185,163.5,179.6,170.1,179.6z"/>
<path class="st3" d="M361.4,218.9c-1.9-9.8-11.5-16.2-21.3-14.2c-5.4,1.1-10,4.5-12.6,9.4c-8,0.8-13.7,8-12.9,15.9
	c0.8,7.4,7,13,14.5,13h31.4c6.7,0,12.1-5.4,12.1-12.1C372.6,224.6,367.7,219.3,361.4,218.9z M347.5,226.1v9.2h-7.7v-9.2h-8.2
	l12.1-12.1l12.1,12.1L347.5,226.1z"/>
<g id="Layer_2_1_">
	<g>
		<g>
			<g>
				<path class="st7" d="M561.4,563.6c-1.4,0.9-3.2,1.8-5.4,3c-1.7,0.3-3.3,0.5-5,0.4c-1.2,0-2.4-0.1-3.5-0.3
					c-0.2,0-0.4-0.1-0.6-0.1c-5.5,8.3-8.4,15.1-8.6,20.4c-0.2,7,1,13.4,3.5,19.2c1.7,3.8,4,7.4,6.9,10.7c1.3,1.5,2.7,2.9,4.2,4.3
					c0.1,0.1,0.3,0.2,0.4,0.3c4.4,4,9.6,7.3,15.4,10c1.8,0.8,3.8,1.7,5.8,2.5c3.7,1.4,7.7,2.6,12,3.8c3.7,1,16,4.1,36.8,9.3
					c3.4,1.3,8.4,3.3,15.1,6c1.4,0.5,2.8,1.1,4.3,1.7c5.3,2.1,10.3,4,15.1,5.6c7.2,2.5,13.7,4.5,19.6,6c1.3,0.3,2.6,0.6,3.9,0.9
					c1.5,0.2,3.3,0.4,5.5,0.5c5.5,0.2,13.1,0.3,22.8,0.3h0.1c2.8,0,7.6,0.6,14.2,1.9l-4.5-0.5c14.5,2,28.3,5.7,41.4,11
					c13.3,5.4,20.2,8.2,20.7,8.4c1.5-0.5,2.8-1.1,3.9-1.8c0.6-0.4,3.5-4.2,8.7-11.4c-0.1,0-0.2,0-0.3-0.1v0c-0.1,0-0.1,0-0.2,0v0
					c0.1-0.1,0.1-0.2,0.2-0.4l-0.2,0.4l0,0c-0.8-0.2-1.6-0.4-2.3-0.5c-0.1,0-0.2,0-0.3,0c-0.5-0.1-1-0.2-1.6-0.3
					c-0.5-0.1-1.1-0.2-1.6-0.3c0,0-0.1,0-0.2,0l0,0c-1.1-4-1.9-7.2-2.3-9.5c-0.6-4.7-0.4-9.5,0.7-14.2c0.9-3.8,2.3-7.4,4.3-10.8
					c0.4-0.8,3-0.3,7.7,1.3c-0.4-1.7,0.1-1.8,1.3-0.2c-0.9-6.1-1.4-9.1-1.4-9.2c-0.2-1-0.6-1.8-1.1-2.5c-0.8-0.9-2.2-1.7-4.3-2.3
					c-2.4-0.7-3.9-1.4-4.7-2c-8.6-0.8-16.6-1.4-23.8-1.9c-0.5-0.2-1.1-0.5-1.7-0.8c-8-4.1-12.6-6.3-13.7-6.7c-3-1-6.7-1.6-11-1.7
					c-5,0-8.8,0-11.3-0.1c-5.1-0.1-10.1-0.6-14.9-1.3c-7.7-4.3-15.7-8.2-24-11.8c-0.2-0.1-0.5-0.2-0.7-0.3
					c-10.4-4.4-21-8.1-31.8-11.1c-10.6-6.3-20.7-12.3-30.4-18c-1.3-0.8-2.7-1.5-4.2-2.3c-3.9-2-8.3-3.9-13.2-5.6
					c-0.4-0.1-0.7-0.3-1.1-0.4c-0.2-0.1-0.4-0.1-0.6-0.2c-0.2-0.1-0.5-0.2-0.8-0.3c-4.5-1.4-14.8-4.2-31-8.4
					c-0.7,0.8-1.4,1.5-2.2,2.3C569,558.7,565.5,561.2,561.4,563.6z"/>
				<path class="st8" d="M892.5,592.8c0-0.2-0.1-0.5-0.1-0.7c-0.7-5.7-1.8-10.4-3.3-14.2c-1.1-3-2.6-5.7-4.4-8.3c0,0,0,0,0,0
					c-1.1-1.6-2.4-3.2-3.8-4.7c-1.7,0.1-3.5,0.1-5.3,0.2c-13.3,0.6-26.4,2.5-39.3,5.6c-2.5,0.6-4.5,1.3-6,2
					c-1.2,0.6-2.3,1.2-3.2,1.9c-3.5,0.3-7.2,0.8-10.9,1.4c-7.2,1.2-16.2,3.4-27,6.5c-16.4,4.8-25.4,7.4-27,7.8
					c-10.3,2.7-19.4,4.4-27.4,5c-10.9,0.3-19.1,0.6-24.6,0.9c-9,0.5-16.4,1.8-22.4,4.1c8.3,3.5,16.3,7.5,24,11.8
					c4.8,0.8,9.8,1.2,14.9,1.3c2.5,0.1,6.3,0.1,11.3,0.1c4.3,0.1,8,0.7,11,1.7c1.1,0.4,5.7,2.6,13.7,6.7c0.6,0.3,1.1,0.6,1.7,0.8
					c7.2,0.5,15.2,1.1,23.8,1.9c0.7,0.6,2.3,1.3,4.7,2c2,0.6,3.5,1.4,4.3,2.3c0.5,0.7,0.8,1.5,1.1,2.5c0,0.1,0.5,3.1,1.4,9.2
					c-1.2-1.6-1.7-1.5-1.3,0.2c-4.7-1.6-7.3-2.1-7.7-1.3c2.3,0.4,4,0.8,5.1,1.2c1,0.4,5.5,0.8,13.4,1.2c8,0.4,12.6,0.4,13.8,0.2
					c0,0,0.1,0,0.1,0c0.2-0.1,0.4-0.2,0.6-0.3c4.8-2,8.6-3.4,11.3-4.2c5-1.5,9.6-2.1,13.8-1.9c0.8,0.1,1.9,0.2,3.2,0.5
					c12.2-3.9,23.3-9.7,33.5-17.5c2-1.5,3.5-2.9,4.6-4.1c1.5-1.7,2.5-3.4,3-5.2c0.6-2,0.7-4.9,0.2-8.7
					C892.5,597.2,892.3,594.6,892.5,592.8z"/>
				<path class="st9" d="M868.3,642.3c-0.1,0-0.2,0-0.4,0c-0.2,0-0.4-0.1-0.5-0.1c-1.4-0.2-2.9-0.4-4.7-0.8c-5.1-1-8.7-2.8-11-5.2
					c-1.3-0.2-2.3-0.4-3.2-0.5c-4.2-0.2-8.8,0.4-13.8,1.9c-2.7,0.8-6.5,2.2-11.3,4.2c-0.2,0.1-0.4,0.2-0.6,0.3c0,0-0.1,0-0.1,0
					c-1.3,0.2-5.9,0.2-13.8-0.2c-7.9-0.4-12.4-0.8-13.4-1.2c-1.1-0.4-2.8-0.8-5.1-1.2c-1.9,3.3-3.4,6.9-4.3,10.8
					c-1.1,4.7-1.3,9.4-0.7,14.2c0.4,2.3,1.1,5.5,2.3,9.5l0,0c0.1,0,0.1,0,0.2,0c0.5,0.1,1.1,0.2,1.6,0.3c0.6,0.1,1.1,0.2,1.6,0.3
					c0.1,0,0.2,0,0.3,0c0.7,0.1,1.4,0.3,2.3,0.5l0,0l0.2-0.4c-0.1,0.1-0.1,0.2-0.2,0.4v0c0.1,0,0.1,0,0.2,0v0
					c0.1,0.1,0.2,0.1,0.3,0.1c3.7,0.8,9.1,2.2,16.4,4c13.6,4.3,27.4,8,41.2,11.1c12.2,4.2,24.6,7.5,37.1,9.8c-2.1-1-4.1-2.3-6-3.8
					c-1-0.8-1.9-1.6-2.8-2.5c-5.1-5-8.3-10.9-9.7-17.6c-1.3-6.6-0.4-13.2,2.5-19.8c2.6-5.7,6.2-10.2,10.9-13.6
					c-7.5-0.1-12.3-0.2-14.5-0.3c-0.2,0-0.3,0-0.4,0c0,0-0.1,0-0.1,0C867.7,642.5,867.6,642.4,868.3,642.3 M643.4,661
					c5-0.4,9.8-0.7,14.4-0.9c-4.7-1.6-9.7-3.5-15.1-5.6c-1.5-0.6-2.9-1.2-4.3-1.7c-6.7-2.7-11.8-4.7-15.1-6
					c-20.8-5.2-33-8.3-36.8-9.3c-4.3-1.2-8.3-2.4-12-3.8c1.6,4.4,2.7,7.9,3.3,10.6c0.9,4.3,1,8.2,0.2,11.7c-0.7,3.1-2.1,6.1-4.4,9.3
					c-1.4,2-3.4,4.2-5.8,6.7c2.2-0.4,4.4-0.7,6.8-1.1c7.5-1.2,15.7-2.6,24.6-4c16.1-2.5,28.1-4.2,35.8-5.1
					C637.7,661.5,640.6,661.2,643.4,661 M529.6,321.7c1.1,1.9,2.1,3.8,3,5.8c3.4,7.1,6,14.5,7.8,22.3c-1.6,0.6-3.1,1.5-4.5,2.5
					c-0.8,0.6-1.3,1-1.4,1.4c-0.2,0.3-0.3,0.9-0.3,1.7c0,1.3,0.2,2.4,0.5,3.5c-0.4,0.1-0.7,0.2-1,0.3c-1.9,0.5-3.5,1.6-4.7,3.2
					c-0.5,0.6-0.8,1.3-0.8,2.1c0.1,0.4,0.3,0.9,0.7,1.5c0.2,0.3,0.4,0.5,0.5,0.7c-0.7,0.2-1.4,0.4-2,0.6c-1.5,0.6-2.6,1.4-3.3,2.4
					c0,0,0,0,0,0c-0.1,0.1-0.2,0.3-0.3,0.4c-3,2.8,1.8,13.7,14.3,32.7c-0.4,4-0.9,10.2-1.5,18.6c-1.4,22.1-2.4,34.4-2.9,36.8
					c-3.9,13.4-6.6,27.1-8,41c-1.5,14.9,0.6,29.3,6.2,43c1.2,2.9,2.4,5.8,3.8,8.6c1.5,2.6,3.1,5.1,4.9,7.5c1.6,2.3,3.3,4.4,5,6.5
					c0.4,0.5,0.8,0.9,1.1,1.4c0.2,0.2,0.3,0.3,0.5,0.5c1.2,0.2,2.3,0.3,3.5,0.3c1.7,0.1,3.3-0.1,5-0.4c2.1-1.1,3.9-2.1,5.4-3
					c4.1-2.4,7.6-4.9,10.4-7.5c0.8-0.7,1.5-1.5,2.2-2.3c1.8-1.9,3.4-4,4.8-6.1c0.4-1,0.9-2,1.3-3c0.1-0.2,0.2-0.4,0.3-0.6
					c1.5-3.6,3-7.3,4.3-11c3.5-9.2,6.7-18.3,9.6-27.5c2.2-3.5,4.3-7.1,6.2-10.8c0.1-0.2,0.2-0.4,0.3-0.6c1.1-2.2,2.1-4.4,3.1-6.6
					c1.3-3.1,2.5-6.2,3.6-9.3v-4.5c-0.4-0.4-0.8-0.7-1.3-1.1c-3.4-2.8-7.4-5.1-11.9-6.8c-3.9-1.5-8.3-2.8-13.2-3.7
					c-2-0.4-4.2-0.7-6.8-1c-0.3-1.4-0.6-2.9-1-4.4c-3-13.4-5-23.4-5.9-30.1c-1.2-8.6-1.6-16.5-1.1-23.8c0.5-0.3,2.1-1.9,4.8-4.6
					c2.7-2.7,4.1-4.7,4.3-6.3c0.3-1.5,0.7-4,1.4-7.3c0.7-3.4,0.9-5.8,0.8-7.3c-0.2-2.8-0.4-5.4-0.8-8l-0.3-2.6
					c-0.6-2.2-1.9-4.2-4.1-6.1c-1.2-1.1-3-2.3-5.1-3.3c-3.4,0.9-6.8,1.7-10.3,2.3c-0.2-0.1-0.4-0.2-0.6-0.3
					c-0.2-0.1-0.8-0.6-1.6-1.4c-0.3-0.4-0.5-0.8-0.8-1.2c-0.2-0.3-0.4-0.7-0.5-1.1c-1.1-3.2-2.3-6.4-3.6-9.6c0-0.1-0.1-0.2-0.1-0.3
					c-3-7.4-6.2-14.2-9.8-20.5c-3.5-6.3-6.5-9.1-8.8-8.4c-2.3,0.7-2.7,2.6-1.3,5.8L529.6,321.7 M670.1,231.6c-0.7,2-1.3,3.4-1.8,4.1
					c-2.1,3.4-6.4,5.8-12.8,7.3c-5.7,1.2-11.5,1.6-17.4,1.4c-3.4-0.2-6.8-0.6-10.2-1.2c0.7,2.2,1.2,4,1.5,5.5
					c0.6,3.2,0.7,6.1,0.1,8.7c-0.4,2-1.5,4.5-3.2,7.4c-0.7,1.3-1.4,3.7-2,7.2c0.1,0.1,0.2,0.5,0.4,1.3c-0.2-0.1-0.3-0.2-0.4-0.3
					c0,0-0.1-0.1-0.2-0.1c-2.8-2.7-4.4-4.1-4.6-4.2c-0.3,0-0.6,0-0.8,0c-0.1,0-0.2,0-0.3,0c-0.5,0-0.9,0-1.3,0.2
					c-0.1,0-0.3,0.1-0.4,0.1c-0.3,0.1-0.5,0.2-0.8,0.4c-0.4,0.5-0.7,1-0.9,1.5c-0.5,1-0.8,2-1.1,3.1c-0.4,2.1-0.1,4.6,0.7,7.5
					c0.9,2.9,2.7,6.2,5.5,10c2.9,3.7,5.4,5.7,7.5,5.9c1,0.1,2.2,0.2,3.7,0.2c0.4,2.1,1.2,4.6,2.5,7.6c1.4,3,4.1,6.4,8.1,10.1
					l-2.3-2.6c1.3,1.2,3.4,3.1,6.3,5.5c1.4,1.2,2.9,2.3,4.3,3.3c0.7,0.5,1.4,0.9,2.2,1.3c0.2,1.6,0.3,3.2,0.1,4.7
					c-0.5,5.3-3,10.2-7.5,14.9c-0.9,0.9-1.8,1.7-2.7,2.5c-0.7,0.6-1.5,1.3-2.3,1.8c-0.1,0.1-0.3,0.2-0.4,0.3
					c-0.8,0.6-1.7,1.2-2.5,1.8c1,5.7,3,11,6.1,16.2c3.8,6.4,8.7,11.5,14.7,15.3c6.1,3.9,12.8,6.4,20.2,7.3c4.6,0.6,9.1,0.5,13.4-0.2
					c0.5-0.1,1.1-0.2,1.6-0.3c7.1-2.6,12.8-6,17-10c4.3-4.1,7.2-8.5,8.7-13.2c1.5-4.6,2.6-9.8,3.2-15.6c0.4-3.7,0.8-6.8,1.1-9.2
					l-0.9,0.5c0.1-0.2,0.2-0.4,0.3-0.5c-0.4-0.1-0.9-0.1-1.3-0.2c-2.9-0.5-5.5-1-7.8-1.8c-6.7-2.1-11.8-5.6-15.3-10.4
					c-0.1-0.2-0.7-1.1-1.8-2.7c0,0-0.1,0-0.1-0.1c2,2.9,0.1,5.1-5.6,6.6c-5.7,1.5-9.7,2.5-11.9,2.9c-2.2,0.5-4.7,0.6-7.4,0.4
					c-2.7-0.2-5.2-1.2-7.6-2.9c-2.3-1.7-6.3-4.6-12-8.6c4.3,2.1,8.7,4.1,13.1,6c0.5,0.2,1,0.4,1.5,0.6c5.5,0.6,11.7,0.2,18.7-1.3
					c6.4-1.3,10.3-3,11.8-5c0.1-0.2,0.2-0.3,0.3-0.5c0.2-0.3,0.4-0.6,0.6-0.8c1.5-2.6,4.1-6.4,7.8-11.5c3-4.6,4.7-8.8,5-12.5
					c0.2-1.3,0.2-3.3,0.1-5.8c0-0.8-0.1-1.3-0.1-1.6c0-0.3,0-2.5,0-6.5c3.1-2.4,5.6-5.2,7.5-8.4c2.7-4.6,3.8-9.4,3.3-14.4
					c-0.3-4.1-1.6-7-3.8-8.8c-1.1-0.7-2-0.9-2.8-0.6h-0.1c0,0.3-0.2,0.6-0.6,0.8c-0.4,0.2-1.1,0.9-2,2.1c-0.9,1.4-1.6,2.8-2.2,4.3
					c-0.1-1.2-0.2-2.5-0.3-3.8c-0.4-4.4-0.8-8.9-1.3-13.5c-1.9-1-3.3-1.7-4.5-2.3c-2.9-1.5-5.2-3-6.9-4.4c-2.3-1.8-4.1-3.9-5.3-6.1
					c-1.3-2.4-2-4.8-1.8-7.2c-4.1,0.2-7.3,0.7-9.7,1.5c-3.5,1.1-6,2.8-7.6,5.3C671.4,228.3,670.8,229.7,670.1,231.6z"/>
				<path class="st10" d="M530,650c1-4.4,2.8-8.6,5.3-12.8l-6.5-4.2c-0.9,1.4-1.9,2.8-2.8,4.3c-5.6,9.3-7.6,17.5-6.2,24.5
					c0.5,2.6,1.5,5,3,7.3c3.6,6,8.6,8.5,15,7.7c-0.5-0.4-0.9-0.8-1.3-1.3c-3.4-3.4-5.6-7.4-6.6-12C528.8,659.3,528.9,654.8,530,650
					 M935.2,655.2c-2.2-4.6-5.3-8.5-9.2-11.7c-4-3.3-8.4-5.5-13.2-6.7c-2.8-0.6-6.1-0.9-9.8-0.7c0,0-0.1,0-0.2,0c-0.1,0-0.2,0-0.3,0
					c-0.6,0.1-1.3,0.1-2,0.2l0.7,7.7c5.7,1,9.5,2.2,11.3,3.5c3.2,2.4,6.3,5.7,9.2,9.8c2.9,4.1,5,8.1,6.3,12c1,3,1.9,6.7,2.6,11.1
					c0.9,4.8,1.1,8.7,0.4,11.8c-0.2,1-0.5,2-0.9,2.9c0.6-0.8,1.3-1.6,1.8-2.5c5.5-7.8,7.8-16.1,6.8-24.9
					C938.3,663.5,937.2,659.3,935.2,655.2z"/>
				<path class="st11" d="M574.5,633.8c-2-0.8-4-1.6-5.8-2.5c-5.8-2.7-11-6-15.4-10c-7,2.4-13.1,7.7-18.1,15.8
					c-2.5,4.2-4.3,8.4-5.3,12.8c-1.1,4.8-1.1,9.3-0.2,13.6c1,4.6,3.2,8.6,6.6,12c0.4,0.4,0.9,0.9,1.3,1.3c8.1-1.3,18.1-2.9,30-4.8
					c2.5-2.5,4.4-4.7,5.8-6.7c2.3-3.1,3.7-6.2,4.4-9.3c0.8-3.5,0.7-7.4-0.2-11.7C577.2,641.7,576.2,638.2,574.5,633.8 M930.6,680.5
					c-0.7-4.4-1.6-8.1-2.6-11.1c-1.3-3.9-3.4-7.9-6.3-12c-2.9-4.1-5.9-7.3-9.2-9.8c-1.8-1.4-5.6-2.6-11.3-3.5
					c-4.4-0.7-9.9-1.4-16.5-1.9c-0.1,0.1-0.2,0.1-0.3,0.2c-0.2,0.1-0.3,0.3-0.5,0.3l2,0.3c-0.8,0-1.5-0.1-2.2-0.2
					c-4.7,3.4-8.3,7.9-10.9,13.6c-2.9,6.5-3.8,13.1-2.5,19.8c1.3,6.7,4.6,12.6,9.7,17.6c0.9,0.9,1.9,1.7,2.8,2.5
					c1.9,1.5,3.9,2.8,6,3.8c0.7,0.1,1.4,0.3,2.2,0.4c7.8,1.4,14.6,2.2,20.3,2.3c4.1,0.1,7.9-0.2,11.5-0.8c0.4-0.3,0.8-0.6,1.2-0.9
					c2.2-1.7,4.2-3.7,6-6c0.4-0.9,0.7-1.8,0.9-2.9C931.6,689.2,931.5,685.3,930.6,680.5z"/>
				<path class="st12" d="M901.2,644.1l-0.7-7.7c-4.1,0.4-8.6,1.3-13.7,2.6c-0.5,0.1-1.5,0.4-3,0.8c-1.5,0.4-4.8,0.9-9.8,1.6
					c-3.1,0.5-5.2,0.7-6.2,0.8c0.1,0,0.2,0,0.4,0c-0.7,0.1-0.5,0.1,0.4,0.2c0,0,0.1,0,0.1,0c0.1,0,0.3,0,0.4,0
					c2.2,0.1,7,0.3,14.5,0.3c0.7,0.1,1.4,0.1,2.2,0.2l-2-0.3c0.2-0.1,0.3-0.2,0.5-0.3c0.1-0.1,0.2-0.1,0.3-0.2
					C891.4,642.7,896.9,643.3,901.2,644.1 M537.4,623.2c-3,2.6-5.7,5.7-8.4,9.5c-0.1,0.1-0.2,0.3-0.3,0.4l6.5,4.2
					c5-8.1,11.1-13.4,18.1-15.8c-0.1-0.1-0.3-0.2-0.4-0.3c-1.5-1.4-2.9-2.8-4.2-4.3C544.8,617.9,541,620,537.4,623.2z"/>
				<path class="st13" d="M609.2,558.4c-0.8-1-1.4-2.3-1.7-3.8V538c-4.2,0.9-8.4,1.8-12.6,2.8c-4.8,1.1-9.6,2.2-14.5,3.4
					c-0.1,0.2-0.2,0.4-0.3,0.6c-0.4,1-0.9,2-1.3,3c-1.4,2.1-3,4.2-4.8,6.1c16.2,4.2,26.5,7,31,8.4c0.3,0.1,0.5,0.2,0.8,0.3
					c0.2,0.1,0.4,0.1,0.6,0.2c0.4,0.1,0.7,0.3,1.1,0.4c4.9,1.7,9.3,3.6,13.2,5.6c1.5,0.7,2.8,1.5,4.2,2.3c9.7,5.7,19.8,11.7,30.4,18
					c10.8,3,21.4,6.7,31.8,11.1c0.2,0.1,0.5,0.2,0.7,0.3c6-2.3,13.4-3.6,22.4-4.1c5.4-0.3,13.6-0.6,24.6-0.9c8-0.6,17.1-2.3,27.4-5
					c1.6-0.4,10.6-3,27-7.8c10.8-3.2,19.8-5.3,27-6.5c3.7-0.6,7.4-1.1,10.9-1.4c0.9-0.7,2-1.3,3.2-1.9c1.6-0.7,3.6-1.4,6-2
					c12.9-3.1,26-5,39.3-5.6c1.8-0.1,3.5-0.1,5.3-0.2c-0.8-0.9-1.7-1.7-2.6-2.5c-2.3-2.1-4.7-3.8-7.3-5.3c-3.2-0.8-6.9-1.6-11.2-2.4
					c-6.4-1.1-15.6-2.4-27.7-3.9c-0.1,0-0.1,0-0.2,0l-1.3,1.3c0,0.3,0,0.6,0,0.8c0,5.8-3.3,8.8-9.8,9l-202.4,0.6
					C614.1,562.2,611,560.8,609.2,558.4z"/>
				<path class="st14" d="M772.4,421.7c-1.3,0.6-2.5,0.6-3.6,0h-6H618.1l0.1,0c-5.8,0.1-9.2,2.3-10.4,6.7c-0.2,0.7-0.3,1.5-0.3,2.4
					v43.1c0.4,0.3,0.8,0.7,1.2,1c-0.4,1.2-0.8,2.4-1.2,3.5V538v16.7c0.3,1.5,0.9,2.7,1.7,3.8c1.8,2.4,4.9,3.8,9.2,4.2l202.4-0.6
					c6.6-0.2,9.8-3.2,9.8-9c0-0.3,0-0.6,0-0.8V429.7c0-0.2-0.1-0.4-0.1-0.6c-0.8-4.4-4.5-6.9-10.9-7.4h-25H772.4z"/>
				<path class="st15" d="M787,374.4c-2.2-5-5.1-9.3-8.7-12.9c-2.7-2.7-6.4-5.2-10.9-7.4c-2.1-0.8-4.3-1.6-6.4-2.5
					c-11.9-4.7-22.1-9-30.6-12.9c-0.7-0.3-1.2-0.6-1.6-0.8c-3-1-5.1-0.7-6.4,1c-0.1,0.2-0.2,0.4-0.3,0.5l0.9-0.5
					c-0.3,2.4-0.7,5.4-1.1,9.2c-0.6,5.8-1.7,11-3.2,15.6c-1.5,4.7-4.4,9.1-8.7,13.2c-4.3,4.1-10,7.4-17,10c-0.5,0.1-1.1,0.2-1.6,0.3
					c-4.4,0.7-8.9,0.8-13.4,0.2c-7.4-0.9-14.1-3.3-20.2-7.3c-6-3.9-10.9-9-14.7-15.3c-3.1-5.1-5.1-10.5-6.1-16.2
					c0.9-0.5,1.7-1.1,2.5-1.8c-0.9-3-5.6-2-14.3,3c-8.7,5.1-20.3,10.7-34.7,17c-5.3,2.8-8.6,5.1-10,6.8c-1.3,1.7-2.3,2.9-2.8,3.7
					c0.1,1.5-0.2,3.9-0.8,7.3c-0.7,3.4-1.1,5.8-1.4,7.3c-0.2,1.5-1.7,3.6-4.3,6.3c-2.7,2.7-4.2,4.2-4.8,4.6
					c-0.4,7.3,0,15.2,1.1,23.8c0.9,6.7,2.9,16.8,5.9,30.1c0.3,1.5,0.7,3,1,4.4c2.5,0.3,4.8,0.7,6.8,1c4.9,0.9,9.3,2.2,13.2,3.7
					c4.5,1.8,8.5,4,11.9,6.8c0.4,0.3,0.8,0.7,1.3,1.1v-43.1c0.1-0.9,0.2-1.7,0.3-2.4c1.2-4.3,4.6-6.5,10.4-6.7l-0.1,0h144.7
					c-0.2-8.3-0.4-16.6-0.9-24.8c1,14.6,3.3,22.9,6.9,24.8c1.1,0.6,2.3,0.6,3.6,0h22.3V420c0-0.1,0-0.3,0-0.4c-0.4-3-0.9-8-1.6-15
					c-0.5-6.4-1.1-11.5-1.8-15.5C790.3,383.6,788.8,378.7,787,374.4z"/>
				<path class="st16" d="M663.7,330.7c2.3,1.7,4.8,2.7,7.6,2.9c2.7,0.2,5.2,0.1,7.4-0.4c2.2-0.5,6.2-1.5,11.9-2.9
					c5.7-1.4,7.5-3.6,5.6-6.6c0,0.1,0.1,0.1,0.1,0.1c0.3,0.4,0.2,0.2-0.2-0.5c0.2-0.3,0.4-0.6,0.6-0.9c-1.4,2-5.3,3.7-11.8,5
					c-6.9,1.4-13.1,1.9-18.7,1.3c-0.5-0.2-1-0.4-1.5-0.6c-4.4-1.8-8.8-3.8-13.1-6C657.4,326.1,661.4,328.9,663.7,330.7z"/>
				<path class="st17" d="M761.9,396.9c0.4,8.2,0.7,16.4,0.9,24.8h6C765.2,419.8,762.9,411.5,761.9,396.9z"/>
				<path class="st18" d="M606.4,226.8c-1.4,1.4-2.4,3.1-3,5.1c-0.9,3-0.8,6.9,0.5,11.8c1.3,4.9,3.2,9.5,5.9,13.9
					c2.5,4.1,5.4,7.7,8.8,10.9c0.2,0,0.5,0,0.8,0c0.2,0,1.8,1.4,4.6,4.2c0.1,0,0.1,0.1,0.2,0.1c0.1,0.1,0.3,0.2,0.4,0.3
					c-0.2-0.8-0.3-1.3-0.4-1.3c0.7-3.5,1.3-5.9,2-7.2c1.7-2.9,2.7-5.4,3.2-7.4c0.6-2.6,0.5-5.5-0.1-8.7c-0.3-1.4-0.7-3.2-1.5-5.5
					c3.4,0.6,6.7,1,10.2,1.2c5.9,0.3,11.7-0.1,17.4-1.4c6.5-1.4,10.8-3.9,12.8-7.3c0.5-0.8,1.1-2.2,1.8-4.1c0.7-1.9,1.3-3.3,1.9-4.2
					c1.6-2.5,4.1-4.2,7.6-5.3c2.4-0.7,5.6-1.2,9.7-1.5c-0.1,2.4,0.5,4.8,1.8,7.2c1.3,2.3,3.1,4.4,5.3,6.1c1.7,1.4,4,2.8,6.9,4.4
					c1.1,0.6,2.6,1.4,4.5,2.3c0.5,4.6,1,9.1,1.3,13.5c0.1,1.3,0.2,2.6,0.3,3.8c0.6-1.5,1.3-2.9,2.2-4.3c0.9-1.2,1.6-1.9,2-2.1
					c0.5-0.2,0.7-0.4,0.6-0.8c0.9-2.8,2-7.3,3.4-13.6c2.3-11,2-18.8-1-23.3c-1-1.5-2.5-2.9-4.5-4.2c-1.2-0.7-3-1.7-5.6-2.9
					c-7-3.3-12.5-5.6-16.4-7l-5-1.5c-8.3-8.7-19.4-11.1-33.3-7.2c-13.9,4-24.1,9.9-30.7,17.7c-3,3.9-4.8,8.6-5.2,14.1
					C610.8,224.4,607.5,225.7,606.4,226.8z"/>
			</g>
		</g>
	</g>
</g>
</svg>
