<?xml version="1.0" encoding="utf-8"?>
<!-- Generator: Adobe Illustrator 24.3.0, SVG Export Plug-In . SVG Version: 6.00 Build 0)  -->
<svg version="1.1" id="_x32_b8e3008-3352-469a-8231-8c916447ef06"
	 xmlns="http://www.w3.org/2000/svg" xmlns:xlink="http://www.w3.org/1999/xlink" x="0px" y="0px" viewBox="0 0 1037.9 772.3"
	 style="enable-background:new 0 0 1037.9 772.3;" xml:space="preserve">
<style type="text/css">
	.st0{opacity:0.1;fill:#F3B44F;enable-background:new    ;}
	.st1{fill:none;stroke:#535461;stroke-width:2;stroke-miterlimit:10;}
	.st2{fill:#F3B44F;}
	.st3{fill:url(#SVGID_1_);}
	.st4{fill:#FCB040;}
	.st5{fill:#DDE1EC;}
	.st6{opacity:0.3;fill:#535461;enable-background:new    ;}
	.st7{opacity:0.1;}
	.st8{fill:#535461;}
	.st9{opacity:5.000000e-02;enable-background:new    ;}
	.st10{opacity:0.1;enable-background:new    ;}
	.st11{fill:none;stroke:#535461;stroke-miterlimit:10;}
	.st12{fill:#A8A8A8;}
	.st13{opacity:0.2;enable-background:new    ;}
	.st14{fill:#E29D88;}
	.st15{fill:#825659;}
	.st16{fill:#23141B;}
	.st17{fill:#613D4E;}
	.st18{fill:#5E53AC;}
	.st19{fill:#574CA2;}
	.st20{fill:#8D6BD2;}
	.st21{fill:#D19C7D;}
	.st22{fill:#EB6778;}
	.st23{fill:#9B555E;}
	.st24{fill:#FFFFFF;}
	.st25{fill:#FF0000;}
</style>
<path class="st0" d="M104.4,77.3c-6.5,2.7-13.1,6.1-16.6,12.1c-3.8,6.4-3.3,14.3-2.6,21.6c6.1,63.9,22.2,131.9-5.6,189.8
	c-13.5,28.1-36,50.6-53.9,76.1C7.7,402.5-5.8,434.4,2.5,464.4c10.2,36.7,48.1,57,73.6,85.2c16.7,18.5,28.5,40.9,44.1,60.3
	s37,36.5,61.9,37.7c35.8,1.7,65-29.3,100.1-36.5c36-7.3,72.3,11.3,101.4,33.7s55.7,49.5,89.8,63.4c37.6,15.4,79.9,13.1,119.4,22.3
	c36,8.5,69.1,26.4,104.9,36s77.6,9,105.3-15.5c36.1-32,33.3-89,56.3-131.3c21.4-39.3,63.3-62.8,91.5-97.6
	c50.8-62.6,49.1-158.2,6-226.3s-121.2-109.3-201-120c-36-4.8-73.1-4.2-107.7-15.2C555.6,131.3,500.5,26,405.9,4.1
	C345.8-9.9,287.3,14.2,236.1,43.9C191.7,69.6,150.7,58.1,104.4,77.3z"/>
<path class="st1" d="M194.7,283.8c0,0-34.1,32.2-70.8,33.2c-15.4,0.3-30.2,5.6-42.4,15.1c-5.7,4.5-11,9.6-15.8,15.1"/>
<path class="st2" d="M42.6,347.9c4.9-2.5,23.7-0.8,23.7-0.8s-9.7,16.1-14.7,18.6c-4.8,2.8-10.9,1.2-13.7-3.5
	c-2.8-4.8-1.2-10.9,3.5-13.7C41.8,348.3,42.2,348.1,42.6,347.9L42.6,347.9z"/>
<path class="st2" d="M62.4,319.4c5.5,0.6,20.4,12.2,20.4,12.2s-17,8.3-22.4,7.7c-5.5-0.8-9.2-5.9-8.4-11.4
	C52.7,322.8,57.2,319.1,62.4,319.4z"/>
<path class="st2" d="M109.3,296.4c4.4,3.3,11.4,20.8,11.4,20.8s-18.8-1.4-23.3-4.7c-4.3-3.5-5-9.8-1.5-14.1
	C99.2,294.4,105,293.5,109.3,296.4z"/>
<path class="st2" d="M148.6,287c4.9,2.5,14.8,18.6,14.8,18.6s-18.8,1.8-23.7-0.7c-5.1-2.2-7.4-8.1-5.2-13.2
	c2.2-5.1,8.1-7.4,13.2-5.2C148,286.6,148.3,286.8,148.6,287L148.6,287z"/>
<path class="st2" d="M93.2,349.8c1.6-5.3-3.2-23.5-3.2-23.5s-14.3,12.3-15.9,17.6c-1.9,5.2,0.8,10.9,6,12.8c5.2,1.9,10.9-0.8,12.8-6
	C93,350.4,93.1,350.1,93.2,349.8z"/>
<path class="st2" d="M139.1,338.1c0-5.5-10.1-21.5-10.1-21.5s-9.9,16-9.9,21.5c0,5.5,4.5,10,10,10
	C134.7,348.2,139.1,343.7,139.1,338.1L139.1,338.1L139.1,338.1z"/>
<path class="st2" d="M182.2,320.8c0.9-5.4-6.3-22.9-6.3-22.9s-12.5,14.1-13.4,19.6c-0.7,5.5,3.2,10.5,8.7,11.1
	C176.4,329.2,181.1,325.8,182.2,320.8L182.2,320.8z"/>
<path class="st1" d="M239,198.5c0,0-41.1-22.6-53.3-57.2c-5-14.5-14.6-27.1-27.4-35.7c-6.1-4-12.5-7.5-19.2-10.4"/>
<path class="st2" d="M131.3,73.5c3.9,3.9,8.1,22.3,8.1,22.3s-18.4-4.3-22.3-8.2c-3.7-4.1-3.4-10.4,0.7-14.1
	C121.7,70,127.5,70.1,131.3,73.5z"/>
<path class="st2" d="M164.5,83.6c1.1,5.4-5.3,23.1-5.3,23.1s-13.1-13.6-14.2-19c-1.4-5.3,1.8-10.8,7.2-12.2
	c5.3-1.4,10.8,1.8,12.2,7.2C164.4,82.9,164.5,83.2,164.5,83.6L164.5,83.6z"/>
<path class="st2" d="M200.8,121.1c-1.7,5.2-16.3,17.3-16.3,17.3s-4.4-18.3-2.7-23.6c1.7-5.2,7.4-8.1,12.7-6.3
	S202.6,115.9,200.8,121.1L200.8,121.1L200.8,121.1z"/>
<path class="st2" d="M221.9,155.7c-0.8,5.4-13.1,19.8-13.1,19.8s-7.5-17.3-6.6-22.8c0.6-5.5,5.5-9.5,11-8.9c5.5,0.6,9.5,5.5,8.9,11
	C222,155,222,155.4,221.9,155.7L221.9,155.7z"/>
<path class="st2" d="M145.1,122.2c5.5-0.1,21.4-10.2,21.4-10.2s-16.1-9.8-21.6-9.7c-5.5,0.1-9.9,4.6-9.9,10.1
	C135,117.9,139.6,122.3,145.1,122.2L145.1,122.2L145.1,122.2z"/>
<path class="st2" d="M170.2,162.4c5.2-1.7,17.4-16.2,17.4-16.2s-18.3-4.5-23.6-2.8c-5.3,1.5-8.4,7-6.9,12.4c1.5,5.3,7,8.4,12.4,6.9
	C169.8,162.5,170,162.4,170.2,162.4L170.2,162.4z"/>
<path class="st2" d="M200,198c5.5-0.8,19.8-13,19.8-13s-17.3-7.6-22.7-6.8c-5.5,0.6-9.5,5.5-8.9,11s5.5,9.5,11,8.9
	C199.5,198.1,199.8,198.1,200,198L200,198z"/>
<linearGradient id="SVGID_1_" gradientUnits="userSpaceOnUse" x1="521.94" y1="27.59" x2="521.94" y2="751.59" gradientTransform="matrix(1 0 0 -1 0 774)">
	<stop  offset="0" style="stop-color:#808080;stop-opacity:0.25"/>
	<stop  offset="0.54" style="stop-color:#808080;stop-opacity:0.12"/>
	<stop  offset="1" style="stop-color:#808080;stop-opacity:0.1"/>
</linearGradient>
<circle class="st3" cx="521.9" cy="384.4" r="362"/>
<circle class="st4" cx="521.9" cy="384.4" r="356"/>
<circle class="st5" cx="521.9" cy="384.4" r="283"/>
<rect x="513.9" y="151.4" class="st6" width="16" height="250"/>
<g class="st7">
	<rect x="538.9" y="378.4" width="226" height="20"/>
	<rect x="435.8" y="269.4" transform="matrix(0.4639 -0.8859 0.8859 0.4639 -70.7616 582.4201)" width="20" height="160.5"/>
	<circle cx="521.9" cy="388.4" r="30"/>
</g>
<rect x="538.9" y="374.4" class="st8" width="226" height="20"/>
<rect x="435.9" y="265.4" transform="matrix(0.4639 -0.8859 0.8859 0.4639 -67.2031 580.3463)" class="st8" width="20" height="160.5"/>
<circle class="st8" cx="521.9" cy="384.4" r="30"/>
<g class="st7">
	<path d="M260.9,418.4c0-156.3,126.7-283,283-283c88.9-0.1,172.7,41.7,226.2,112.8c-48.2-87.5-141.2-146.8-248.2-146.8
		c-156.3,0-283,126.7-283,283c-0.1,61.4,19.9,121.2,56.9,170.2C272.8,512.9,260.9,466,260.9,418.4z"/>
</g>
<path class="st9" d="M624.2,262.9c0,0,22.4,8.2,37,1.8l7.3,0.5c0,0,12.2,8.5,25,4.7"/>
<path class="st9" d="M730.2,249.2c0,0-3.7,8.7-1.8,11.4"/>
<path class="st9" d="M584.5,246.5c0,0,1.8,8.7,0,11.4"/>
<path class="st2" d="M963.3,444.3c0,0-41.8,41.8-18.2,103.9c23.6,62.1-40.5,165.3-40.5,165.3s0.7-0.1,2-0.3
	c85.9-15.2,128.6-113.4,80.8-186.5C969.6,499.6,955.1,467.8,963.3,444.3z"/>
<path class="st10" d="M963.3,445c0,0-41.8,41.8-18.2,103.9c23.6,62.1-40.5,165.3-40.5,165.3s0.7-0.1,2-0.3
	c85.9-15.2,128.6-113.4,80.8-186.5C969.6,500.3,955.1,468.5,963.3,445z"/>
<path class="st11" d="M963.3,444.3c0,0-23.6,51.3,0,93.1s4,159.3-58.7,176.1"/>
<path class="st2" d="M1037.8,613.5c0,0-47.7-7.6-52.1,35.2s-91.8,48.7-91.8,48.7l1.6,1.1c72.2,47.4,141.2,30.2,130.8-32.8
	C1022.5,642.3,1022.9,618.8,1037.8,613.5z"/>
<path class="st11" d="M1037.8,613.5c0,0-37.1,8.1-34,41.8s-55,74.1-109.9,42.1"/>
<path class="st12" d="M995.8,699c0,0-37.6-7.5-47.6-17.5s-55.2-27.6-60.2-15s-67.7,55.2-25.1,62.7s100.3,10,112.8,5
	S995.8,699,995.8,699z"/>
<path class="st13" d="M863,724.4c42.6,7.5,100.3,10,112.8,5c9.6-3.8,16.2-22.2,18.8-30.7l1.3,0.3c0,0-7.5,30.1-20.1,35.1
	s-70.2,2.5-112.8-5c-12.3-2.2-15.8-7.3-14.5-13.7C849.5,719.5,853.8,722.8,863,724.4z"/>
<g id="Layer_2_1_">
	<g>
		<g>
			<g>
				<path class="st14" d="M675.3,149.1c-0.7,0-1.2,0.2-1.4,0.6c-1.1,0.9-1.3,4.5-0.5,10.8c-4.8-6.4-8.3-9.8-10.8-10.3
					c-1.1-0.2-2.4-0.2-3.9-0.2c-1.5,0.1-3,0.3-4.8,0.7c-1.7,0.3-2.9,0.5-3.7,0.6c-0.8,0.1-2.2,0-4.3-0.2c-3.3-0.3-6.7-1.5-10.3-3.6
					c-2-1.1-4.6-2.9-7.9-5.4c0.4,6.7-0.4,11.4-2.2,14.3c-0.6,1-1.3,2.1-2,3.3c0.3,0.8,0.5,1.5,0.8,2.2c0.4,0.9,2,4.8,4.9,11.8
					l-2.5-4c-1.1-0.6-1.8-0.9-2.1-1c1.4,3.7,3.1,6.8,5.1,9.4c0.1,0.1,0.1,0.2,0.2,0.3c0.4,0.5,0.8,0.9,1.2,1.4c0,0,0,0.1,0,0.1
					c0.1,0.1,0.1,0.1,0.2,0.2c0.1,0.2,0.3,0.3,0.4,0.5c0,0.1,0.1,0.1,0.1,0.1c0.8,0.9,1.6,1.8,2.5,2.6c1,1.1,2,2,3,2.9
					c2,1.8,4,3.2,6,4.4c1.9,1.1,3.8,2,5.8,2.7c0.9,0.3,1.7,0.6,2.6,0.8c2.5,0.6,4.8,0.7,7.1,0.5c5.5-2.3,10.6-7.2,15.3-14.6
					c1.6-2.7,2.8-5.4,3.3-8.3c0.3-1.1,0.4-2.2,0.5-3.3l0.7,0.1c0-0.3,0.1-0.6,0.1-0.9c0.1-0.8,0.2-1.8,0.3-2.9
					c0.8-0.5,1.3-0.8,1.5-1l0.2,0l-0.1,2.4c0,0,0,0,0.1,0.1c0,0,0,0.1,0.1,0.1c0.1-0.4,0.1-0.7,0.1-1.1c0.3-1.8,0.3-3.1,0.2-4
					c-0.2-1.3-0.4-2.3-0.6-3.2c-0.1-0.3-0.1-0.6-0.2-0.8c0-0.1,0-0.1,0-0.2c-0.6-2.1-1.4-4.1-2.6-5.9
					C677.1,149.7,676.2,149.1,675.3,149.1 M610.1,508.6c1.8,6,5.9,9.2,12.4,9.4c3.8-0.1,6-0.2,6.3-0.5l0.2-0.2c0-0.1,0-0.1,0-0.2
					c0,0,0,0,0,0c0-0.1,0-0.2,0-0.3c-0.1-2.2-0.2-3.9-0.4-5.2c-0.8-6-1.3-10.1-1.5-12.1c-0.5-7.3,0.1-13.5,1.9-18.5
					c-2.4-0.7-4.8-1.5-7.1-2.4c-3-1.1-5.5-2.3-7.6-3.8c-1.5,3.4-3.3,6.6-5.5,9.5C608.4,494.8,608.9,502.9,610.1,508.6 M658.2,478
					c-5.2-1.1-10.1-3-14.7-5.5c0.2,4.1,0.2,7.3-0.2,9.5c0,0.1,0,0.2-0.1,0.4c-0.6,0.9-1.7,1.2-3.4,0.9c-0.1,0-0.3,0-0.5,0
					c0,0-0.1,0-0.1,0c0,0.1-0.1,0.1-0.1,0.1c-0.3,0.3-0.7,0.7-1.2,1.3c-0.5,5-0.5,9.9,0,14.8c0.1,1.7,0.4,3.5,0.8,5.3
					c0.2,1,0.5,2.1,0.8,3.1c0.3,0.9,0.7,2.2,1.4,3.8c0.6,1.6,3.2,3.5,7.8,5.6c4.5,2,7.2,0.9,8.1-3.5l-3.4-15.4
					c-0.2-0.7-0.3-1.3-0.4-1.8l-0.4-4.3c0.6-2.6,1.6-5.4,2.8-8.3C655.9,482.4,656.9,480.5,658.2,478 M742.6,203.5
					c-0.1,0.5-0.2,1.1-0.2,1.8c0,0.4,0,0.9,0.2,1.7c-0.7,1.9-1.2,3.2-1.3,3.9c-0.1,0.7,0,1.4,0.3,2c0.3,0.7,0.7,1.6,1.3,2.6
					l-11.4,35.2c-5.5-16.6-8.4-25.5-8.6-26.8c-1.4,0.1-2.9,0.3-4.3,0.6c-3.3,0.8-6.2,2-8.7,3.9c-2.6,1.9-4.7,4.3-6.1,7.1
					c-0.8,1.6-1.4,3.2-1.7,4.8l16.5,35.9c0.3,0.4,0.6,0.7,0.8,1.1c2,2.6,4.4,4.7,7.1,6.5c4.4,2.9,9,4.6,13.9,5
					c2.2-2.8,4.1-5.9,5.7-9.3c0.4-0.9,0.8-1.8,1.1-2.7c1-4.1,1.9-9.8,2.7-17.2c0.1-0.5,0.1-1.1,0.2-1.7c0.5-4.6,1-9.8,1.4-15.6
					c0.8-11.8,2.3-22.4,4.5-32c1.5-2.2,3.2-5,5.1-8.4c0.1-0.2,0.2-0.4,0.3-0.6c0.1-0.2,0.1-0.3,0.2-0.5c0,0,0,0.1,0,0.1
					c0,0,0.1,0,0.1,0c0.1,0,0.1,0,0.1,0c0.1,0,0.3,0,0.4-0.1c1.6-1,3.2-2.2,4.8-3.7c1.1-0.9,1.9-1.9,2.6-3c0.3-0.5,0.6-1,0.8-1.5
					c0.1-0.4,0.2-0.8,0.3-1.2c0,0.3,0,0.5,0.1,0.8c0.6-0.8,1.2-1.5,1.8-2.3c0.4-0.4,0.7-0.8,0.9-1.3c0.3-1.8,0.6-3.4,0.9-4.9
					c0.6-3.3,1.1-6,1.5-8.1c-0.7,0-1.2,0.1-1.6,0.3c-0.3,0.1-0.7,0.4-1,0.8c-0.1,0.1-0.1,0.1-0.2,0.2c0,0,0,0.1,0,0.1
					c-1.6,3.5-2.5,7.1-2.7,10.7c0,0.3-0.1,0.6-0.1,0.9c-0.3-3.7-0.3-7.3-0.1-10.9c-0.6,0.1-1.1,0.3-1.7,0.6
					c-0.5,0.4-0.9,0.8-1.3,1.1c-0.2,0.2-0.3,0.4-0.5,0.6c-0.3,0.7-0.5,1.3-0.8,2c-1.1,3.2-1.8,6.5-2.1,10c-0.7,0.3-1.4,0.6-2,1
					c0.1-1.4,0.3-2.9,0.5-4.5c-0.5,0.2-1,0.3-1.5,0.4c-0.3,0.2-0.5,0.4-0.7,0.5c0,0-0.1,0.1-0.1,0.1l-0.1,0.2
					c-0.2,0.8-0.3,1.7-0.6,2.5l-0.1,0.3c-0.2,0.7-0.3,1.5-0.5,2.2c0,0.1-0.1,0.2-0.1,0.3c-1.1,0.2-1.9,0.3-2.5,0.3
					c-0.1,0-0.2,0-0.3-0.1c-0.1,0-0.1-0.1-0.1-0.2v0c0.1-0.6,0.1-1.2,0.2-1.8c0.5-3.7,1.3-7.5,2.4-11.4l-0.5-0.6
					c-0.1-0.1-0.3-0.1-0.7-0.1c-0.5,0-0.8,0-1,0.1c-0.2,0.1-0.5,0.3-0.9,0.6c-0.4,0.3-0.8,0.5-1.1,0.4c-0.1,0.1-0.1,0.1-0.2,0.2
					c-1,1.1-1.6,2.2-1.9,3.3c-0.1,0.4-0.2,1-0.3,1.6c0,0.1,0,0.1,0,0.2c-0.2,0.9-0.4,2.1-0.7,3.7c-0.3,1.5-0.8,2.7-1.4,3.6
					c-0.5,0.8-1.3,1.8-2.5,2.8c-0.6,0.5-1,0.9-1.4,1.3c-0.7,0.6-1.2,1.1-1.5,1.4c-0.2,0.2-0.4,0.4-0.5,0.6c-0.4,0.7-0.8,1.2-1,1.5
					C743,202.6,742.8,202.9,742.6,203.5 M743.4,214.5l-0.1-0.3C743.4,214.4,743.4,214.5,743.4,214.5L743.4,214.5 M667.8,197.5
					c0.3-1.1,0.7-2.1,1.3-3.2c0.8-1.5,1.8-3,3.1-4.4c0.7-0.7,1.4-1.5,2.2-2.1c1.3-1.5,1.9-3.1,1.8-4.9c0-0.3-0.1-0.5-0.2-0.8
					c-0.1-0.3-0.2-0.7-0.4-1c-0.2,0.6-1.3,2.2-3.4,5c-2.7,3.7-6.4,7.2-10.8,10.6c-4.8,0.7-8.8-0.2-11.8-2.7c0.1,0.4,0.1,0.8-0.1,1.1
					c0,0.1-0.1,0.1-0.1,0.2c-0.2,0.5-0.7,1-1.6,1.5c-0.5,0.3-1.1,0.5-1.8,0.8c-0.1,0-0.1,0.1-0.2,0.1c-0.5,3.2-0.2,6.6,0.9,10.1
					c1,3.2,2.5,6.2,4.6,9.1c1.9,2.6,4.3,5,7.2,7.4c1.5,1.2,3.2,2.6,5.3,4h0.1l7.4-5c2-1.4,3.5-2.5,4.3-3.2c0.6-0.5,1.2-1,1.6-1.5
					c0,0,0-0.1,0.1-0.1c0.1-0.5,0.3-1,0.6-1.6c0,0,0-0.1,0-0.1c0.4-1,1-2.2,1.7-3.6c0.7-1.3,1.2-2.2,1.4-2.9
					c0.4-1.1,0.6-2.1,0.4-3.1c-0.1-1.2-0.5-2.3-1.4-3.3c-1.6,1-2.6,2.1-3.2,3.6c-0.2,0.7-0.4,2.1-0.4,4.4c0,1.5-0.3,2.7-0.8,3.5
					c-0.9-0.6-1.7-1.2-2.4-1.8c-2.1-1.7-3.6-3.6-4.6-5.5c-1-2.1-1.4-4.3-1.3-6.8C667.4,200,667.5,198.8,667.8,197.5 M586.3,213.1
					c0-0.2,0.1-0.3,0.4-0.4c-0.5,0-0.9,0-1,0c-0.5,0.1-0.9,0.1-1.4,0.2c-3.3,0.3-6.6,0.1-10-0.5l-9,47.4c0,4.2,0.4,8,1.4,11.4
					c0.9,3.3,2.3,6.2,4.2,8.8c0.2,0.2,0.3,0.4,0.5,0.7c3,0.3,6-0.2,9-1.4c2.7-1,5-2.5,6.8-4.4l0.2-0.2c0.7-0.6,1.4-1.4,2.3-2.3
					c2.8-2.8,6.6-6.7,11.4-11.8c6.3-6.6,11.3-12.3,15-17c0.7-0.8,1.5-1.8,2.4-3c0.1-0.1,0.2-0.2,0.3-0.3c-0.1-0.1-0.1-0.7,0.2-1.8
					c0.3-1.1-0.8-3.5-3.3-7.3c-2.5-2.8-5.1-4.6-7.8-5.5c-1.3-0.4-2.6-0.5-4-0.4l-3.5,4.2c-0.4,0.7-0.9,1.3-1.4,1.9
					c-1.1,1.3-2.2,2.5-3.3,3.7c-0.3,0.4-0.7,0.8-1,1.2c-3,3.5-5.5,6.3-7.4,8.6C586.7,237.2,586.5,226.6,586.3,213.1 M586.5,194
					c-0.2-0.3-0.4-0.6-0.6-0.8c-0.6-0.6-1.5-1.3-2.6-2c-0.8-0.6-2.9-1.7-6.1-3.5c-1.4-0.8-2.7-1.6-3.8-2.3c-1.3-1.9-2.1-3.7-2.5-5.4
					c-0.4-1.7-0.8-3-1.3-4.1c-0.4-1-1.2-1.5-2.3-1.5c0.1,1.4,0.2,2.8,0.4,4.1c0,0,0,0.1,0,0.1c0.4,0.9,0.6,2.3,0.6,4.2
					c0.1,0.3,0.2,0.5,0.3,0.8c-0.1-0.3-0.2-0.5-0.3-0.8c0,0,0,0.1,0,0.1l0.4,0.9c-0.1-0.1-0.2-0.3-0.4-0.5c0,0.2,0,0.5,0,0.7
					l-0.1-0.9c-1.1-1.6-2-3.5-2.9-5.8c-1-2.6-1.9-4.3-2.8-5.1c-0.8-0.8-1.7-1-2.5-0.4c-0.4-1.1-1.1-1.7-2.2-2
					c-0.4,0.1-0.8,0.3-1.3,0.5c0.3,0.8,0.6,1.4,0.7,2.1c0,0.1,0,0.1,0,0.1c0.5,2.7,1.2,5.3,2,7.9v0c0,0,0,0,0,0.1
					c0,0.1,0.1,0.1,0,0.2c0.1,0.1,0.1,0.2,0.1,0.4c0,0,0,0,0.1,0.1c0,0.1,0,0.1,0,0.1c0,0,0,0,0,0.1c0.1,0.3,0.2,0.6,0.3,0.9
					c0,0.1,0.1,0.2,0.1,0.3c0.1,0.2,0.1,0.4,0.2,0.6c0,0,0,0.1,0,0.1c0,0.1,0,0.1,0.1,0.2c-0.2-0.2-0.4-0.4-0.6-0.6
					c-0.2-0.3-0.4-0.7-0.6-1.1c0-0.1-0.1-0.1-0.2-0.2c-0.3-0.6-0.6-1.2-1-1.8c-0.3-0.5-0.6-1-0.8-1.4c-1.9-3.2-2.7-4.8-2.6-4.8
					c-1.1-2.3-2.5-3.3-4.2-3.1c-0.5,0.1-0.7,0.2-0.7,0.3l7.2,18l4.3,2.8l13,10v0l0.8,1.6c0.2,0.4,0.3,0.8,0.4,1.1
					c0.2,0.7,0.3,1.3,0.3,1.8v0c0.1,0.7,0,1.3-0.1,1.8c-0.1,0.3-0.2,0.6-0.4,0.8c0.1,0,0.2,0.1,0.3,0.1c0.8,0.3,1.8,0.5,3,0.5
					c2.7,0.2,5.4,0,8.1-0.8c0-1.4,0-2.8,0-4.3c-0.1,0-0.3-0.1-0.5-0.2c0.2-0.1,0.3-0.3,0.5-0.5c0.5-0.8,0.9-2.1,1-3.9
					C587.6,197.5,587.3,195.6,586.5,194C586.6,194.1,586.6,194.1,586.5,194 M568.2,182.4C568.1,182.4,568.1,182.4,568.2,182.4
					L568.2,182.4L568.2,182.4L568.2,182.4z"/>
				<path class="st15" d="M645.9,111.4c-7.1,0-13.1,1.6-18,4.7c-4.9,3.1-8.8,6.6-11.6,10.5c-2.3,3.3-3.6,7.9-3.6,13.7l-2.2,6.7
					c-0.1,2.5,0.3,5,1,7.4c0.7,2.5,1.8,4.7,3.3,6.7c1.2,1.8,2.6,3.3,4.3,4.5c0.2,0.2,0.4,0.3,0.6,0.5c1.6,1.2,3.3,2.1,5.2,2.8
					c0.3,0.1,1,0.4,2.1,1l2.5,4c-2.9-7-4.5-10.9-4.9-11.8c-0.3-0.7-0.5-1.4-0.8-2.2c0.7-1.2,1.4-2.3,2-3.3c1.8-2.9,2.6-7.6,2.2-14.3
					c3.3,2.5,5.9,4.3,7.9,5.4c3.6,2,7,3.2,10.3,3.6c2.1,0.2,3.5,0.3,4.3,0.2c0.8-0.1,2-0.3,3.7-0.6c1.7-0.3,3.3-0.5,4.8-0.7
					c1.5-0.1,2.8,0,3.9,0.2c2.4,0.4,6,3.8,10.8,10.3c-0.8-6.3-0.6-9.9,0.5-10.8c0.3-0.4,0.8-0.6,1.4-0.6c0.9,0,1.8,0.6,2.7,1.9
					c1.1,1.8,2,3.8,2.6,5.9c0,0.1,0,0.1,0,0.2c0.1,0.3,0.1,0.6,0.2,0.8c0.2,0.9,0.4,1.9,0.6,3.2c0.1,0.9,0.1,2.2-0.2,4l0.5-0.3
					c0,0,0.1,0.1,0.1,0.1c0.1,0.1,0.1,0.2,0.2,0.3c0,0.1,0.1,0.1,0.1,0.2l0,0c0,0,0,0.1,0,0.1c0.1,0.2,0.2,0.4,0.3,0.6l0.1,0.1
					c0,0,0,0.1,0,0.1c0,0,0.1,0.3,0.4,0.7c0,0.1,0.1,0.1,0.1,0.2c0,0,0,0,0,0.1c0.2,0.3,0.4,0.6,0.6,1l-0.6-1.3
					c0.1-0.2,0.2-0.3,0.2-0.3c0-0.1,0.1-0.1,0.1-0.2c0.6-0.8,1.2-1.7,1.6-2.8c0.4-1.7,0.9-3.8,1.5-6.5c0-0.9,0.1-1.8,0-2.8
					c0-0.5-0.1-1.7-0.3-3.8c0-0.5-0.1-1.1-0.1-1.6c-0.4-4.4-0.9-8-1.5-10.9c-0.2-0.9-0.4-1.7-0.6-2.5c-4.3-8.6-10.4-15.1-18.3-19.3
					C659.6,113,653,111.4,645.9,111.4 M681.1,166.2C681,166.2,681,166.1,681.1,166.2c-0.1-0.1-0.1-0.1-0.1-0.1c0,0.1,0,0.2,0,0.3
					c0,0.3,0,0.6,0,0.9c0,0.2,0,0.5,0,0.7c0,0.3,0,0.5,0.1,0.8c0.1,0.9,0.3,1.7,0.7,2.6v0.1c0,0.1,0.1,0.1,0.1,0.2
					c0.3,0.8,0.7,1.5,1.2,2.1c0.2-1,0.2-1.8,0-2.4v-0.1c0-0.1-0.1-0.3-0.1-0.4c0-0.1-0.2-0.6-0.5-1.4c0-0.1,0-0.1,0-0.2
					c0,0,0,0.1,0,0.1c0-0.1-0.1-0.2-0.1-0.3c0-0.1,0-0.1,0-0.1c0,0,0,0-0.1-0.1c-0.1-0.2-0.2-0.5-0.3-0.6c0,0,0,0,0-0.1
					c0,0,0,0,0-0.1c0,0,0,0,0-0.1C681.5,167.2,681.3,166.6,681.1,166.2C681.1,166.2,681.1,166.2,681.1,166.2 M678.9,168.4l-0.7-0.1
					c-0.1,1.1-0.2,2.2-0.5,3.3c-0.6,2.9-1.7,5.6-3.3,8.3c0.3,0.2,0.6,0.5,0.9,0.9c0,0.1,0.1,0.1,0.1,0.2c0.1,0.1,0.1,0.1,0.2,0.2
					c0.2,0.3,0.3,0.7,0.4,1c0.1,0.3,0.1,0.5,0.2,0.8c0.1,1.7-0.5,3.3-1.8,4.9c-0.8,0.7-1.5,1.4-2.2,2.1c-1.2,1.4-2.2,2.8-3.1,4.4
					c-0.5,1.1-0.9,2.1-1.3,3.2c-0.3,1.2-0.5,2.4-0.5,3.7c-0.1,2.5,0.3,4.7,1.3,6.8c1,1.9,2.5,3.8,4.6,5.5c0.6,0.5,1.4,1.1,2.4,1.8
					c0.5-0.8,0.7-2,0.8-3.5c0.1-2.3,0.2-3.7,0.4-4.4c0.6-1.4,1.6-2.6,3.2-3.6c0.9,1,1.3,2.1,1.4,3.3c0.1,1-0.1,2-0.4,3.1
					c-0.2,0.7-0.7,1.6-1.4,2.9c-0.7,1.4-1.3,2.6-1.7,3.6c0,0,0,0.1,0,0.1c-0.2,0.6-0.4,1.1-0.6,1.6c0,0.1,0,0.1-0.1,0.1
					c-0.5,1.9-0.6,3.7-0.2,5.3c0.4,1.9,1.4,3.6,3.1,5.1c1.5,1.4,3.3,2.4,5.4,3.1c1.7,0.5,3.7,0.8,6,0.9c0.6,0,1.3,0,2,0
					c-0.3-0.3-0.5-0.6-0.8-1c-0.7-1.6-0.7-3.4,0.3-5.3c0.7-1.3,1.8-2.6,3.5-4.1c2.4-2.5,4.1-4.3,5.2-5.5c1.8-2.1,3.3-4.2,4.3-6.1
					c1.3-2.3,2.2-4.7,2.5-7.1c0-0.1,0-0.1,0-0.1c0.4-2.6,0.2-5-0.7-7.3c-0.6-1.6-1.4-2.9-2.6-4c-0.3-0.3-0.7-0.6-1.1-0.9
					c-0.1,0-0.1-0.1-0.2-0.1c0,0,0,0-0.1,0c0.4-2.2,0.3-4.2-0.3-6.1c-0.8-2.4-2.7-4.8-5.8-7.4c-2.6-2.2-5.3-4.1-8.3-5.9
					c-0.8-0.4-1.5-0.9-2.3-1.3c-1.3-0.6-2.2-1.1-2.6-1.3c-0.1,0-0.2-0.1-0.3-0.2c0,0-0.1-0.1-0.1-0.1l0,0c0,0-0.1,0-0.1-0.1l0-0.1
					c0,0.1,0,0.1,0,0.2c0,0,0,0.1,0.1,0.1c0,0.1,0,0.1,0.1,0.2c0.1,0.5,0.2,0.9,0.3,1.4l0,0c0.2,0.9,0.3,1.8,0.3,2.7
					c0,0.7-0.1,1.3-0.2,1.6c0,0,0,0.1-0.1,0.1c-0.3,0.5-1.1,1-2.4,1.6c-0.2-0.1-0.4-0.3-0.5-0.4c-1.1-1-1.8-2.2-2.3-3.6
					c-0.1-0.3-0.2-0.7-0.3-1c0-0.2-0.1-0.4-0.1-0.6v-0.1C678.9,170.5,678.9,169.5,678.9,168.4z"/>
				<path class="st16" d="M604.5,520.3c0.5,1.3,1.1,2.5,1.9,3.7c1.8,2.7,4.2,4.8,7,6.3c4.2,2.2,8.4,3.2,12.7,3.1
					c1.6,0,2.7-0.5,3.3-1.4c0.5-0.9,0.8-1.4,0.8-1.4c-3.9,0-6.7-0.1-8.5-0.3c-1.7-0.3-3.1-0.6-4.3-1c-1.1-0.4-3.5-1.8-7.2-4.3
					c-3.7-2.5-5.5-5.9-5.3-10.3c-0.1,0.7-0.1,1.4-0.2,2c0,0.2,0,0.4,0,0.5c0,0.2,0,0.4,0,0.6C604.7,519.3,604.6,520.1,604.5,520.3
					 M635.8,520.7c0,1,0.4,2.3,1.1,3.8c2.7,3.4,7.3,5.8,13.8,7.3c1.6,0.3,3.1,0.6,4.7,0.8c4.3,0.8,6.4-0.1,6.1-2.8
					c-3.4,0.1-6.8-0.3-10.2-1.2c-5.7-1.4-10.8-4-15.3-7.7C636,520.8,635.9,520.7,635.8,520.7z"/>
				<path class="st17" d="M608.8,484.3l0,0.1c-3.4,2.6-5.1,5.5-5,8.8c0.5,1.7,1,6.8,1.3,15.5c0,1.6,0,3.2,0,4.7c0,1.1,0,2.2-0.1,3.3
					c0-0.6,0.1-1.2,0.2-2c-0.1,4.4,1.7,7.8,5.3,10.3c3.7,2.5,6.1,3.9,7.2,4.3c1.1,0.4,2.5,0.7,4.3,1c1.8,0.3,4.6,0.4,8.5,0.3
					c0.5-1.3,0.7-2.8,0.6-4.5c-0.1-1.7-0.4-3.3-0.8-5c-0.4-1.7-0.6-2.6-0.7-2.9c-0.2-0.4-0.3-0.8-0.4-1c0,0,0-0.1,0-0.2c0,0,0,0,0,0
					c0,0.1,0,0.1,0,0.2l-0.2,0.2c-0.4,0.3-2.5,0.5-6.3,0.5c-6.4-0.2-10.6-3.4-12.4-9.4C608.9,502.9,608.4,494.8,608.8,484.3
					 M637.9,484.6c-0.4,0.2-0.9,0.3-1.3,0.6c-1.6,0.8-3,1.8-4.1,3c-1.1,1.3-0.9,3.9,0.6,7.8c1.2,2.7,2.1,7.6,2.6,14.9
					c0.1,1.5,0.2,3,0.2,4.5c0,1.5,0,3.1,0,4.6l0,0c0,0.2,0,0.4,0,0.7c0.1,0.1,0.2,0.2,0.3,0.2c4.4,3.7,9.5,6.3,15.3,7.7
					c3.4,0.9,6.8,1.3,10.2,1.2c0,0,0-0.1,0-0.1c0.3-1.7,0.1-3.3-0.5-4.9c-0.1-0.4-0.3-0.8-0.5-1.3c0-0.1-0.1-0.1-0.1-0.2
					c0,0,0,0,0,0c-0.6-1.5-1.8-4.7-3.6-9.7c0.1,0.3,0.1,0.6,0.1,0.9l-0.2-0.8c-0.9,4.4-3.6,5.5-8.1,3.5c-4.6-2.1-7.2-3.9-7.8-5.6
					c-0.7-1.6-1.1-2.9-1.4-3.8c-0.3-1.1-0.6-2.1-0.8-3.1c-0.4-1.8-0.6-3.6-0.8-5.3C637.4,494.5,637.4,489.6,637.9,484.6z"/>
				<path class="st18" d="M673.7,350.4c-0.7-0.5-1.3-1-1.8-1.6c-3.7,0.2-7.8,0.1-12.6-0.3c-7.9-0.9-13.9-1.4-17.8-1.6
					c-6.7-0.3-12.7,0.4-18,2.1c-6.2,2-11,5.1-14.3,9.5c-5.1-5.6-9.1-11.9-12.1-18.9c-1.1-2.6-1.7-4.9-1.8-7
					c-0.4,0.7-0.9,1.3-1.3,2.1c-1.6,5.4-1.9,11-0.8,16.9c0.9,4.7,2.5,9,4.9,12.8c1.4,2.3,3.2,4.4,5.1,6.4c3,3,6.6,5.5,10.8,7.5
					c3.9,1.9,8.2,3.2,12.7,4c4.8,0.9,10.2,1.2,16.1,1c-0.1,0-0.1,0.1-0.2,0.1c-0.9,0.5-1.6,1.3-2,2.3c-0.6,1.3-0.6,2.8,0,4.5
					c0,0.2,0.1,0.4,0.2,0.8c0.1,0.3,0.1,0.6,0.1,0.9c0,0.7-0.3,1.3-1,2c-0.3,0.1-0.5,0.3-0.8,0.4c-0.4,0.2-0.8,0.5-1.2,0.8
					c-2.3,1.6-4.3,4-5.9,7.1c-1.3,2.5-2.5,6-3.7,10.5l-11,41.8c-2.3,2.5-3.9,4.6-4.8,6.5c-1.1,2.2-1.8,3.7-2.1,4.5
					c-0.3,0.8-1,1.7-2,2.8c-1,1.1-0.8,2.1,0.6,3c1.4,1,2.4,1.7,2.9,2.3c0.7,0.6,1.4,1.1,2.2,1.6c2.1,1.4,4.6,2.7,7.6,3.8
					c2.3,0.9,4.7,1.7,7.1,2.4c2.9,0.8,5.3,1.5,7.1,1.9c1.2,0.3,2.2,0.4,3.1,0.4c0,0,0.1-0.1,0.1-0.1c0,0,0.1,0,0.1,0
					c0.2,0,0.3,0,0.5,0c1.7,0.3,2.8,0,3.4-0.9c0-0.1,0-0.2,0.1-0.4c0.4-2.2,0.4-5.4,0.2-9.5c0-0.1,0-0.2,0-0.3c0-0.1,0-0.1,0-0.2
					c0-0.6,0-1.2,0-1.8c-0.1-4.1,0.4-7.2,1.3-9.4c0.5-1.2,1.3-2.6,2.5-4.1c0.7-0.8,1.7-2.1,3-3.8c0.5-0.7,1-1.5,1.4-2.3
					c1.7-4.9,3.5-9.7,5.5-14.5c8-20.1,17.7-39.5,29.1-58c2.4-4,4-7.3,4.8-9.9c0.2-0.8,0.4-1.6,0.6-2.4c-1.1-1.5-2.4-3-3.7-4.4
					c-3.2-3.5-6.8-6.5-10.8-8.9C675,351.2,673.9,350.5,673.7,350.4z"/>
				<path class="st19" d="M720.2,354.9c-2.3-2.3-5.1-4.5-8.6-6.4c-2.3-1.3-5.4-2.8-9.3-4.4c-0.9-0.3-1.7-0.7-2.5-1
					c-1.5,0.2-3.1,0.5-4.8,0.9c-7.9,2.3-13.8,3.7-17.8,4.3c-1.6,0.2-3.4,0.4-5.3,0.4c0.5,0.5,1.1,1.1,1.8,1.6
					c0.2,0.1,1.3,0.8,3.4,2.1c4,2.4,7.6,5.4,10.8,8.9c1.3,1.4,2.6,2.9,3.7,4.4c-0.1,0.8-0.3,1.6-0.6,2.4c-0.8,2.6-2.4,5.9-4.8,9.9
					c-11.4,18.6-21.1,37.9-29.1,58c-1.9,4.8-3.7,9.6-5.5,14.5c-0.5,0.8-1,1.6-1.4,2.3c-1.3,1.7-2.3,3-3,3.8c-1.2,1.5-2,2.9-2.5,4.1
					c-1,2.2-1.4,5.3-1.3,9.4c0,0.6,0,1.2,0,1.8c0,0.1,0,0.1,0,0.2c0,0.1,0,0.2,0,0.3c4.6,2.6,9.5,4.4,14.7,5.5c0.1,0,0.2,0,0.3,0
					c2.4,0.5,4.8,0.8,7.2,1c0-0.8,0.1-1.3,0.2-1.6c0.1-0.7,0.4-1.5,1.1-2.5c0.5-0.8,1.1-1.7,1.8-2.8c0.1-0.2,0.3-0.4,0.4-0.5
					c3.1-2.9,5.1-9.2,6.1-18.8c3.6-6.7,7.3-13.3,11.4-20c4.5-7.4,9.3-14.8,14.3-22.1c5.1-7.5,8-11.8,8.8-13c3.2-5,5.7-9.6,7.4-13.8
					c2.2-5.1,3.6-10.1,4.2-15.1C721.8,363.9,721.4,359.2,720.2,354.9z"/>
				<path class="st20" d="M679,167.5c0,0.3-0.1,0.6-0.1,0.9c0,1.1,0,2.2,0.1,3.1v0.1c0,0.2,0.1,0.4,0.1,0.6c0.1,0.3,0.2,0.7,0.3,1
					c0.5,1.4,1.2,2.6,2.3,3.6c0.2,0.2,0.4,0.3,0.5,0.4c1.3-0.6,2.1-1.2,2.4-1.6c0,0,0-0.1,0.1-0.1c0.1-0.4,0.2-0.9,0.2-1.6
					c0-0.9-0.1-1.8-0.3-2.7l0,0c-0.1-0.5-0.2-0.9-0.3-1.4c0-0.1,0-0.1-0.1-0.2c0,0,0-0.1-0.1-0.1c0,0,0-0.1,0-0.2l0,0.1
					c0,0,0.1,0,0.1,0.1l-0.7-1.2c-0.2-0.4-0.4-0.7-0.6-1c0,0,0,0,0-0.1c0,0-0.1-0.1-0.1-0.2c-0.3-0.4-0.4-0.7-0.4-0.7
					c0,0,0-0.1,0-0.1l-0.1-0.1c-0.1-0.2-0.2-0.4-0.3-0.6c0,0,0-0.1,0-0.1l0,0c0,0-0.1-0.1-0.1-0.2c-0.1-0.1-0.1-0.2-0.2-0.3
					c0,0-0.1-0.1-0.1-0.1l-0.5,0.3c0,0.3-0.1,0.7-0.1,1.1c0,0,0,0,0,0.1c0.2,0.4,0.4,0.9,0.7,1.7c0,0,0,0,0,0.1c0,0,0,0,0,0.1
					c0,0,0,0,0,0.1c0.1,0.2,0.2,0.4,0.3,0.6c0,0,0,0,0.1,0.1c0,0,0,0.1,0,0.1c0,0.1,0.1,0.2,0.1,0.3c0,0,0-0.1,0-0.1
					c0,0.1,0,0.1,0,0.2c0.3,0.8,0.5,1.3,0.5,1.4c0,0.1,0.1,0.3,0.1,0.4v0.1c0.1,0.7,0.1,1.5,0,2.4c-0.5-0.7-0.9-1.4-1.2-2.1
					c0-0.1-0.1-0.1-0.1-0.2v-0.1c-0.3-0.8-0.5-1.7-0.7-2.6c0-0.2,0-0.5-0.1-0.8c0-0.2,0-0.5,0-0.7c0-0.3,0-0.6,0-0.9
					c0-0.1,0-0.2,0-0.3l0.1-2.4l-0.2,0c-0.2,0.2-0.7,0.5-1.5,1C679.2,165.7,679.1,166.7,679,167.5 M631.3,179.9
					C631.3,179.9,631.3,179.9,631.3,179.9c-0.4-0.5-0.8-1-1.2-1.4c-0.1-0.1-0.1-0.2-0.2-0.3c-0.2,3,0.1,5.4,0.7,7.1
					c0.4,0.9,0.7,1.6,0.9,2c0.2,0.4,0.4,0.7,0.6,0.8c0.2,0.2,0.7,0.5,1.6,1.1c0.8,0.6,2-0.2,3.5-2.3l-0.3,0.4
					c0.2-0.3,0.5-0.7,0.7-1.1c-1-0.9-2-1.8-3-2.9c-0.1,0.2-0.2,0.5-0.4,0.8c-0.3,0.5-0.6,0.8-0.7,1c-0.1-0.2-0.2-0.3-0.3-0.5
					c-0.7-1.2-1.1-2.3-1.2-3.4c0-0.2,0-0.4,0-0.6c-0.1-0.1-0.3-0.3-0.4-0.5C631.4,180.1,631.4,180,631.3,179.9 M589.3,205.8
					c-0.8-0.5-1.8-0.9-2.8-1.3c0,1.5,0,2.9,0,4.3c-2.7,0.7-5.4,1-8.1,0.8c-1.2-0.1-2.2-0.3-3-0.5c-0.1,0-0.2-0.1-0.3-0.1
					c0.2-0.2,0.3-0.5,0.4-0.8c0.1-0.5,0.2-1.1,0.1-1.8v0c0-0.4-0.1-1-0.3-1.8c-1.3,0.6-2.1,1-2.4,1.2c-0.7,0.4-1.2,0.9-1.5,1.5
					c-0.4,0.6-0.6,1.3-0.7,1.9c-0.1,0.8,0.1,1.4,0.5,2c0.5,0.7,1.5,1.2,3.2,1.5h0c3.4,0.6,6.7,0.8,10,0.5c0.5-0.1,0.9-0.1,1.4-0.2
					c0.2-0.1,0.5-0.1,1,0c-0.2,0.1-0.3,0.2-0.4,0.4c0.2-0.2,0.3-0.3,0.5-0.4c0.3,0,0.6,0,1,0c-0.4-0.1-0.7-0.1-1-0.1
					c0.2-0.1,0.3-0.1,0.4-0.2c0.9-0.4,1.7-1,2.5-1.8c0.5-0.5,0.8-1,1-1.4c0.4-0.8,0.3-1.6-0.2-2.4
					C590.4,206.7,590,206.3,589.3,205.8z"/>
				<path class="st21" d="M675.3,180.8c-0.3-0.4-0.6-0.7-0.9-0.9c-4.8,7.5-9.9,12.4-15.3,14.6c-2.3,0.2-4.6,0.1-7.1-0.5
					c-0.9-0.2-1.7-0.4-2.6-0.8c0.1,0.3,0.2,0.5,0.2,0.8c3,2.5,6.9,3.4,11.8,2.7c4.5-3.4,8.1-6.9,10.8-10.6c2.1-2.8,3.2-4.4,3.4-5
					c0-0.1-0.1-0.1-0.2-0.2C675.4,180.9,675.3,180.9,675.3,180.8z"/>
				<path class="st22" d="M680.1,229c-1.6-1.5-2.7-3.2-3.1-5.1c-0.4-1.6-0.3-3.4,0.2-5.3c-0.5,0.5-1,1-1.6,1.5
					c-0.8,0.7-2.3,1.8-4.3,3.2l-7.4,5h-0.1c-2-1.4-3.8-2.8-5.3-4c-2.9-2.4-5.3-4.9-7.2-7.4c-2.1-2.9-3.6-6-4.6-9.1
					c-1.1-3.5-1.4-6.8-0.9-10.1c0,0,0,0,0,0c-8.5,1.2-15.6,2.1-21.3,2.9c-4,0.9-7.4,3-10.1,6.4c-0.9,1.2-1.9,2.8-3.2,5l-7.5,13.6
					c1.3-0.1,2.6,0,4,0.4c2.8,0.9,5.4,2.7,7.8,5.5c2.5,3.8,3.6,6.2,3.3,7.3c-0.3,1.1-0.3,1.7-0.2,1.8c-0.1,0.1-0.2,0.2-0.3,0.3
					l1.3,1c-1.5,5.1-1.6,9.9-0.3,14.4c0.3,1.1,0.8,2.2,1.3,3.3c1.1,3.8,1.6,7.9,1.5,12.4c-0.1,4.4-0.2,7.9-0.5,10.6
					c-0.4,4.5-1.8,9.1-4.3,13.9c-1.9,3.7-4.6,7.8-8.1,12.4c-4.1,5.1-7.2,8.9-9.1,11.4c-2.8,3.6-5,7-6.8,10.2
					c-0.4,0.7-0.8,1.4-1.1,2.1c-1,2.2-1.8,4.3-2.4,6.4c-0.3,0.7-0.6,1.5-0.9,2.2c-1.3,3.7-2,7.6-2.1,11.7c-0.1,4.1,0.3,8.1,1.3,11.9
					c0.1-3.7,0.4-7.4,0.9-11.1c0.3-2,0.6-3.9,0.9-6c0.4-2.1,0.8-4.1,1.3-5.8c0.5-1.8,1-3.3,1.6-4.7c0.3-0.8,0.7-1.6,1.1-2.3
					c0.4-1.2,0.8-2.4,1.3-3.6c-0.1,0.5-0.1,1,0,1.5c0.1,2,0.7,4.4,1.8,7c3,7,7,13.3,12.1,18.9c3.4-4.4,8.1-7.6,14.3-9.5
					c5.3-1.7,11.3-2.4,18-2.1c4,0.2,9.9,0.7,17.8,1.6c4.7,0.4,8.9,0.5,12.6,0.3c1.9-0.1,3.7-0.2,5.3-0.4c4-0.6,9.9-2,17.8-4.3
					c1.7-0.4,3.3-0.7,4.8-0.9c0.8-0.1,1.6-0.2,2.3-0.2c1-0.1,1.9-0.1,2.9-0.1c-10.6-6.6-16.8-14.8-18.6-24.6
					c-0.1-0.8-0.2-1.5-0.3-2.3c-0.5-4.4-0.8-8.5-0.9-12.3c-0.2-5.4-0.1-10.2,0.5-14.3c0.9-6.9,1.7-11.3,2.4-13.1
					c1-2.6,2.4-4.5,4.2-5.8c3-1.9,5.3-3.9,6.7-5.9c2.7-4,3.7-9.7,2.8-16.9l0.3,0.8c-0.2-4-0.2-6.7,0-8.1c0.3-1.6,0.8-3.2,1.7-4.8
					c1.4-2.9,3.5-5.3,6.1-7.1c2.5-1.8,5.4-3.1,8.7-3.9c1.4-0.3,2.8-0.5,4.3-0.6c0-0.1-0.1-0.3-0.1-0.5c-1.2-5.8-3.5-10.6-6.7-14.3
					c-2.2-2.3-4.7-4.1-7.4-5.5c0,0,0,0-0.1,0c0,0,0,0.1,0,0.1c-0.3,2.4-1.2,4.8-2.5,7.1c-1.1,1.9-2.5,4-4.3,6.1
					c-1,1.2-2.8,3-5.2,5.5c-1.7,1.5-2.8,2.9-3.5,4.1c-0.9,1.9-1,3.6-0.3,5.3c0.2,0.4,0.5,0.7,0.8,1c-0.7,0-1.4,0-2,0
					c-2.3-0.1-4.3-0.4-6-0.9C683.4,231.4,681.6,230.4,680.1,229z"/>
				<path class="st23" d="M594,334.7c-0.4,0.7-0.8,1.5-1.1,2.3c-0.6,1.4-1.1,2.9-1.6,4.7c-0.5,1.7-0.9,3.7-1.3,5.8
					c-0.3,2-0.6,4-0.9,6c-0.5,3.8-0.8,7.5-0.9,11.1c0.2,0.7,0.4,1.4,0.7,2.1c2.2-1,4.1-1.6,5.5-2c1.3-0.3,2.5-0.4,3.7-0.4
					c-2.4-3.8-4-8-4.9-12.8C592.2,345.7,592.4,340.1,594,334.7z"/>
				<path class="st24" d="M686.3,157.6c0,0,0-0.1,0-0.1c0-0.1,0-0.2,0.1-0.3c-0.6,2.7-1,4.8-1.5,6.5c0.5-1.2,0.9-2.5,1.2-4
					c0.1-0.6,0.2-1.2,0.3-1.9C686.4,157.7,686.4,157.6,686.3,157.6z"/>
			</g>
		</g>
	</g>
	<g transform="matrix( 1, 0, 0, 1, 2.2,-4) ">
		<g>
			<g>
				<path class="st25" d="M635.8,154.6c-0.4,0-0.7,0.1-0.9,0.3c-0.2,0.3-0.4,0.6-0.4,1s0.1,0.7,0.4,0.9c0.3,0.3,0.6,0.4,0.9,0.4
					c0.4,0,0.7-0.1,0.9-0.4c0.3-0.2,0.4-0.5,0.4-0.9s-0.1-0.7-0.4-1C636.5,154.7,636.2,154.6,635.8,154.6z"/>
			</g>
		</g>
	</g>
</g>
</svg>
